<?xml version="1.0" encoding="utf-8" ?>
<svg xmlns="http://www.w3.org/2000/svg" xmlns:xlink="http://www.w3.org/1999/xlink" width="1024" height="1024">
	<path fill="#FEFEFE" d="M-0 -0L1024 0L1024 1024L-0 1024L0 -0Z"/>
	<path fill="#231F20" d="M331.696 154.75L332.778 154.359C334.789 155.606 336.414 159.748 337.592 161.894L356.3 199.573C359.825 206.382 364.796 213.511 367.402 220.641C368.154 222.698 367.85 223.395 366.94 225.25L365.25 226.473C363.283 226.428 362.382 226.286 361.042 224.771C358.662 222.078 356.875 218.261 355.122 215.115C346.747 200.091 339.75 183.673 334.604 167.274C333.441 163.569 331.4 158.642 331.696 154.75Z"/>
	<path fill="#231F20" d="M781.885 262.25C782.648 262.083 783.471 262.048 784.25 261.963C785.507 262.61 785.909 263.015 786.596 264.25C786.58 268.603 783.731 271.508 781.139 274.702L786.25 274.161C788.021 274.248 788.585 275.052 789.675 276.25C790.024 277.676 789.838 277.862 789.289 279.25C786.043 281.816 778.605 281.438 774.347 282.246C775.514 283.67 777.592 285.7 778.032 287.5C778.28 288.516 778.185 290.123 777.389 290.889C776.232 292.001 775.197 291.835 773.75 291.87C770.307 290.122 768.546 286.9 767.106 283.416L766.84 282.75L765.503 282.916C762.35 283.163 757.192 283.709 754.25 282.517C752.939 281.985 752.343 281.274 751.75 280.003C751.843 278.466 752.155 277.674 752.828 276.333C755.347 274.663 759.964 275.428 763.035 275.457C761.078 273.391 758.334 271.074 758.485 268C758.553 266.602 759.547 264.993 760.589 264.104C761.832 263.044 763.174 262.885 764.75 263.186C768.045 263.816 770.723 270.183 772.682 272.864C775.819 269.588 777.976 264.602 781.885 262.25Z"/>
	<path fill="#231F20" d="M584.063 108.25L584.903 108.194L585.519 109L585.223 110.848C582.644 125.572 578.331 140.098 574.761 154.609L568.247 180.081C567.364 183.064 566.716 186.323 565.488 189.177C564.912 190.515 564.305 191.335 563.121 192.166C561.529 192.637 560.738 192.353 559.25 191.825C558.16 190.917 557.34 189.783 557.012 188.372C556.39 185.701 559.2 178.715 559.954 176C564.989 157.883 570.583 139.996 577.507 122.5C579.328 117.897 581.071 112.178 584.063 108.25Z"/>
	<path fill="#231F20" d="M264.328 197.546C265.945 197.441 267.627 197.26 269.189 197.79C272.403 198.88 275.425 201.441 276.926 204.5C278.533 207.776 278.264 212.394 277.039 215.743C274.438 222.854 266.604 227.468 260.035 230.307C257.223 231.025 254.704 231.271 252 229.979C249.985 229.016 248.405 227.536 247.67 225.396C245.999 220.527 246.422 215.232 248.626 210.611C251.951 203.641 257.327 200.045 264.328 197.546Z"/>
	<path fill="#FEFEFE" d="M265.312 205.75L267.5 205.49C268.898 206.077 269.107 206.298 270.047 207.5C270.069 208.247 270.118 209.011 269.956 209.75C268.917 214.457 262.163 218.483 258.378 220.934C256.763 221.178 256.003 221.246 254.626 220.407C254.292 218.708 254.936 216.858 255.504 215.25C257.034 210.919 261.272 207.562 265.312 205.75Z"/>
	<path fill="#231F20" d="M139.497 389.581C142.414 389.424 145.292 389.424 147.852 391.024C151.044 393.018 152.674 395.951 153.293 399.611C154.226 405.128 151.922 410.924 148.784 415.391C144.364 421.683 137.795 426.651 130.132 427.898C128.105 427.956 125.664 427.562 123.855 426.641C120.711 425.041 117.826 422.003 116.815 418.589C115.377 413.732 116.125 408.907 118.592 404.528C122.792 397.073 131.536 391.887 139.497 389.581Z"/>
	<path fill="#FEFEFE" d="M141.594 397.11L142.303 397.099C144.054 397.241 144.75 397.471 145.71 398.878C145.906 402.387 144.66 405.287 142.885 408.25C139.77 413.451 134.157 417.968 128.25 419.53C127.6 419.438 126.602 419.328 126 419.007C124.742 418.337 123.199 416.425 123.019 414.938C122.728 412.53 125.021 408.9 126.331 406.965C130.324 401.069 134.621 398.471 141.594 397.11Z"/>
	<path fill="#231F20" d="M444.038 107.562C446.719 107.414 448.817 107.275 451.289 108.495C454.861 110.26 458.19 114.224 459.319 118.048C460.697 122.713 460.42 127.201 458.009 131.49C454.056 138.525 445.989 142.553 438.542 144.612L434.5 144.993C431.149 144.894 427.665 142.22 425.647 139.714C423.058 136.499 421.688 132.322 422.296 128.203L422.411 127.5C422.775 125.125 423.567 122.869 424.705 120.75C428.71 113.298 436.294 109.825 444.038 107.562Z"/>
	<path fill="#FEFEFE" d="M447.525 115.09L448.502 115.316C450.066 115.782 451.199 116.969 451.712 118.509C452.425 120.646 452.271 123.513 451.152 125.467C447.809 131.305 440.565 135.199 434.25 136.717C433.148 136.621 432.075 136.555 431.135 135.895C430.116 135.181 429.604 134.101 429.337 132.928C428.681 130.054 430.283 127.484 431.802 125.17C435.483 119.56 441.072 116.445 447.525 115.09Z"/>
	<path fill="#231F20" d="M654.203 150.672C656.575 150.746 659.278 151.364 661.25 152.737C665.408 155.633 667.365 160.335 668.292 165.148C669.15 169.604 666.606 175.338 664.086 178.968C658.936 186.389 651.001 190.042 642.377 191.644C639.225 191.531 636.81 190.904 634.25 188.949C630.606 186.167 627.813 181.226 627.234 176.734C626.542 171.36 628.399 165.78 631.75 161.564C637.317 154.562 645.572 151.619 654.203 150.672Z"/>
	<path fill="#FEFEFE" d="M655.948 158.11C657.186 158.292 657.819 158.542 658.851 159.25C659.947 161.052 660.525 162.375 660.556 164.507C660.617 168.825 657.863 173.023 654.908 176.007C650.889 180.065 645.625 183.571 639.75 183.59L637.25 182.923C635.908 181.714 634.875 180.599 634.551 178.75C633.923 175.167 634.992 171.741 637 168.775C641.274 162.462 648.696 159.476 655.948 158.11Z"/>
	<path fill="#231F20" d="M125.864 228.75L126.932 228.902C128.956 229.496 131.544 231.599 133.369 232.776L149.262 243.268L233.359 301.386L278.065 333.355C279.182 334.24 279.79 335 280.458 336.25C280.362 338.591 280.273 338.862 278.888 340.75C278.154 341.256 277.312 341.572 276.5 341.936C274.342 341.596 272.505 340.329 270.644 339.24C266.605 336.875 262.779 334.191 258.936 331.526L229.196 310.599L154.696 256.802C145.413 249.489 135.261 241.74 127.574 232.75C126.385 231.359 125.71 230.584 125.864 228.75Z"/>
	<path fill="#231F20" d="M809.687 147.75C810.653 147.568 810.133 147.596 811.25 147.734C809.737 152.554 802.43 158.528 798.724 162.048L732.909 220.135L698.783 252.683C689.426 261.798 679.911 272.259 668.941 279.382C666.068 281.248 663.268 283.298 659.75 282.535C659.008 282.118 658.209 281.523 657.791 280.75C657.312 279.864 656.986 278.722 657.297 277.766C657.828 276.133 659.471 274.975 660.715 273.886L667.989 267.271L706.466 231.944L762.372 182.448L791.849 159.835C797.639 155.644 803.425 151.205 809.687 147.75Z"/>
	<path fill="#231F20" d="M473.478 237.209C477.678 236.59 482.55 236.773 486.804 236.812C499.68 236.929 511.5 238.426 523.209 244.083C529.345 247.048 534.708 250.988 541.073 253.554L545.099 249.998C545.951 249.346 547.03 248.839 548.133 249.098C550.165 249.574 551.425 251.592 552.45 253.25C552.789 255.068 552.003 256.236 551.182 257.79C550.523 259.038 554.028 261.636 555.079 262.665C564.091 271.494 573.115 280.541 580.702 290.653C588.053 300.451 594.251 311.293 597.835 323.053C600.244 330.958 601.345 339.19 602.491 347.344C603.412 353.895 603.635 360.542 605.486 366.931C609.88 368.333 614.429 370.141 618.435 372.437C635.493 382.21 650.531 398.636 655.8 417.842C672.802 414.746 690.844 413.079 708.111 413.38C711.163 413.433 713.997 413.82 717.007 414.295C717.373 414.353 719.306 414.812 719.576 414.709C720.588 414.324 723.402 410.555 724.204 409.654L737.159 395.921C743.027 390.068 749.503 383.546 758.027 382.19C761.187 381.687 766.084 381.937 769.066 383.227C773.181 385.007 776.882 388.617 780.556 391.216L798.064 403.496C809.192 411.886 820.501 420.327 830.911 429.601C839.707 437.437 847.801 445.937 855.686 454.679C883.033 485.002 904.489 519.631 910.213 560.68C916.547 554.483 924.269 545.726 933.308 543.75C938.981 542.51 944.198 543.347 949.1 546.491C956.408 551.178 960.811 559.544 962.553 567.868C965.347 581.215 963.477 594.187 961.036 607.406C957.229 628.019 950.785 647.679 942.873 667.066C937.542 680.13 931.458 693.505 923.724 705.363C919.562 711.744 914.879 718.713 909.357 723.974C902.117 730.872 890.776 736.299 881.001 738.25C876.811 739.086 871.404 736.724 868.059 734.388C858.606 727.785 854.15 716.891 852.24 705.873L818.892 720.644L822.316 730.609C823.702 735.084 829.172 737.325 830.813 741.921C830.099 742.41 829.603 742.808 829.08 743.5C831.107 748.312 834.449 752.385 837.661 756.442L848.225 769.693C869.871 796.772 891.418 823.617 916.491 847.685C922.058 853.029 928.454 857.273 934.48 862.051C936.206 863.419 937.434 864.372 937.544 866.75C937.596 867.886 937.355 868.819 936.619 869.677C935.698 870.75 934.707 871.153 933.338 871.336C928.442 871.989 923.122 871.37 918.134 871.734L865.25 875.692L715.323 888.333L630.686 896.22C566.326 903.182 501.589 911.216 436.878 913.686L376.25 917.418C374.965 916.327 374.819 916.093 374.262 914.5C374.536 912.815 374.897 912.05 375.975 910.717L376.296 910.332C372.659 905.764 367.607 901.856 363.519 897.624C355.354 889.172 347.707 880.312 340.477 871.049C322.61 848.157 306.732 823.761 291.651 798.966L236.619 698.238C231.766 701.161 188.624 727.993 188.107 728.76C187.666 729.414 187.37 731.743 187.132 732.609C185.237 739.506 182.382 742.997 176.854 747.355C203.537 758.717 218.937 783.118 225.25 810.734L226.665 818.598L226.982 820.661C227.005 820.808 226.914 821.039 227.049 821.1C227.493 821.301 229.866 821.148 230.434 821.165C234.741 821.292 245.048 820.621 248.171 823.497C249.736 824.939 249.635 828.449 249.811 830.524C250.223 835.409 250.961 840.3 251.075 845.204C251.159 848.817 250.968 852.548 248.191 855.23C245.997 857.35 243.264 857.651 240.381 858.123C233.285 859.286 226.159 859.265 219 859.536L200.521 860.406L119.437 860.166C104.284 859.431 89.4255 858.46 74.4722 855.779C70.7747 855.116 65.3284 854.927 62.529 852.25C61.1375 849.522 61.4316 846.341 61.5937 843.358C61.8674 838.323 62.3266 833.417 63.4591 828.5C63.7433 827.266 63.9563 826.294 64.8445 825.336C67.8438 822.1 73.9107 822.547 77.9474 822.346L90.9835 821.57L91.8381 813.615C95.0842 794.873 103.549 775.79 117.513 762.541C120.472 759.733 123.908 757.431 127.237 755.093C126.385 754.228 124.686 753.788 123.546 753.303C120.087 751.832 116.722 750.198 114.273 747.239C109.471 741.435 107.994 733.626 108.818 726.272C109.856 717.002 113.046 709.15 120.576 703.318C127.214 698.178 135.279 697.69 143.273 698.714L210.363 639.421C210.534 638.673 201.073 610.769 199.647 606.384L178.287 530.769L172.192 507.288C171.401 504.176 170.971 500.772 170.002 497.75C169.387 495.831 168.147 497.243 166.75 496.855C166.132 496.683 165.6 496.285 165.025 496C164.392 494.864 164.231 494.278 164.25 492.976C165.359 491.37 166.18 491.177 167.916 490.354C168.21 489.378 168.219 489.704 168.153 488.856C168.023 487.175 168.029 486.344 168.622 484.75C169.652 484.164 170.563 483.864 171.75 484.367C173.456 485.091 173.74 488.419 174.196 490.105L222.25 475.816L269.138 462.912C288.415 458.48 307.674 455.59 327.261 452.977C319.396 435.29 314.663 418.137 312.984 398.801C309.615 360.005 323.079 319.524 348.186 289.873C355.08 281.732 362.776 274.311 371.5 268.146C400.631 247.562 438.588 240.035 473.478 237.209Z"/>
	<path fill="#FEFEFE" d="M905.167 631.25L905.868 631.344C903.456 641.389 897.992 649.124 892.25 657.432L891.925 657.543L891.542 657.25C894.367 647.382 899.539 639.688 905.167 631.25Z"/>
	<path fill="#FEFEFE" d="M226.201 637.287L224.625 643.5C223.515 650.696 225.642 658.912 229.924 664.735C235.602 672.456 242.056 677.319 251.686 678.77C249.266 681.541 247.505 684.113 243.75 684.994L243.047 685.043C238.088 685.208 230.903 678.229 227.648 674.822C222.457 669.387 216.138 659.615 216.596 651.86C216.965 645.622 221.912 641.199 226.201 637.287Z"/>
	<path fill="#FEFEFE" d="M232.243 638.25L232.633 638.117C234.369 637.764 236.804 638.734 238.208 639.718C242.941 643.033 240.37 653.04 241.371 658.25C241.654 659.722 241.874 660.001 243.116 660.817C244.891 660.915 245.199 661.199 246.613 660.027C247.575 657.557 247.277 655.469 246.803 652.906L246.626 652L247 651.554L247.822 651.346L248.2 649.25L248.75 649.062C251.072 653.926 254.232 657.969 256.239 663.112L256.606 666.5C256.734 668.767 256.882 671.784 255.25 673.563C249.856 671.939 245.279 670.939 240.736 667.416C234.906 662.893 230.454 656.485 229.635 649.049C229.23 645.38 229.88 641.169 232.243 638.25Z"/>
	<path fill="#FEFEFE" d="M939.566 559.25C940.424 559.224 941.437 559.281 942.25 559.561C945.139 560.557 947.765 564.616 949.113 567.156C950.277 569.348 951.267 571.956 951.447 574.445C951.746 578.59 950.873 583.01 950.308 587.126C948.527 600.092 945.851 613.313 942.065 625.844C939.122 635.585 936.045 645.432 932.304 654.895C926.075 670.653 918.499 685.171 909.518 699.498C905.11 706.53 899.608 716.039 891.875 719.813C888.903 721.263 885.206 720.616 882.25 719.506L881.067 718.863L881.081 718.152L883.859 717.13C896.313 712.364 904.567 698.797 910.869 687.737C914.426 681.494 917.817 675.25 920.743 668.679C931.085 645.456 938.948 621.185 943.509 596.156C944.799 589.076 947.103 579.662 944.292 572.792C943.02 569.683 940.347 565.087 937.25 563.554C936.174 563.021 934.882 562.865 933.75 562.403C935.235 560.755 937.462 559.818 939.566 559.25Z"/>
	<path fill="#FEFEFE" d="M138.677 706.043C139.592 705.963 140.342 705.979 141.25 706.121C142.218 713.667 143.751 720.336 147.546 727C151.197 733.411 155.47 738.231 162.88 740.191C168.937 741.793 171.881 739.75 177.005 736.791L174.855 739.28C172.875 741.233 170.766 742.917 168.491 744.512C168.003 744.855 166.774 745.936 166.232 746.07C164.52 746.495 160.872 746.011 159.01 745.99C154.202 745.431 149.316 745.33 144.484 745.051C140.843 744.841 137.142 744.343 133.502 744.605L132.75 745.66C130.836 746.192 127.388 744.204 125.574 743.219C122.395 741.494 120.113 739.176 119.188 735.591C117.619 729.512 119.146 721.652 122.355 716.398C125.609 711.07 132.832 707.456 138.677 706.043Z"/>
	<path fill="#FEFEFE" d="M695.626 423.211L712.128 422.972C694.883 442.411 679.938 462.559 666.667 484.907L661.938 493.393C660.589 488.207 659.272 483.097 658.691 477.75C657.993 471.336 658.403 464.65 658.422 458.199C658.453 447.549 658.307 437.194 657.359 426.576L695.626 423.211Z"/>
	<path fill="#FEFEFE" d="M130.884 828.8C143.008 827.541 155.977 828.369 168.167 828.537L241.519 830.049L241.692 830.541C240.588 834.428 240.323 838.354 239.982 842.36C227.805 838.26 213.786 836.817 201.387 840.864C198.396 841.84 195.515 843.881 192.584 844.634C190.05 845.285 186.275 844.878 183.62 844.878C154.801 846.161 126.139 843.897 97.3131 844.309C88.432 844.436 79.3849 844.035 70.5739 845.26L70.6282 831.243L130.884 828.8Z"/>
	<path fill="#FEFEFE" d="M207.736 653.25L208.71 653.025L209.213 656.412C211.733 670.908 218.528 680.159 230.363 688.522L170.28 727.706C168.58 728.465 166.215 729.386 164.357 729.61C163.094 729.763 160.184 727.905 159.219 727.05C152.531 721.127 150.31 712.385 150.019 703.834L207.736 653.25Z"/>
	<path fill="#FEFEFE" d="M168.752 753.414C173.496 755.812 178.835 758.058 183.164 761.132C203.19 775.354 212.1 797.665 216.162 821.111L116.253 820.871C116.768 815.233 117.284 809.292 118.675 803.801C119.509 800.507 121.067 797.368 121.531 794L121 793.563C120.399 793.81 120.343 793.794 119.755 794.25C118.447 795.264 117.498 797.622 116.797 799.122C113.487 806.193 111.825 813.245 111.154 820.998L100.357 820.997C103.403 801.835 109.066 782.873 123.447 768.952C127.827 764.713 133.811 762.056 137.358 757.087C138.026 756.152 138.797 756.641 139.895 756.729C149.278 757.488 160.055 757.239 168.752 753.414Z"/>
	<path fill="#231F20" d="M195.533 798.25L196.798 798.201L196.967 798.778C197.754 801.758 198.861 806.752 197.25 809.485L195.75 808.888C194.824 805.522 194.071 801.444 195.533 798.25Z"/>
	<path fill="#231F20" d="M170.594 761.25C171.334 761.182 172.188 760.947 172.893 761.207C175.27 762.085 177.131 763.845 179.005 765.493C184.601 770.415 189.523 776.883 192.506 783.744C193.576 786.206 194.903 789.211 193.887 791.75L192.494 791.961C190.183 790.737 188.393 785.408 187.009 783.037C184.878 779.388 182.33 775.591 179.491 772.455C176.711 769.382 171.457 766.462 169.845 762.75L170.594 761.25Z"/>
	<path fill="#FEFEFE" d="M758.826 391.081L759.225 391.137C761.608 391.384 763.173 391.665 764.749 393.643C767.402 396.974 766.589 402.323 766.073 406.301C764.443 418.872 759.252 430.517 754.615 442.212L747.269 461.575L739.033 480.271C733.377 493.673 728.374 507.533 721.551 520.402C717.134 528.736 711.268 536.286 706.291 544.294L691.302 569.417L666.838 604.422C657.442 617.206 647.928 630.012 636.718 641.273C634.187 643.816 631.469 646.999 628.557 649.073C626.997 650.184 626.262 649.656 624.511 649.31C620.238 647.084 616.731 644.272 615.138 639.528C614.104 636.452 616.049 631.556 616.939 628.5C620.65 615.757 625.841 604.129 631.184 592.023C644.639 561.536 660.521 532.456 676.003 503L695.168 469.085L712.959 437.917C723.652 420.085 737.863 397.615 758.826 391.081Z"/>
	<path fill="#231F20" d="M739.612 411.75L740.766 411.609C741.906 412.19 742.694 412.365 743.213 413.628C744.797 417.48 741.697 426.222 740.034 429.75C739.114 430.504 738.889 430.372 737.75 430.503L736.706 429.34C736.033 424.762 737.562 418.791 738.088 414.134C738.26 412.604 738.414 412.707 739.612 411.75Z"/>
	<path fill="#231F20" d="M752.12 402.25L753.614 402.25C754.768 403.064 755.526 403.549 755.864 405C757.457 411.832 752.651 422.43 748.75 427.875C748.077 428.405 747.758 428.488 746.951 428.703L745.75 427.94C744.676 425.136 749.011 415.997 749.755 412.612C750.22 410.5 750.025 408.376 750.245 406.25C750.468 404.097 750.474 403.637 752.12 402.25Z"/>
	<path fill="#231F20" d="M641.655 601.25L643.25 601.591C645.297 604.051 646.393 609.11 646.582 612.239C646.993 619.056 640.514 628.225 636.01 632.957C633.985 635.084 631.724 636.655 628.694 636.641C627.478 636.635 626.516 636.451 625.661 635.515C623.246 632.871 624.304 627.663 624.542 624.378C624.454 622.257 625.277 619.254 626.558 617.581C628.026 617.067 628.075 617.305 629.525 617.941C630.674 619.437 630.977 620.941 631.423 622.75C630.309 625.216 629.8 626.966 630.088 629.673C630.232 631.029 630.448 630.947 631.536 631.801L633 631.552C639.311 626.907 640.233 615.583 639.964 608.5C639.9 606.818 639.164 604.274 639.628 602.713C639.846 601.977 641.004 601.607 641.655 601.25Z"/>
	<path fill="#231F20" d="M720.017 494.25L721.504 494.11C722.573 494.94 722.599 494.941 722.922 496.25C721.234 501.776 717.495 507.368 714.589 512.402L698.145 539.903L684.326 561.745C682.072 565.039 679.939 568.752 676.75 571.222L675.25 571.613L674.25 570.884L674.051 569.5C675.477 565.08 678.873 560.877 681.388 556.939L692.694 538.789L708.196 513.111C711.675 507.225 715.194 498.959 720.017 494.25Z"/>
	<path fill="#231F20" d="M707.112 471.75C707.725 471.553 708.364 471.502 709 471.412C710.163 472.461 710.221 472.732 710.674 474.25C709.306 479.387 704.391 485.713 701.596 490.399L677.323 530.834L667.727 547.874C665.659 551.668 663.739 555.895 661.032 559.25L659.75 559.816C658.559 559.169 658.462 559.263 658.032 558C658.592 553.92 660.721 550.116 662.63 546.523C671.153 530.479 681.435 515.3 690.674 499.654L701.887 480.098C703.52 477.313 704.936 474.148 707.112 471.75Z"/>
	<path fill="#FEFEFE" d="M550.462 269.788L562.591 282.926C557.55 286.956 552.474 293.377 551.624 300C552.295 301.78 552.504 301.834 554 302.858C554.8 302.896 555.79 303.172 556.479 302.698C558.789 301.111 560.536 296.837 562.368 294.535C563.869 292.649 565.679 291.092 567.502 289.531C571.513 293.609 574.628 298.509 577.738 303.281C574.847 305.795 573.1 307.233 571.379 310.909C570.626 312.518 569.626 314.753 570.4 316.5C571.041 317.947 571.871 318.351 573.25 318.934C574.877 318.641 575.541 318.17 576.75 317.062C577.308 315.516 577.822 313.639 578.887 312.354C579.762 311.299 580.89 310.323 582.25 310.236C592.432 326.731 593.244 345.817 595.718 364.537C577.165 360.772 545.398 368.519 529.398 378.504C510.148 390.517 498.846 412.244 493.842 433.751C492.743 434.275 491.361 434.209 490.154 434.312L480.931 435.153L421 441.682L343.582 451.665L339.75 452.014C338.343 450.233 337.411 447.677 336.426 445.618L330.251 431.327L364.406 390.248C366.875 391.541 370.101 396.319 371.978 398.59L387.701 417.801C390.324 421.261 394.064 427.826 397.75 430.069C399.255 430.985 400.238 431.487 402 431.017C403.8 430.538 405.24 429.472 406.311 427.972C410.304 422.379 412.992 415.182 416.262 409.131L439.835 365.284L449.508 346.165C451.45 347.216 453.683 350.399 455.218 352.078L469.363 367.542C472.034 370.456 474.684 373.78 477.858 376.159C479.968 377.739 481.919 378.637 484.587 378.143C486.701 377.751 487.863 376.506 488.98 374.75C491.514 370.766 493.174 366.038 495.326 361.815L507.851 338.854L550.462 269.788Z"/>
	<path fill="#FEFEFE" d="M464.096 249.287L494.897 249.753C505.942 250.966 515.239 253.747 524.58 259.841C527.276 261.6 530.226 263.42 532.25 265.96C532.69 267.736 532.426 268.527 531.52 270.035C524.23 282.165 515.301 293.6 507.39 305.347C495.891 322.42 485.767 340.614 477.431 359.429L466.043 348.188L453.456 337.238C451.941 335.843 450.213 334.484 449.546 332.477C449.282 331.684 448.89 330.992 448.506 330.25C446.906 329.165 446.589 329.145 444.75 329.029C443.498 329.915 442.723 330.311 442.311 331.905C441.788 333.927 442.38 334.583 443.374 336.25L398.795 410.577L389.415 400.583L376.477 387.578C373.474 384.469 368.939 378.141 364.75 376.842C363.168 377.029 361.955 377.001 360.832 378.334C359.502 379.913 358.504 381.86 357.227 383.508L346.212 396.938C339.738 404.564 332.594 411.6 326.36 419.416C325.433 417.521 325.199 414.921 324.824 412.849C323.751 406.924 323.116 400.725 322.644 394.72C320.986 373.605 325.331 351.9 332.771 332.218C337.922 318.59 344.654 305.696 354.271 294.651C381.549 263.32 424.189 251.929 464.096 249.287Z"/>
	<path fill="#FEFEFE" d="M572.212 375.291C591.358 373.909 608.36 376.065 624.25 387.631C643.993 402.001 650.501 423.321 651.024 446.841C651.269 457.858 650.429 469.015 651.333 480.001C651.681 484.227 652.446 488.781 653.999 492.75C654.829 494.87 656.079 496.952 656.626 499.164C657.344 502.07 657.299 505.446 657.552 508.451L659.2 521.561L647.899 537.792C643.82 533.321 638.132 529.178 632.236 527.59L631.25 527.33C620.232 524.348 606.022 528.398 594.947 530.454L581.43 532.618C561.725 534.512 543.617 528.089 528.48 515.412C512.356 501.91 502.642 482.239 500.92 461.348C499.103 439.315 507.876 413.638 522.325 396.937C536.083 381.035 551.858 376.781 572.212 375.291Z"/>
	<path fill="#231F20" d="M558.2 402.63L561.25 403.045C566.629 404.346 569.953 413.568 572.303 418.046C577.564 414.668 584.671 411.102 591.06 411.519C593.921 411.706 596.117 413.162 597.865 415.391C599.843 417.915 600.889 420.785 600.341 424C599.11 431.225 591.394 430.681 586 432.415C584.02 433.052 582.484 434.107 580.817 435.324C581.343 437.821 582.995 440.56 584.127 442.857L590.977 456.676L596.945 451.305C601.735 447.523 611.281 440.661 617.672 441.682C621.03 442.218 623.584 443.92 625.51 446.715C627.316 449.335 628.022 452.362 627.271 455.512C625.703 462.091 618.114 466.499 612.777 469.754L599.361 477.664C601.158 482.119 604.842 488.719 604.554 493.402L604.219 494.066C603.063 496.416 602.22 497.643 599.987 499.089C597.293 500.832 594.266 501.702 591.067 500.811C586.787 499.618 584.419 493.006 582.484 489.376C576.832 493.287 570.396 498.087 563.143 497.785C559.571 497.636 556.21 495.652 553.955 492.94C552.185 490.809 550.805 487.907 551.204 485.06C552.268 477.475 560.165 481.777 563.875 478.992L574.416 471.828L563.477 448.659C560.658 450.494 554.478 454.838 551.091 454.356C547.01 453.777 542.448 451.868 540.182 448.25C538.866 446.149 538.761 442.803 539.359 440.464C540.839 434.667 549.018 429.85 553.705 426.931C551.708 422.76 547.624 417.195 546.969 412.733C546.645 410.528 547.329 408.561 548.664 406.813C550.98 403.781 554.699 403.218 558.2 402.63Z"/>
	<path fill="#FEFEFE" d="M772.68 401.317C782.946 407.184 792.314 414.265 801.682 421.449C810.945 428.552 820.55 436.021 828.771 444.316C830.638 446.2 833.34 448.454 834.587 450.75C833.769 451.488 833.296 451.883 832.901 452.942C830.589 459.135 829.358 466.333 827.548 472.733C823.1 488.458 818.417 504.103 812.362 519.295C797.523 556.533 777.268 591.791 756.629 626.076L730.02 667.751L724.05 676.5C722.636 678.427 720.805 680.229 719.559 682.25C719.15 682.913 718.997 683.508 718.792 684.25C719.279 685.564 719.23 685.475 720.5 686.079C721.325 685.974 722.442 686.008 723.137 685.555C728.856 681.832 733.644 672.454 737.433 666.762L769.83 614.104L797.75 564.583L813.93 529.804C824.007 505.022 831.177 479.578 837.081 453.532L837.474 453.494C841.293 456.644 844.538 460.51 847.877 464.154C865.349 483.221 878.847 505.341 887.525 529.708C890.93 539.268 893.947 549.552 896.182 559.449C897.492 565.253 897.635 573.018 900.089 578.325C900.789 579.838 902.784 581.377 903.997 582.517C895.829 591.027 886.438 598.077 879.713 607.929L879.326 608.502C862.886 608.606 847.564 607.071 831.628 602.9C825.012 601.169 818.172 598.247 811.5 597.146L810.51 598L810.664 599.75C813.18 601.901 816.415 603.166 819.423 604.492C831.133 609.652 843.943 612.32 856.621 613.631C862.85 614.446 869.31 614.032 875.533 613.371C874.42 615.754 873.386 618.187 871.946 620.394L871.117 620.359C867.718 619.715 864.296 621.26 860.974 622.218C857.386 623.252 853.742 624.05 850.071 624.727C834.577 627.582 817.67 629.128 801.893 629.157C800.701 629.159 800.496 629.573 799.553 630.25C799.854 631.616 799.909 631.927 801.25 632.639C803.752 633.968 808.802 633.895 811.626 634.056C831.588 635.194 850.728 632.905 869.395 625.545C868.003 627.927 866.974 630.418 865.921 632.957C865.63 633.66 865.208 635.292 864.746 635.81C863.934 636.719 861.234 637.071 860 637.465L844.426 642.231L819.589 648.405C815.913 649.3 810.416 649.921 807.25 651.972L807.13 652.988L808.25 653.965C826.215 654.439 845.615 650.641 861.879 642.925C860.948 645.589 859.996 648.201 859.487 650.984C859.307 651.969 854.894 653.703 853.845 654.196C844.893 658.406 835.653 662.265 826.063 664.75C820.939 666.078 815.3 666.726 810.337 668.327C808.885 668.795 808.65 669.079 807.76 670.25L808.097 671.25L808.639 671.508C811.561 672.5 817.071 671.471 820.154 670.943C833.461 668.666 845.278 665.27 857.319 659.038C857.165 662.399 855.918 666.07 855.342 669.432L852.938 688.372C851.379 689.673 848.875 690.463 847.015 691.302L832.137 697.389L801.449 707.49C796.098 709.105 790.289 711.322 784.666 711.524C776.491 711.818 767.947 707.07 760.222 704.55L740.23 698.633L720.053 693.814C713.486 692.464 706.144 691.406 700.016 688.585C691.801 684.804 684.291 678.386 676.432 673.766C665.113 667.113 653.332 662.017 641.485 656.462C646.549 651.003 650.975 644.966 655.563 639.112C672.674 617.278 687.593 593.915 701.872 570.154L720.654 538.109L741.923 494C751.841 472.997 761.924 451.914 768.288 429.498C770.813 420.605 771.414 410.491 772.68 401.317Z"/>
	<path fill="#231F20" d="M757.07 656.25C761.655 656.889 766.356 659.062 770.967 660.019C774.563 660.765 778.424 660.42 781.88 661.632L782.397 662.75L781.797 664.25L780.38 664.652C777.525 664.893 774.716 665.101 771.865 664.715L771 664.589L766.503 663.813C762.727 663.003 756.783 661.881 754.621 658.5C755.462 657.085 755.591 656.976 757.07 656.25Z"/>
	<path fill="#231F20" d="M755.058 668.25C756.011 668.061 756.464 668.026 757.396 668.263C760.761 669.118 763.965 670.763 767.411 671.619L776.718 673.609C777.828 673.828 779.525 673.947 780.5 674.501C781.727 675.197 781.748 675.477 782.017 676.75L780.75 677.89L780.25 677.935C772.262 678.364 759.76 676.375 753.75 670.777C753.877 669.507 754.246 669.26 755.058 668.25Z"/>
	<path fill="#231F20" d="M751.639 679.25C754.033 679.192 756.354 679.995 758.713 680.369C763.144 681.074 770.443 681.126 774.25 683.193C775.448 683.844 775.615 684.749 775.812 685.969C774.931 687.494 774.9 687.47 773.25 688.11C768.234 688.265 763.369 686.84 758.45 686.034C755.872 685.611 751.247 685.507 749.211 683.807C748.396 683.127 748.654 682.488 748.594 681.5C749.723 679.913 749.791 679.861 751.639 679.25Z"/>
	<path fill="#231F20" d="M816.728 563.75C816.859 563.758 816.992 563.754 817.123 563.775C819.511 564.159 822.103 566.435 824.107 567.81L835.91 575.523L853.378 585.25C860.167 588.734 867.427 591.293 874.133 594.92C876.005 595.932 878.785 597.234 880.1 598.916C880.967 600.026 881.344 600.828 881.25 602.197L879.874 602.25C872.192 601.251 864.166 597.505 857.338 593.99C845.924 588.114 835.124 581.247 824.739 573.706C821.358 571.251 817.458 568.91 814.715 565.75L815.075 564.537L816.728 563.75Z"/>
	<path fill="#231F20" d="M846.882 672.75L847.95 672.782C849.026 673.489 849.354 673.598 849.88 674.75C848.821 676.499 847.709 678.127 846.243 679.568C841.676 684.056 835.32 686.147 829.332 687.963C815.572 692.137 803.183 693.528 788.875 693.557C787.811 693.495 787.643 693.421 786.75 692.832C786.514 691.399 786.665 691.19 787.25 689.838C789.272 688.16 791.99 688.117 794.502 687.704L805.316 685.701C813.293 684.044 821.521 682.082 829.25 679.49L846.882 672.75Z"/>
	<path fill="#231F20" d="M844.321 488.25L845.674 488.204C848.416 489.937 850.612 493.663 852.492 496.291C866.202 515.451 876.634 538.02 883.26 560.573C885.151 567.009 890.889 591.925 887.615 597C886.804 598.256 886.145 598.646 884.75 599.045C882.923 598.44 882.03 595.986 880.424 594.75C877.448 592.461 875.537 589.616 873.038 586.854C866.336 579.448 859.907 572.216 854.269 563.947C852.609 561.513 850.436 558.647 849.566 555.83C849.323 555.043 849.615 554.919 849.982 554.25L851.25 553.898C851.688 554.076 852.169 554.173 852.564 554.432C853.015 554.727 853.73 555.927 854.08 556.376L859.431 563.461L875.099 581.631L882.452 591.314L882.528 591.052C882.41 588.993 881.732 584.612 880.954 582.75C880.305 581.195 877.33 578.744 876.161 577.258C869.67 569.009 864.257 559.654 859.087 550.539C857.507 547.754 854.286 543.307 854.652 540.156L856.25 539.596C859.371 540.902 861.871 545.56 863.684 548.325C870.254 558.345 875.376 568.272 880.668 578.944C880.622 575.465 879.476 571.69 878.721 568.307C874.19 548.02 865.595 528.81 855.01 511L846.702 496.992C845.673 495.174 843.996 492.885 843.553 490.836C843.267 489.517 843.608 489.278 844.321 488.25Z"/>
	<path fill="#FEFEFE" d="M489.34 443.72L491 443.562C492.002 444.942 491.152 448.927 491.137 450.75C491.111 453.917 491.346 457.215 491.748 460.36C492.653 467.43 494.73 474.174 496.871 480.944C500.435 492.213 504.621 503.413 511.913 512.852C516.419 518.685 522.048 523.684 527.896 528.131C533.903 532.698 540.447 535.991 547.486 538.644C555.096 541.514 563.703 543.33 571.856 543.296C589.178 543.222 605.429 537.067 622.44 535.078C631.889 533.974 637.115 538.87 644.099 544.191L630.134 572.836L619.142 601.088C615.005 611.738 610.505 621.868 608.393 633.183C607.072 640.263 606.692 647.362 609.952 654.026C611.098 656.369 612.844 658.603 614.326 660.752L611.5 661.349C609.78 661.774 608.904 661.737 607.954 663.25C607.903 664.416 607.822 665.677 608.37 666.745C611.419 672.681 623.35 676.071 629.362 677.812C624.98 678.064 620.334 677.647 615.955 677.277C613.69 677.086 611.2 676.621 608.937 676.902C607.842 677.038 607.497 677.277 606.895 678.25C606.166 679.427 606.194 680.451 606.424 681.75C610.283 686.753 618.106 683.463 623.179 686.25C622.843 686.859 622.396 687.566 622.209 688.25C622.003 689.003 621.834 690.325 622.253 690.978C624.415 694.355 655.399 709.108 660.27 711.037C665.519 713.115 671.016 714.391 676.367 716.184C674.242 716.332 672.299 716.52 670.25 717.124C669.089 718.359 668.783 718.519 668.499 720.25C670.927 724.687 683.312 725.137 688.149 725.376C690.262 725.48 694.24 725.28 695.771 726.695C693.689 727.589 690.162 726.879 687.915 726.75L671.524 725.918C669.233 725.803 666.781 725.398 664.5 725.5C663.25 725.556 662.279 725.932 661.525 727C660.672 728.21 660.878 729.411 661.087 730.75C661.983 731.773 662.602 732.386 664.011 732.662C670.878 734.006 678.715 733.191 685.752 733.736C691.467 734.178 696.642 735.798 702.239 736.68C709.039 737.752 715.898 737.932 722.631 739.453C715.92 740.545 708.159 740.029 701.353 739.864C698.626 739.798 695.327 739.007 692.75 739.957C691.387 741.48 691.163 741.627 690.869 743.75C691.332 744.556 691.726 745.114 692.47 745.703C696.023 748.517 724.038 747.249 729.814 745.98C731.514 745.606 735.213 744.642 736.831 745.045C737.155 745.125 738.77 746.985 739.111 747.311C739.761 747.934 740.474 748.757 741.341 749.069C744.296 750.132 748.552 750.023 751.75 750.665C749.11 751.881 745.111 751.567 742.202 751.678L714.271 752.001C711.324 751.998 706.217 751.306 703.5 752.049C703.088 752.162 702.083 752.751 701.75 753.089C700.603 754.255 700.615 755.235 700.728 756.75C701.442 757.65 702.156 758.591 703.337 758.895C704.91 759.298 707.047 759.12 708.682 759.133L719.496 759.097L764.091 757.443C773.853 756.959 783.752 756.132 793.525 756.236C798.504 756.289 803.401 756.292 808.247 757.569C803.604 759.088 796.697 758.352 791.75 758.513L767.13 759.347C760.506 759.471 733.858 758.379 729.404 761.406C728.75 762.447 728.211 763.232 728.101 764.499C728.017 765.464 728.512 765.967 729.25 766.571C730.229 767.373 731.784 767.467 733 767.46L798.486 765.07C804.38 764.679 810.768 765.15 816.524 763.767C817.934 763.428 818.748 762.761 819.743 761.75C820.287 760.114 819.627 756.412 819.256 754.75C817.16 752.746 814.504 752.528 811.748 752.103L798.745 750.532C796.026 750.257 793.093 750.213 790.518 749.283C800.469 748.9 810.252 749.139 819.956 746.737C828.87 759.933 838.734 771.493 848.639 783.873C870.978 811.79 893.405 839.111 920.515 862.632L873.623 866.391L386.905 906.206L333.562 844.271L313.171 815.391L271.549 748.231C261.659 731.029 251.324 713.425 243.272 695.272C246.023 694.419 248.895 693.627 251.459 692.295C257.792 689.005 262.473 683.092 264.422 676.261L264.631 675.5C264.959 674.342 265.278 673.202 265.399 672C266.775 658.314 257.797 646.118 249.443 636.141C245.284 631.174 238.851 626.984 232.25 626.67C227.125 626.426 222.811 629.364 219.331 632.769C218.771 633.317 218.425 633.583 217.736 634.028L175.343 495.712C179.363 494.429 183.746 493.917 187.865 492.928L216.345 485.872L301.844 467.625L374.932 458.066L489.34 443.72Z"/>
	<path fill="#231F20" d="M773.825 800.71C776.444 800.393 780.289 800.021 782.59 801.396C783.634 803.203 783.498 803.722 783.446 805.75C780.431 809.299 771.19 808.518 766.62 808.94C764.61 809.093 761.692 809.626 759.75 809.26C758.345 808.996 757.739 808.382 756.992 807.25C756.892 805.479 756.945 804.527 757.75 802.931C760.709 800.599 769.914 800.986 773.825 800.71Z"/>
	<path fill="#231F20" d="M769.446 785.707L776.106 785.299C778.578 785.365 778.761 785.561 780.419 787.25C780.585 788.722 780.663 789.594 780.032 791C779.382 791.658 778.91 792.134 778.014 792.446C775.34 793.376 771.372 793.179 768.487 793.415L753.119 794.936L746 795.443C744.606 795.372 744.009 794.972 743.084 794C742.716 792.518 742.41 791.508 742.884 789.99C745.862 786.895 750.494 787.317 754.516 786.976L769.446 785.707Z"/>
	<path fill="#231F20" d="M509.878 651.601C511.973 651.794 514.044 652.046 516 652.872C518.621 653.98 520.572 656.635 521.512 659.25C522.717 662.602 522.486 665.319 520.893 668.509C518.938 672.425 515.784 674.065 511.817 675.369C509.283 675.284 506.854 675.078 504.618 673.75C502.014 672.204 500.027 669.524 499.269 666.597C498.442 663.408 499.079 659.795 500.892 657.048C503.324 653.361 505.827 652.494 509.878 651.601Z"/>
	<path fill="#231F20" d="M807.425 765.677L809.75 765.644C811.707 766.863 811.938 768.058 812.868 770.06C813.189 770.75 813.604 771.486 813.718 772.25C813.945 773.775 813.423 774.894 812.612 776.126C810.117 777.597 806.139 777.283 803.296 777.297L783.849 777.08L736.969 776.832C735.858 776.883 734.589 776.838 733.5 776.613C731.989 776.3 731.542 775.642 730.649 774.459C730.522 772.542 730.563 772.126 731.389 770.401C734.552 768.081 771.686 769.547 779.734 769.338C782.163 769.275 786.322 769.693 788.544 768.78L789 768.528C792.229 769.365 796.22 767.655 799.356 766.908C801.986 766.281 804.744 766.007 807.425 765.677Z"/>
	<path fill="#231F20" d="M316.928 520.25C317.579 520.011 318.07 519.842 318.774 519.948C320.249 520.171 320.263 520.373 321.132 521.5C321.553 523.121 321.233 524.071 320.737 525.655L320.545 526.25C322.761 529.426 323.581 534.085 324.598 537.781C329.64 536.673 337.266 533.473 342.25 534.297C343.493 535.266 343.701 535.235 344.021 536.75C343.748 537.481 343.651 538.208 343 538.703C340.36 540.713 332.95 541.243 329.584 541.994C328.519 542.231 326.947 542.355 326.141 543.062C326.974 545.809 327.744 548.697 328.988 551.29C330.111 553.632 332.971 555.695 333.076 558.25C332.625 559.156 332.328 559.712 331.25 560.034C330.125 560.37 329.214 560.175 328.233 559.611C324.028 557.195 322.297 549.327 321.196 545.053L309.836 548.76C307.846 551.307 306.384 554.05 304.861 556.888C310.435 561.271 319.752 561.893 324.603 567.35L324.942 567.75C324.882 569.49 324.879 569.503 323.75 570.827C320.04 571.389 317.162 569.3 313.962 567.68C309.817 565.58 305.68 563.4 301.325 561.766C298.962 564.348 296.6 567.276 295.211 570.506C294.48 572.209 294.057 574.277 293.102 575.836C292.302 577.143 291.638 576.973 290.25 577.237C289.211 576.503 288.627 576.319 288.349 575C287.459 570.767 293.286 562.736 295.484 559.39L287 556.392C284.609 555.379 281.306 553.621 280.406 551C279.876 549.458 279.989 548.814 280.75 547.449C284.033 545.957 286.341 549.437 289.615 548.712C294.969 547.526 299.688 546.422 304.891 544.518C307.349 541.017 314.929 530.562 315.132 526.75C315.17 526.039 314.839 524.979 314.718 524.25C315.242 522.554 315.76 521.594 316.928 520.25Z"/>
	<path fill="#FEFEFE" d="M317.899 533.216L319.871 540.046L315.75 541.468L314 541.818L313.575 541.25L317.899 533.216Z"/>
	<path fill="#231F20" d="M617.443 752.221L618.75 752.116C620.466 752.133 620.922 752.293 622.11 753.5C622.528 754.987 622.506 755.618 622.149 757.062C621.492 757.703 621.133 758.392 620.194 758.486L584.25 760.654L507.5 766.986L367.452 781.464L369.922 784.117C371.17 785.567 371.388 786.367 371.266 788.25C370.226 789.845 370.353 789.786 368.5 790.199C366.576 789.606 365.857 788.525 364.648 786.974L359.547 781.5C358.581 780.238 358.689 779.49 358.846 777.971C360.424 775.826 360.472 774.857 360.586 772.25C361.556 770.753 361.595 770.652 363.25 770.016C367.297 771.283 364.187 774.412 366.25 776.491L617.443 752.221Z"/>
	<path fill="#231F20" d="M605.743 708.282L616.25 708.122C617.381 708.969 618.06 709.342 618.494 710.75C618.255 711.851 618.09 712.519 617.345 713.392C615.26 715.833 602.013 714.918 598.566 715.004C537.805 716.513 477.292 722.263 416.933 729.102L344.939 737.754L348.013 740.562C349.432 741.934 350.275 742.849 350.326 744.921C349.486 746.256 349.449 746.37 348 746.959C346.508 746.659 345.826 746.074 344.727 745.105C343.031 743.123 340.975 740.225 338.75 738.892L337 739.388C335.969 739.235 335.553 739.15 334.725 738.454C334.001 737.847 333.972 737.573 333.957 736.66C333.914 733.941 335.893 727.736 337.663 725.673L339.25 725.56L340.706 726.827C341.219 728.968 340.766 731.028 340.468 733.176L605.743 708.282Z"/>
	<path fill="#231F20" d="M679.679 791.708L689.25 791.406C690.689 792.288 690.703 792.429 691.364 794C691.207 795.137 691.028 796.305 690.064 797.086C688.056 798.714 670.092 798.721 666.241 798.994L527.5 810.636L467.846 816.764C461.514 817.361 410.327 821.481 408.892 822.75C409.561 824.002 409.643 824.589 409.523 826C408.284 827.333 408.31 827.302 406.5 827.517C404.477 826.584 403.489 824.958 402.205 823.219C400.558 821.924 397.407 822.565 395.25 822.49C393.982 821.645 393.919 821.698 393.499 820.25C394.988 817.522 396.134 813.659 398.123 811.349C398.855 810.499 398.953 810.728 400 810.649C404.788 813.396 400.561 813.503 401.63 816.834C405.997 817.894 410.993 817.011 415.446 816.613L437.712 814.363L481.922 809.596L532.25 804.518L679.679 791.708Z"/>
	<path fill="#231F20" d="M543.362 606.71L555.274 606.48C557.152 607.573 558.783 608.804 559.969 610.664C561.343 612.822 561.615 614.913 560.898 617.379C559.303 622.871 554.875 622.903 550.203 623.252C537.342 624.212 524.172 625.556 511.5 628.026C493.242 631.585 474.88 637.104 457.215 642.822C438.117 649.003 419.342 655.888 401.64 665.461C399.482 666.818 396.812 668.819 394.313 669.365C392.507 669.76 390.452 669.162 388.954 668.117C387.382 667.021 385.932 665.444 385.604 663.5C385.186 661.023 385.335 658.378 386.92 656.33C389.279 653.282 394.25 651.735 397.733 650.358L408.926 645.574C429.177 636.712 449.308 627.715 470.369 620.884C493.962 613.233 518.688 608.777 543.362 606.71Z"/>
	<path fill="#231F20" d="M553.254 568.704C556.209 568.125 560.309 568.478 563.364 568.463C568.644 568.438 574.591 567.968 579.794 568.843C582.298 569.264 584.694 570.547 586.116 572.724C587.171 574.339 587.724 576.564 587.294 578.465C586.709 581.052 584.978 583.536 582.33 584.297C579.285 585.172 574.895 584.174 571.717 584.013C554.238 583.127 536.682 586.286 519.5 589.169C461.621 598.879 407.592 620.042 358.589 652.39C353.68 655.528 348.78 661.559 343.116 663.118C341.247 663.632 339.602 663.334 337.95 662.34C335.798 661.044 334.401 658.714 334.006 656.25C333.705 654.374 333.881 652.259 335.127 650.75C338.254 646.962 345.234 644.337 349.607 641.907L362.432 634.337C397.45 613.809 434.938 594.728 473.915 582.989C499.708 575.22 526.418 570.693 553.254 568.704Z"/>
</svg>
