<?xml version="1.0" encoding="UTF-8" standalone="no"?>
<svg
   version="1.1"
   width="400mm"
   height="70mm"
   viewBox="0 0 1511.8111 264.56694"
   id="svg916"
   sodipodi:docname="finance-master-high-resolution-logo.svg"
   inkscape:version="1.1 (c68e22c387, 2021-05-23)"
   xmlns:inkscape="http://www.inkscape.org/namespaces/inkscape"
   xmlns:sodipodi="http://sodipodi.sourceforge.net/DTD/sodipodi-0.dtd"
   xmlns="http://www.w3.org/2000/svg"
   xmlns:svg="http://www.w3.org/2000/svg">
  <defs
     id="defs920" />
  <sodipodi:namedview
     id="namedview918"
     pagecolor="#ffffff"
     bordercolor="#999999"
     borderopacity="1"
     inkscape:pageshadow="0"
     inkscape:pageopacity="0"
     inkscape:pagecheckerboard="false"
     showgrid="false"
     inkscape:zoom="0.659"
     inkscape:cx="324.73445"
     inkscape:cy="-48.558422"
     inkscape:window-width="2880"
     inkscape:window-height="1526"
     inkscape:window-x="1578"
     inkscape:window-y="3229"
     inkscape:window-maximized="1"
     inkscape:current-layer="svg916"
     units="mm"
     inkscape:document-units="mm" />
  <g
     transform="matrix(0.75,0,0,0.75,8.368609,10.391693)"
     id="g914">
    <svg
       viewBox="0 0 396 62"
       data-background-color="#ffffff"
       preserveAspectRatio="xMidYMid meet"
       height="313"
       width="2000"
       version="1.1"
       id="svg912">
      <g
         id="tight-bounds"
         transform="translate(0.24,0.02074075)">
        <svg
           viewBox="0 0 395.52 61.958518"
           height="61.958519"
           width="395.51999"
           version="1.1"
           id="svg907">
          <g
             id="g903">
            <svg
               viewBox="0 0 498.82718 78.14167"
               height="61.958519"
               width="395.51999"
               version="1.1"
               id="svg901">
              <g
                 transform="translate(103.30718,10.799608)"
                 id="g888">
                <svg
                   viewBox="0 0 395.52 56.542453"
                   height="56.542454"
                   width="395.51999"
                   version="1.1"
                   id="svg886">
                  <g
                     id="textblocktransform">
                    <svg
                       viewBox="0 0 395.52 56.542453"
                       height="56.542454"
                       width="395.51999"
                       id="textblock"
                       version="1.1">
                      <g
                         id="g882">
                        <svg
                           viewBox="0 0 395.52 56.542453"
                           height="56.542454"
                           width="395.51999"
                           version="1.1"
                           id="svg880">
                          <g
                             id="g878">
                            <svg
                               width="395.51999"
                               viewBox="2.65 -40 285.37 40.8"
                               height="56.542454"
                               data-palette-color="#3196a9"
                               version="1.1"
                               id="svg876">
                              <path
                                 d="m 9.75,0 h -7.1 v -34.6 h 17.2 l -0.75,5.15 H 9.75 v 10.1 h 8.15 v 5.15 H 9.75 Z M 22.7,-26.5 h 6.8 V 0 H 22.7 Z M 26.1,-40 q 1.75,0 2.85,1.15 1.1,1.15 1.1,2.9 v 0 q 0,1.7 -1.1,2.82 -1.1,1.13 -2.85,1.13 v 0 q -1.8,0 -2.9,-1.13 -1.1,-1.12 -1.1,-2.82 v 0 q 0,-1.75 1.1,-2.9 1.1,-1.15 2.9,-1.15 z m 21.5,12.7 q 2.85,0 4.5,2.05 1.65,2.05 1.65,5.5 v 0 V 0 h -6.8 v -19 q 0,-1.65 -0.45,-2.35 -0.45,-0.7 -1.35,-0.7 v 0 q -1.8,0 -3.7,3.6 v 0 V 0 h -6.8 v -26.5 h 5.95 l 0.5,3.35 q 1.3,-2.05 2.85,-3.1 1.55,-1.05 3.65,-1.05 z m 28.64,20.6 q 0,1.3 0.33,1.9 0.32,0.6 1.12,1 v 0 l -1.4,4.5 q -2.1,-0.25 -3.4,-1.08 -1.3,-0.82 -1.95,-2.57 v 0 q -2.3,3.75 -6.5,3.75 v 0 q -3.3,0 -5.25,-2.25 -1.95,-2.25 -1.95,-5.95 v 0 q 0,-4.35 2.68,-6.63 2.67,-2.27 7.82,-2.27 v 0 h 1.85 v -1.6 q 0,-2.45 -0.8,-3.43 -0.8,-0.97 -2.75,-0.97 v 0 q -2.25,0 -5.75,1.3 v 0 l -1.55,-4.35 q 2.05,-0.95 4.3,-1.45 2.25,-0.5 4.25,-0.5 v 0 q 8.95,0 8.95,9.05 v 0 z m -9.85,2.6 q 2.1,0 3.2,-2.9 v 0 -5.35 h -1.2 q -2.3,0 -3.37,1.07 -1.08,1.08 -1.08,3.33 v 0 q 0,1.9 0.65,2.87 0.65,0.98 1.8,0.98 z m 28,-23.2 q 2.85,0 4.5,2.05 1.65,2.05 1.65,5.5 v 0 V 0 h -6.8 v -19 q 0,-1.65 -0.45,-2.35 -0.45,-0.7 -1.35,-0.7 v 0 q -1.8,0 -3.7,3.6 v 0 V 0 h -6.8 v -26.5 h 5.95 l 0.5,3.35 q 1.3,-2.05 2.85,-3.1 1.55,-1.05 3.65,-1.05 z m 21.05,0 q 4.25,0 7.4,3.15 v 0 l -2.85,3.8 q -2.15,-1.7 -4.1,-1.7 v 0 q -2.15,0 -3.23,2.02 -1.07,2.03 -1.07,6.93 v 0 q 0,4.75 1.1,6.62 1.1,1.88 3.2,1.88 v 0 q 1.05,0 1.95,-0.38 0.9,-0.37 2,-1.22 v 0 l 3,3.9 q -3.2,3.1 -7.35,3.1 v 0 q -5.25,0 -8.15,-3.5 -2.9,-3.5 -2.9,-10.35 v 0 q 0,-4.4 1.35,-7.63 1.35,-3.22 3.82,-4.92 2.48,-1.7 5.83,-1.7 z m 29.5,13.45 q 0,0.55 -0.15,2.65 v 0 h -13.55 q 0.2,3.9 1.37,5.4 1.18,1.5 3.28,1.5 v 0 q 1.45,0 2.7,-0.53 1.25,-0.52 2.7,-1.62 v 0 l 2.8,3.75 q -3.6,3.5 -8.65,3.5 v 0 q -5.35,0 -8.2,-3.65 -2.85,-3.65 -2.85,-10.2 v 0 q 0,-6.55 2.7,-10.4 2.7,-3.85 7.75,-3.85 v 0 q 4.75,0 7.42,3.42 2.68,3.43 2.68,10.03 z m -6.6,-1.55 v -0.4 q 0,-3.6 -0.8,-5.23 -0.8,-1.62 -2.65,-1.62 v 0 q -1.7,0 -2.58,1.6 -0.87,1.6 -1.07,5.65 v 0 z m 46.89,-19.2 2.15,34.6 h -6.7 l -0.45,-14.2 -0.1,-3.05 q -0.05,-1.55 -0.1,-3.6 -0.05,-2.05 -0.05,-4.5 v 0 l 0.05,-2.85 -4.3,24.45 h -6.65 l -4.55,-24.45 q 0.15,3.3 0.15,6.55 v 0 q 0,3.7 -0.15,7.6 v 0 L 164.08,0 h -6.6 l 2.15,-34.6 h 8.75 l 4.15,24.05 3.8,-24.05 z m 23.95,27.9 q 0,1.3 0.32,1.9 0.33,0.6 1.13,1 v 0 l -1.4,4.5 q -2.1,-0.25 -3.4,-1.08 -1.3,-0.82 -1.95,-2.57 v 0 q -2.3,3.75 -6.5,3.75 v 0 q -3.3,0 -5.25,-2.25 -1.95,-2.25 -1.95,-5.95 v 0 q 0,-4.35 2.67,-6.63 2.68,-2.27 7.83,-2.27 v 0 h 1.85 v -1.6 q 0,-2.45 -0.8,-3.43 -0.8,-0.97 -2.75,-0.97 v 0 q -2.25,0 -5.75,1.3 v 0 l -1.55,-4.35 q 2.05,-0.95 4.3,-1.45 2.25,-0.5 4.25,-0.5 v 0 q 8.95,0 8.95,9.05 v 0 z m -9.85,2.6 q 2.1,0 3.2,-2.9 v 0 -5.35 h -1.2 q -2.3,0 -3.38,1.07 -1.07,1.08 -1.07,3.33 v 0 q 0,1.9 0.65,2.87 0.65,0.98 1.8,0.98 z m 22.75,-23.2 q 2.45,0 4.52,0.82 2.08,0.83 3.63,2.38 v 0 l -2.55,3.7 q -2.7,-1.95 -5.05,-1.95 v 0 q -1.35,0 -2.1,0.67 -0.75,0.68 -0.75,1.93 v 0 q 0,0.85 0.37,1.43 0.38,0.57 1.33,1.14 0.95,0.58 2.9,1.38 v 0 q 3.4,1.35 5,3.17 1.6,1.83 1.6,4.93 v 0 q 0,3.95 -2.75,6.22 -2.75,2.28 -7.05,2.28 v 0 q -2.75,0 -5.1,-1 -2.35,-1 -4.05,-2.8 v 0 l 3.2,-3.55 q 3,2.45 5.65,2.45 v 0 q 1.5,0 2.35,-0.8 0.85,-0.8 0.85,-2.2 v 0 q 0,-1.55 -0.9,-2.43 -0.9,-0.87 -3.7,-1.97 v 0 q -3.45,-1.4 -4.93,-3.2 -1.47,-1.8 -1.47,-4.6 v 0 q 0,-2.25 1.07,-4.08 1.08,-1.82 3.13,-2.87 2.05,-1.05 4.8,-1.05 z m 23.89,21.9 2.3,4.2 q -1.25,1 -2.82,1.5 -1.58,0.5 -3.18,0.5 v 0 q -3.65,0 -5.5,-2.08 -1.85,-2.07 -1.85,-5.62 v 0 -14.75 h -2.95 v -4.85 h 2.95 v -5.8 l 6.8,-0.85 v 6.65 h 4.95 l -0.65,4.85 h -4.3 v 14.7 q 0,2.3 1.9,2.3 v 0 q 0.65,0 1.15,-0.18 0.5,-0.17 1.2,-0.57 z m 23.95,-8.45 q 0,0.55 -0.15,2.65 v 0 h -13.55 q 0.2,3.9 1.38,5.4 1.17,1.5 3.27,1.5 v 0 q 1.45,0 2.7,-0.53 1.25,-0.52 2.7,-1.62 v 0 l 2.8,3.75 q -3.6,3.5 -8.65,3.5 v 0 q -5.35,0 -8.2,-3.65 -2.85,-3.65 -2.85,-10.2 v 0 q 0,-6.55 2.7,-10.4 2.7,-3.85 7.75,-3.85 v 0 q 4.75,0 7.43,3.42 2.67,3.43 2.67,10.03 z m -6.6,-1.55 v -0.4 q 0,-3.6 -0.8,-5.23 -0.8,-1.62 -2.65,-1.62 v 0 q -1.7,0 -2.57,1.6 -0.88,1.6 -1.08,5.65 v 0 z m 22.65,-11.8 q 1.15,0 2.05,0.35 v 0 l -1.1,6.55 q -0.9,-0.3 -1.85,-0.3 v 0 q -1.9,0 -2.95,1.57 -1.05,1.58 -1.6,4.68 v 0 V 0 h -6.8 v -26.5 h 5.95 l 0.5,4.5 q 1.85,-5.2 5.8,-5.2 z"
                                 opacity="1"
                                 fill="#3196a9"
                                 class="wordmark-text-0"
                                 data-fill-palette-color="primary"
                                 id="text-0" />
                            </svg>
                          </g>
                        </svg>
                      </g>
                    </svg>
                  </g>
                </svg>
              </g>
              <g
                 id="g899">
                <svg
                   viewBox="0 0 89.958866 78.14167"
                   height="78.14167"
                   width="89.958862"
                   version="1.1"
                   id="svg897">
                  <g
                     id="g895">
                    <svg
                       version="1.1"
                       x="0"
                       y="0"
                       viewBox="5 10.8 90.1 78.264264"
                       enable-background="new 0 0 100 100"
                       xml:space="preserve"
                       height="78.14167"
                       width="89.958862"
                       class="icon-icon-0"
                       data-fill-palette-color="accent"
                       id="icon-0"><path
                         d="M 85.7,10.8 H 14.3 C 9.1,10.8 5,15 5,20.1 v 43.3 c 0,5.2 4.2,9.3 9.3,9.3 h 2.1 v 15 c 0,1.2 1.5,1.8 2.3,1 l 16,-16 h 51.1 c 5.2,0 9.3,-4.2 9.3,-9.3 V 20.1 c 0,-5.1 -4.2,-9.3 -9.4,-9.3 M 58.3,53.2 c -1.3,1.5 -2.9,2.5 -4.8,3.1 -0.8,0.3 -1.2,0.7 -1.2,1.5 v 2.5 c 0,0.8 -0.4,1.2 -1.2,1.2 h -2.8 c -0.8,0 -1.2,-0.5 -1.2,-1.2 v -1.9 c 0,-1.3 0,-1.5 -1.3,-1.6 -1.7,-0.3 -3.3,-0.7 -4.9,-1.5 -1.2,-0.5 -1.3,-0.9 -0.9,-2.1 0.3,-0.9 0.5,-1.9 0.8,-2.8 0.4,-1.1 0.7,-1.2 1.6,-0.7 1.7,0.9 3.6,1.3 5.5,1.6 1.2,0.1 2.4,0 3.6,-0.5 2.1,-0.9 2.5,-3.3 0.7,-4.8 -0.7,-0.5 -1.3,-0.9 -2,-1.2 -1.9,-0.8 -3.9,-1.5 -5.6,-2.5 -2.9,-1.7 -4.7,-4 -4.5,-7.5 0.3,-3.9 2.5,-6.4 6.1,-7.7 1.5,-0.5 1.5,-0.5 1.5,-2 V 23.5 C 47.7,22.3 48,22.2 49,22 h 1.1 c 2.5,0 2.5,0 2.5,2.5 0,1.7 0,1.7 1.7,2 1.3,0.3 2.7,0.7 3.9,1.2 0.7,0.3 0.9,0.8 0.8,1.5 -0.3,1.1 -0.7,2.1 -0.9,3.2 -0.3,1.1 -0.7,1.2 -1.6,0.7 -2,-0.9 -4,-1.3 -6.1,-1.2 -0.5,0 -1.1,0.1 -1.6,0.3 -1.9,0.8 -2.1,2.8 -0.5,4.1 0.8,0.7 1.7,1.1 2.7,1.5 1.6,0.7 3.3,1.3 4.9,2.1 4.6,2.7 5.9,9 2.4,13.3"
                         fill="#3196a9"
                         data-fill-palette-color="accent"
                         id="path890" /></svg>
                    <g
                       id="g893" />
                  </g>
                </svg>
              </g>
            </svg>
          </g>
          <defs
             id="defs905" />
        </svg>
        <rect
           width="395.51999"
           height="61.958519"
           fill="none"
           stroke="none"
           visibility="hidden"
           id="rect909"
           x="0"
           y="0" />
      </g>
    </svg>
  </g>
</svg>
