<?xml version="1.0" encoding="utf-8" ?>
<svg xmlns="http://www.w3.org/2000/svg" xmlns:xlink="http://www.w3.org/1999/xlink" width="1024" height="1024">
	<path fill="white" d="M-0 -0L1024 0L1024 1024L-0 1024L0 -0Z"/>
	<path fill="#242021" d="M955.664 291.025C957.634 290.887 958.824 290.775 960.579 291.75C961.748 293.302 962.643 294.954 962.001 297.038C961.314 299.264 957.158 301.467 955.25 302.688C953.347 302.59 950.902 301.843 949.527 300.459C948.316 299.239 948.508 298.333 948.499 296.75C950.28 293.84 952.686 292.462 955.664 291.025Z"/>
	<path fill="#242021" d="M87.0495 818.25L87.7632 818.187C89.329 818.313 89.9427 819.235 90.9847 820.25C91.0175 821.748 91.3143 822.516 90.1862 823.687C87.3572 826.624 79.3958 827.439 75.4624 827.583C73.978 826.992 72.4576 826.707 71.8652 825C71.3891 823.628 71.4873 823.315 72.1293 822.138C76.1382 819.941 82.5347 819.463 87.0495 818.25Z"/>
	<path fill="#242021" d="M146.956 527.216C159.709 526.455 172.854 526.886 185.248 530.199C187.887 530.904 193.299 532.14 194.651 534.5C194.538 535.958 194.618 536.339 193.75 537.483C191.603 537.996 188.449 535.911 186.282 535.297C182.677 534.277 178.872 533.38 175.171 532.801C165.383 531.268 155.35 531.483 145.482 531.568C134.738 533.374 123.772 532.661 113.285 536.342C109.618 537.629 106.569 539.94 103 541.421C101.87 540.727 101.915 540.777 101.551 539.5C101.831 538.585 102.068 537.969 102.745 537.265C110.93 528.768 135.301 527.882 146.956 527.216Z"/>
	<path fill="#242021" d="M309.222 322.75C310.346 322.854 310.516 323.126 311.416 323.75C311.537 326.046 310.442 328.167 309.795 330.337C308.84 333.538 308.041 336.879 307.405 340.16C303.532 360.137 303.32 380.37 307.669 400.266C309.302 407.737 311.326 415.265 314.803 422.115C316.23 424.926 318.116 427.392 319.872 430C319.746 431.652 319.549 431.885 318.575 433.25L317.327 433.272C316.765 432.843 316.219 432.435 315.75 431.9C314.065 429.978 312.759 426.985 311.604 424.692C303.46 408.524 300.375 388.136 300.631 370.153C300.805 357.963 301.948 345.826 304.712 333.938C305.523 330.449 306.582 325.307 309.222 322.75Z"/>
	<path fill="#242021" d="M714.39 708.25L714.735 708.241C716.511 708.522 716.653 708.963 717.703 710.25C717.559 711.45 717.52 712.068 716.684 713.033C715.321 714.607 712.945 715.746 711.183 716.842C702.442 722.281 693.267 725.426 683.286 727.744C679.383 728.65 674.455 729.763 670.457 729.763C664.233 729.763 657.849 730.805 651.625 730.191C642.962 729.337 634.101 730.233 625.893 726.739C624.675 725.959 623.594 725.191 622.496 724.25C622.473 722.437 622.289 722.223 623.468 720.75C626.86 720.222 632.196 723.845 636.095 724.33C641.219 724.967 646.604 724.913 651.776 725.031C673.871 725.535 696.498 722.226 714.39 708.25Z"/>
	<path fill="#242021" d="M504.334 659.75C504.89 659.65 505.437 659.43 506.001 659.45C507.144 659.491 512.521 665.962 514.052 667.109C523.8 674.41 537.07 678.829 548.727 681.922C562.725 685.636 577.07 687.828 591.534 685.622C595.082 685.081 599.967 682.637 603.25 683.603C604.178 685.015 604.005 685.594 604.008 687.25L602.814 688.25C598.804 689.77 594.551 690.276 590.325 690.807C573.207 692.956 554.555 689.786 538.297 684.441C527.834 681.002 516.093 676.291 507.957 668.698C506.168 667.028 504.325 665.454 503.202 663.25C503.228 661.373 503.226 661.255 504.334 659.75Z"/>
	<path fill="#242021" d="M588.488 729.75L589.69 729.673C591.153 731.593 592.886 733.424 594.871 734.812C609.131 744.788 626.867 748.227 643.944 748.71C646.362 748.779 650.025 749.524 652.25 749.053C656.871 748.074 662.296 748.418 667.076 747.851C674.881 746.925 682.974 745.261 690.428 742.765C693.108 741.868 695.6 740.527 698.25 739.548C699.559 740.239 699.745 740.501 700.562 741.75C700.458 743.634 700.581 743.623 699.25 744.932C694.701 747.308 689.475 748.758 684.495 749.936C673.126 752.626 661.775 753.722 650.107 753.875C631.283 754.121 612.131 751.727 595.866 741.511C592.878 739.634 587.315 736.255 586.488 732.75C587.009 731.07 587.15 730.898 588.488 729.75Z"/>
	<path fill="#242021" d="M528.225 646.75C528.781 646.722 529.352 646.537 529.894 646.666C530.966 646.922 536.139 653.124 538.612 654.313L539.384 654.664C544.717 657.157 550.649 658.916 556.47 659.778C559.76 660.266 563.114 660.269 566.384 660.763C582.67 663.225 600.537 660.584 616.571 657.425C621.842 656.386 628.662 655.231 633.388 652.582L637 650.524C638.924 650.57 639.052 650.4 640.554 651.75C640.274 653.557 640.154 653.832 639 655.25C626.98 663.316 609.835 663.852 595.99 666.079C592.155 666.696 588.187 666.537 584.311 666.54L569.022 666.318C556.194 665.52 536.704 663.121 528.05 652.25C526.642 650.48 526.47 649.977 526.61 647.75L528.225 646.75Z"/>
	<path fill="#242021" d="M121.884 370.25L123.75 370.041C125.685 372.393 124.767 375.6 125.035 378.5C127.792 408.296 170.116 449.781 193.025 467.75L213.005 481.891C215.462 483.548 218.103 484.846 220.389 486.75L220.432 488.5L219.228 489.75C218.585 489.724 218.139 489.715 217.5 489.476C212.864 487.739 207.372 483.31 203.27 480.549C189.674 471.397 177.405 460.602 165.773 449.096C148.363 431.873 131.024 411.886 123.062 388.372C121.285 383.122 119.34 375.351 121.884 370.25Z"/>
	<path fill="#242021" d="M222.499 307.75L224.004 307.488C224.479 307.909 225.087 308.215 225.428 308.75C225.991 309.633 222.954 319.098 222.688 320.944C220.162 338.495 222.573 356.342 226.206 373.575C230.022 391.673 236 410.276 243.6 427.144C248.075 437.075 252.976 447.061 258.47 456.461L263.267 464.208C264.289 465.756 265.729 467.383 266.016 469.25L264.84 470.75L263.75 471.457L262.75 470.986C257.321 463.462 252.9 455.204 248.626 446.982C241.703 433.661 236.321 420.247 231.317 406.125C224.623 387.235 219.512 367.405 218.2 347.324C217.646 338.849 216.883 314.188 222.499 307.75Z"/>
	<path fill="#242021" d="M481.601 277.261C482.404 277.269 482.979 277.282 483.75 277.529C487.392 278.697 491.169 281.62 494.501 283.569C502.168 288.055 510.16 291.685 517.081 297.395C518.391 298.475 519.16 299.764 519.936 301.25C520.142 303.978 519.885 305.665 518.087 307.806C516.384 309.833 514.291 310.377 511.75 310.518L511.261 310.464C508.146 310.153 504.108 306.851 501.374 305.237L484.784 295.227C481.892 293.489 478.788 291.916 476.045 289.95C474.61 288.921 472.832 287.141 472.677 285.25C472.502 283.103 473.235 280.633 474.693 279.042C476.611 276.949 478.982 277.3 481.601 277.261Z"/>
	<path fill="#242021" d="M594.895 175.567C596.317 175.391 598.507 175.079 599.89 175.561C601.541 176.137 603.011 177.913 603.524 179.531C604.712 183.272 606.387 186.83 607.748 190.512L614.284 211.069C615.309 214.777 616.955 218.618 616.027 222.5C615.384 225.191 613.123 226.821 610.867 228.141C609.398 228.377 607.972 228.597 606.585 227.91C605.077 227.162 603.121 225.555 602.679 223.884L594.471 198C592.904 193.664 590.796 189.327 589.698 184.855C589.413 183.693 589.391 182.72 589.65 181.553C590.352 178.396 592.262 177.154 594.895 175.567Z"/>
	<path fill="#242021" d="M541.479 226.75C542.779 226.513 544.087 226.668 545.38 226.899C546.322 227.066 547.138 227.29 547.918 227.865C550.428 229.716 552.74 232.494 554.907 234.744L567.51 248.214C570.853 251.883 574.939 255.532 577.556 259.75C578.357 261.041 578.665 263.14 578.285 264.619C577.58 267.357 575.245 268.836 573.012 270.254C571.005 270.598 568.281 270.801 566.474 269.717L566 269.407C563.725 267.938 561.949 265.388 560.25 263.308L550.65 251.797C546.357 247.048 540.661 242.486 537.099 237.236C536.181 235.883 536.108 232.535 536.626 231.046C537.325 229.035 539.622 227.505 541.479 226.75Z"/>
	<path fill="#242021" d="M451.053 344.25C456.555 343.948 479.504 342.683 482.87 345.447C484.259 346.588 485.416 348.374 485.567 350.174C485.782 352.732 485.467 355.183 483.524 357.033C481.108 359.334 476.622 358.751 473.58 358.764L462.875 358.919L445.25 359.102C442.749 359.165 438.899 359.985 436.606 359.328L435.75 358.974C434.376 358.422 432.844 357.928 431.654 357.024C430.295 355.991 429.537 354.606 429.424 352.914C429.24 350.135 429.703 348.569 431.59 346.535C432.673 345.366 433.463 345.293 434.981 345.214L437.53 345.027L451.053 344.25Z"/>
	<path fill="#242021" d="M529.881 379.25C530.47 379.157 530.952 379.347 531.524 379.485C532.151 380.298 532.545 380.888 532.647 381.938C533.007 385.647 532.54 389.651 532.512 393.397L532.675 411L534.75 459.176C535.346 467.277 536.067 475.325 537.358 483.352C537.819 486.217 538.746 488.963 539.157 491.83L539.25 492.509L539.519 494.606C539.61 496.5 538.747 497.743 537.573 499.12C534.146 500.407 528.113 501.977 524.559 501.209C518.049 499.801 512.237 496.997 508.664 491.096C507.743 489.574 507.13 487.831 506.504 486.172L505.69 482.606C504.567 475.722 506.014 468.706 510.308 463.084C514.422 457.698 519.571 455.022 526.159 454.006L525.472 432.491C523.493 431.449 519.84 431.698 517.552 431.143C511.839 429.758 506.637 426.333 503.731 421.131C501.167 416.541 500.625 409.101 502.19 404.124C503.164 401.025 504.342 398.349 506.303 395.733C510.924 389.568 518.867 384.435 526.547 383.321L527.069 383.25L527.547 382.25C528.189 380.762 528.672 380.291 529.881 379.25Z"/>
	<path fill="white" d="M525.549 461.25L526.299 461.618C526.501 471.695 527.611 481.896 529.752 491.737C526.354 491.279 523.531 490.577 520.443 489.097C519.14 487.995 517.788 486.778 516.771 485.398C513.922 481.531 513.806 477.755 514.501 473.25C514.639 472.357 514.708 471.615 515.028 470.75C516.275 467.388 517.904 465.153 521.225 463.663C522.776 462.968 524.125 462.175 525.549 461.25Z"/>
	<path fill="white" d="M523.78 391.75C525.15 391.592 525.712 391.342 526.953 392L526.02 421.471C521.873 421.502 518.59 420.779 514.753 419.214L511.917 416.208C509.924 413.929 508.921 411.26 509.146 408.235L509.199 407.62C509.279 406.458 509.404 405.746 509.805 404.647C512.448 397.389 517.102 394.734 523.78 391.75Z"/>
	<path fill="#242021" d="M857.752 650.722C863.028 651.038 869.547 652.595 873.635 656.08C879.239 660.856 881.623 666.915 882.311 674.043C883.25 683.777 881.211 692.401 874.84 699.962C867.522 708.648 857.146 713.082 845.995 713.955C840.008 713.491 834.094 711.657 829.167 708.109C824.575 704.802 821.616 699.535 820.682 693.996C819.065 684.402 821.772 674.385 827.257 666.493C832.625 658.769 839.608 653.638 848.75 651.503C851.632 650.83 854.791 650.872 857.752 650.722Z"/>
	<path fill="white" d="M847.524 660.25C848.108 660.159 848.366 660.092 849.004 660.135C850.715 660.248 851.323 660.796 852.36 662.052C853.471 666.291 852.345 671.335 851.877 675.64L864.367 670.317C865.885 671.176 867.037 671.94 868.25 673.199C868.696 674.62 869.075 675.187 868.506 676.686C867.842 678.435 866.258 679.382 864.659 680.156L850.608 686.813L850.076 692.382L849.611 698.5C849.182 700.172 848.696 700.172 847.25 700.952C845.215 700.93 844.602 700.951 843.041 699.48C840.391 696.983 841.161 691.653 841.162 688.366C839.15 688.755 836.793 689.184 834.75 688.986C833.288 688.844 832.913 688.069 832.168 686.94C831.955 685.176 831.994 684.183 832.62 682.51C834.463 680.224 839.618 679.126 842.401 678.26C842.716 673.7 842.807 668.208 844.297 663.901C844.978 661.93 845.68 661.176 847.524 660.25Z"/>
	<path fill="#242021" d="M183.423 217.653C188.923 217.218 194.904 217.19 199.506 220.706C205.997 225.665 209.842 234.596 211.081 242.451C212.578 251.947 211.35 261.536 205.454 269.382C198.977 278.001 189.956 280.618 179.796 281.99C173.526 282.155 166.459 281.206 161.036 277.881C156.635 275.182 152.655 269.859 151.548 264.807C149.499 255.447 151.074 240.679 156.703 232.605C163.1 223.428 172.757 219.353 183.423 217.653Z"/>
	<path fill="white" d="M172.929 234.25C173.966 233.983 174.739 234.066 175.75 234.456C178.826 235.639 179.807 240.611 180.69 243.389C183.299 242.059 186.723 240.637 189.627 240.307L190.224 240.25C190.941 240.163 191.504 240.028 192.25 240.148C193.469 240.342 194.656 241.274 195.189 242.364C195.538 243.077 195.539 244.261 195.293 244.974C194.285 247.901 187.666 250.502 184.819 251.92C186.019 254.822 190.185 260.542 188.891 263.5C188.321 264.801 187.26 265.512 186 266.048C184.899 266.062 184.286 266.071 183.318 265.479L181.503 264.202C179.714 261.837 178.387 259.462 177.041 256.832C173.712 258.794 170.804 262.157 167.35 263.749C165.443 264.627 164.201 264.594 162.25 263.88C160.974 262.244 161.121 261.763 161 259.75C162.652 255.396 169.423 251.224 173.062 248.305C171.857 244.882 169.266 240.59 169.475 237C170.501 235.368 171.139 234.93 172.929 234.25Z"/>
	<path fill="#242021" d="M914.595 161.75C915.656 161.561 916.206 161.65 917.25 161.828C918.705 162.998 918.744 163.303 919.321 165C919.202 165.637 919.157 166.686 918.901 167.25C918.212 168.774 915.673 170.135 914.259 170.965C909.995 173.468 905.679 175.688 901.752 178.733C895.108 183.884 891.46 188.193 890.318 196.75C889.106 205.823 892.763 216.85 895.503 225.436C901.486 244.185 908.03 261.806 918.009 278.855L936.363 307.891C941.176 315.951 945.177 324.757 950.259 332.571C956.738 329.301 962.863 325.732 968.422 321.013C970.379 319.352 971.903 317.005 973.922 315.504C975.791 314.115 977.085 314.286 979.25 314.574C980.217 315.359 981.137 316.042 981.62 317.23C982.586 319.606 980.984 321.574 979.59 323.345C977.241 326.328 974.473 329.342 971.376 331.556C966.029 335.378 951.196 341.354 948.759 347.299C944.886 356.746 940.958 366.038 938.67 376.024C935.782 388.632 934.266 401.582 929.643 413.761C925.917 423.58 920.119 432.438 914.299 441.114L886.75 480.822L877.419 495.612C874.532 500.557 871.753 506.054 868.218 510.575C866.085 513.301 863.24 515.844 860.68 518.181C855.371 523.027 850.161 524.933 843 524.479C835.909 524.029 830.861 519.117 826.459 514.085L823.558 519.5C819.934 526.08 814.294 530.032 807.072 532.047L806.418 532.22C805.96 537.954 804.086 543.908 802.143 549.301C798.418 559.641 791.822 572.361 781.248 576.883C778.243 578.167 772.434 578.173 769.4 576.817L768.75 576.507C762.971 573.793 761.074 570.571 758.234 565.121C753.636 569.71 748.616 575.491 742.366 577.752C737.612 579.471 731.133 579.284 726.648 576.953C720.54 573.777 715.846 568.666 713.931 562C710.677 550.672 713.052 542.29 718.534 532.25L718.25 531.538C717.339 531.517 714.03 531.219 713.566 532C712.658 533.528 712.677 537.423 712.094 539.344C709.45 548.058 702.856 557.196 695.782 562.889C692.228 565.75 686.248 567.702 681.681 567.124L681 567.031C675.841 566.393 670.989 564.862 667.01 561.352C663.126 557.926 661.209 552.581 660.882 547.503L660.84 546.75C660.383 540.955 663.512 534.047 665.812 528.865C642.838 528.955 619.959 526.82 597.046 525.447L563.549 523.024C559.218 522.631 554.489 522.55 550.24 521.641C549.265 521.432 548.056 520.909 547.396 520.122C546.139 518.622 546.497 516.748 546.453 514.892L546.345 499.913L546.656 454.25L548.219 425.373L550.846 378.679L551.687 369.747C551.872 368.332 552.381 366.5 551.843 365.15C551.441 364.141 551.342 363.786 551.398 362.678C551.462 361.416 551.733 360.867 552.75 360.057C553.916 359.13 555.126 359.071 556.547 359.19C562.178 359.661 568.097 358.76 573.757 358.582L605.438 358.574L652.297 360.825L707.75 364.052L750.81 368.153L799.453 372.26C803.772 372.807 808.064 373.016 812.336 373.959C814.575 374.454 817.06 375.555 818.75 377.13C821.763 379.939 824.375 385.129 824.458 389.334L824.566 424.636C830.871 417.773 835.583 409.361 840.663 401.577C846.164 393.148 852.192 385.108 859.066 377.75C859.606 369.126 854.617 361.016 850.971 353.485C848.148 347.653 845.413 341.661 841.902 336.209C839.979 337.166 838.194 339.266 836.574 340.702C829.127 347.305 820.467 352.747 811.5 357.007C808.373 358.493 806.391 359.948 802.778 359.692C792.564 358.969 782.038 359.542 771.795 359.64L755.25 359.113C751.96 358.986 744.932 359.963 742.558 357.581C741.91 356.931 741.823 356.574 741.914 355.662C742.057 354.232 743.184 352.732 743.919 351.5C746.125 347.805 748.787 344.509 751.295 341.028C756.203 334.216 760.645 327.314 766.129 320.898C767.907 318.818 769.926 316.953 771.981 315.151C767.499 316.839 762.793 318.186 758.456 320.207C748.349 324.917 738.5 330.888 728.222 335.174C721.908 337.807 715.218 339.343 708.655 341.205C697.465 344.378 686.088 347.892 674.497 349.287C669.801 349.852 664.807 349.651 660.08 349.616C656.231 349.587 652.151 349.735 648.393 348.817C645.519 348.114 642.465 347.55 639.75 346.369C632.15 343.065 623.676 335.835 621.034 327.75C619.836 324.086 620.069 320.303 621.759 316.865C624.469 311.353 630.365 309.658 635.795 307.865C646.043 304.48 656.235 301.244 666.119 296.853C678.394 291.399 690.313 284.671 702.241 278.487L738.113 261.291L764.37 249.951C790.778 239.439 817.893 229.941 842.5 215.542C852.03 209.966 862.108 204.246 870.679 197.254C875.421 193.386 880.242 189.089 884.509 184.706C893.668 175.298 901.758 166.195 914.595 161.75Z"/>
	<path fill="white" d="M866.812 474.49L868.893 474.571C872.259 474.845 875.7 476.143 877.906 478.75C876.814 481.588 874.78 484.073 873.201 486.663L863.07 503.003C862.23 504.167 861.945 505.137 860.5 505.466C858.28 504.403 854.971 501.249 853.963 499C852.803 496.411 854.26 492.744 855.291 490.268C857.563 484.813 861.093 476.803 866.812 474.49Z"/>
	<path fill="white" d="M837.489 422.153C841.017 426.178 843.726 431.821 846.013 436.664C843.661 439.007 841.9 441.673 839.835 444.25L827.885 458.989L824.654 464.116C824.219 457.007 823.861 449.802 824.075 442.681C824.107 441.597 823.936 438.971 824.328 438.01C824.824 436.797 827.262 434.62 828.189 433.541L837.489 422.153Z"/>
	<path fill="white" d="M664.612 304.424L666.529 307.75C667.815 310.003 668.179 314.571 667.299 317.061C666.735 318.658 666.114 319.54 664.609 320.334C660.754 322.366 657.575 324.814 653.389 326.297L652.5 326.603C647.368 328.444 640.176 327.75 634.989 326.233C633.358 325.369 630.816 324.359 630.148 322.465C629.838 321.586 629.698 319.129 630.195 318.288C630.77 317.315 632.024 316.721 632.984 316.152C638.725 312.748 646.181 311.219 652.5 309.023L664.612 304.424Z"/>
	<path fill="white" d="M672.366 530.928L686.496 531.303L706.942 531.588L695.423 550.293C693.553 552.688 690.535 554.816 687.726 555.946C686.254 556.539 682.686 557.685 681.067 557.539C678.837 557.337 675.302 555.585 673.177 554.745C671.647 553.048 670.115 551.105 669.281 548.962C667.087 543.33 670.166 536.239 672.366 530.928Z"/>
	<path fill="white" d="M768.373 532.455L797.957 532.351C795.463 542.467 790.993 551.974 785.277 560.673L784.857 561.231C783.013 563.713 779.726 567.247 776.534 567.826C773.817 568.318 771.422 567.5 769.184 565.909C767.416 564.652 763.999 559.357 763.602 557.134C763.527 556.717 765.282 553.275 765.534 552.662C766.984 549.127 768.56 544.909 769.057 541.118C769.435 538.231 768.825 535.303 768.373 532.455Z"/>
	<path fill="white" d="M727.741 532.25C728.5 531.992 728.202 531.996 728.956 532.094C729.945 532.222 730.723 532.417 731.724 532.245C735.469 531.599 740.288 532.222 744.148 532.291C750.258 532.399 756.364 532.096 762.459 532.536C759.836 543.033 756.269 551.694 749.494 560.206C747.468 562.341 745.317 564.495 742.906 566.201C740.186 568.125 735.654 569.277 732.335 568.351C727.671 567.049 724.429 562.979 722.534 558.75C718.628 550.036 724.602 540.15 727.741 532.25Z"/>
	<path fill="white" d="M880.695 200.376C881.487 202.818 881.353 206.378 881.623 208.999C882.034 212.977 882.781 217.086 883.686 220.979C885.14 227.237 887.38 233.425 889.473 239.5C893.329 250.693 897.63 261.605 902.952 272.187C906.881 279.997 910.974 287.917 915.745 295.25L932.516 319.848C936.348 325.597 940.426 331.734 942.617 338.327C935.952 349.472 931.077 362.627 928.426 375.339C925.917 387.368 924.569 399.209 920.26 410.827C917.689 417.757 914.017 424.18 910.335 430.56L893.25 457.317L882.538 472.091L879.423 469.436C875.856 467.032 872.895 466.513 868.639 467.282L867.75 467.452C865.361 467.887 863.779 468.757 861.742 470.028C857.729 478.361 850.67 485.299 849.001 494.75C848.13 499.685 849.655 505.307 853.048 508.976C854.287 510.315 855.895 511.254 856.965 512.75L856.519 513.406C854.74 515.885 851.01 517.293 848.107 517.747C845.865 518.098 843.159 518.355 841.25 516.91C837.984 514.438 834.819 509.834 834.286 505.713L834.191 504.882C830.637 475.474 851.542 450.395 869.631 429.703C876.371 421.993 884.556 413.549 888.058 403.771C891.109 395.25 890.753 387.229 890.645 378.347C890.48 364.715 889.642 350.145 886.083 336.949C883.108 326.266 877.031 317.054 869.123 309.377C864.548 304.936 859.906 300.923 854.413 297.639C850.895 295.535 847.099 293.97 843.5 292.023C837.873 288.98 834.01 286.208 827.391 285.566C810.547 283.931 794.664 291.838 780 298.884L753.722 311.322C743.059 316.281 731.873 320.048 721 324.497C707.374 330.072 693.638 336.599 679.103 339.469C673.452 340.585 667.67 340.86 661.922 340.929C654.614 341.016 645.362 340.523 639.177 336.094C637.24 334.707 635.489 332.782 633.784 331.115C638.872 331.851 642.786 332.755 648.073 332.517C655.65 332.176 664.409 327.785 669.25 321.991C671.406 319.41 672.524 315.313 672.131 312.01L672.031 311.25C671.668 308.006 670.129 305.276 668.715 302.377C682.84 298.11 695.298 291.509 708.529 285.14L739.891 270.807C778.629 253.426 819.773 240.775 856.021 218.181C864.642 212.808 872.606 206.49 880.695 200.376Z"/>
	<path fill="white" d="M557.995 365.684L800.5 381.62C805.778 382.534 808.309 384.909 811.273 389.168L811.768 420.324L812.572 476.676L812.546 499.899C812.533 503.858 812.837 508.126 812.317 512.05C811.977 514.617 811.296 516.06 809.75 518.136L808.909 518.846C801.718 519.891 794.125 519.264 786.856 519.377L748.88 520.062L613.353 516.3L558.588 511.964L557.775 488.991L557.216 392.933C557.512 384 556.667 374.495 557.995 365.684Z"/>
	<path fill="#242021" d="M756.175 426.25C757.602 425.841 757.821 425.818 759.25 426.204C760.693 428.479 759.669 434.836 759.574 437.583C759.377 443.305 759.223 449.36 759.9 455.046L759.988 455.75C759.053 457.101 758.757 457.225 757.25 457.925C756.811 457.748 756.695 457.737 756.293 457.372C753.659 454.982 752.988 449.54 753.247 446.166C753.291 445.587 753.332 445.144 753.241 444.565C752.85 442.066 752.752 439.524 752.994 437C753.277 434.049 753.78 428.242 756.175 426.25Z"/>
	<path fill="#242021" d="M771.331 410.75L772.217 410.63C773.318 410.666 773.783 411.28 774.477 412L773.623 444.078C773.519 446.667 774.309 450.797 773.25 453.15C772.58 454.639 771.694 454.827 770.25 455.362C769.532 455.112 769.087 454.71 768.49 454.25C767.602 452.182 767.39 450.177 767.226 447.953C766.558 438.915 768.166 428.771 769.1 419.754C769.304 417.79 769.098 415.208 769.666 413.352C770.005 412.243 770.589 411.613 771.331 410.75Z"/>
	<path fill="#242021" d="M788.755 396.75C789.777 396.465 790.443 396.563 791.5 396.622C791.911 396.998 792.458 397.266 792.734 397.75C793.581 399.231 793.33 403.618 793.383 405.336L793.796 431.436C793.853 434.397 793.494 438.12 794.021 441C794.219 442.079 794.49 441.936 794.304 443.17C793.755 446.798 794.347 450.945 794.398 454.653C794.497 461.808 793.9 469.628 795.122 476.668L795.462 479C795.493 481.953 794.456 484.28 792.338 486.25C791.158 486.481 790.329 486.315 789.25 485.755C787.607 484.901 786.472 483.095 786.037 481.344C785.192 477.941 785.471 473.801 785.466 470.296L785.826 448.341C786.181 432.499 785.639 415.966 787.606 400.247C787.777 398.88 788.019 397.915 788.755 396.75Z"/>
	<path fill="#242021" d="M605.55 387.568C612.723 386.72 619.007 388.379 625.434 391.521C633.006 395.223 637.346 403.933 640.02 411.437C642.657 418.839 641.402 428.726 637.921 435.677C633.646 444.215 625.894 450.145 616.96 453.179C609.602 454.233 603.356 453.894 596.817 449.959C587.969 444.633 584.119 436.927 581.818 427.226C579.861 418.972 581.351 408.593 585.909 401.379C590.333 394.376 597.583 389.479 605.55 387.568Z"/>
	<path fill="white" d="M597.011 426.75C603.832 426.311 610.953 428.704 617.847 428.19C619.331 428.079 621.324 427.823 622.711 428.453C623.88 428.983 623.828 429.362 624.177 430.5L623.509 431.75L621.75 432.611C621.071 432.894 620.579 432.957 619.834 433.012C614.295 433.419 608.557 432.649 603.014 432.362C600.303 432.221 596.473 432.581 594.426 430.75L594.374 428.75C595.299 427.275 595.35 427.319 597.011 426.75Z"/>
	<path fill="white" d="M596.421 409.25C603.794 409.11 611.231 409.714 618.5 410.931C620.616 411.285 623.139 411.475 625.058 412.464C625.643 413.777 625.658 414.342 625.392 415.75L623.75 416.598C619.916 416.289 616.125 415.295 612.246 414.982C606.774 414.54 601.22 414.796 595.803 414.25C594.785 413.257 594.758 413.151 594.486 411.75C594.998 410.206 595.077 410.185 596.421 409.25Z"/>
	<path fill="#242021" d="M336.01 446.07C337.516 446.047 338.787 446.299 340.25 446.643C340.745 447.808 340.927 448.233 341.949 449.032C345.328 451.67 349.298 453.213 352.936 455.423L372.15 468.264L416.283 502.945L445.164 525.43L466.728 542.007C471.067 545.26 475.731 548.376 479.742 552.027C482.517 554.554 481.201 556.218 481.44 559.384L481.492 559.875C481.67 563.151 478.707 564.84 476.75 567.08L469.888 575.619L454.354 595.505L388.724 680.456C383.642 686.514 379.548 693.546 374.062 699.261C373.35 700.002 373.435 699.565 373.882 700.547C376.578 706.477 377.812 712.41 376.708 718.924L376.559 719.75C375.882 723.711 374.063 727.083 372.276 730.632C378.63 728.269 385.376 727.019 391.939 725.361C394.778 724.644 398.516 723.142 401.406 723.065C405.353 722.961 410.298 721.409 414.183 720.404C416.665 719.761 418.833 720.448 421.194 720.04C422.53 719.809 423.634 718.326 424.865 717.777C426.137 717.209 429.527 717.766 431 718.059C434.247 718.706 436.903 721.631 438.725 724.228L439.131 724.824C445.184 722.916 451.011 721.054 456.764 718.34C460.628 718.547 464.697 719.144 468.224 720.814C474.369 723.723 477.22 728.141 479.422 734.323L493.461 730.465C500.909 728.954 509.154 728.344 515.75 732.963C520.822 736.515 522.351 741.31 523.409 747.139C524.648 753.956 522.387 759.462 518.61 765.028C515.105 770.194 509.807 775.719 504.766 779.421L494.41 787.32L471.591 801.984L436.74 821.143L410.387 836.497C407.609 838.082 405.009 839.955 402.149 841.397C400.112 842.424 398.133 843.077 395.888 843.476C385.419 845.339 374.466 843.129 363.951 842.552L312.528 839.645L208.186 829.611C195.876 828.358 183.553 826.352 171.185 825.778C155.758 825.062 140.067 825.996 124.645 826.781C124.101 833.707 123.85 842.024 121.786 848.691C121.173 850.67 119.137 854.114 117.25 855.026C116.27 855.5 115.292 855.581 114.284 855.153C112.814 854.529 110.625 852.217 110.619 850.5C110.609 847.993 112.866 844.374 113.264 841.578C114.572 832.381 114.657 822.928 115.224 813.656C117.141 782.295 111.37 748.515 99.5176 719.463C94.0767 706.126 87.5983 694.568 77.6582 684.058C77.0711 683.437 74.9386 680.825 74.4373 680.694C73.4464 680.435 69.7205 682.036 68.5631 682.417C63.8636 683.961 45.5404 690.37 41.9531 688.625C40.6128 687.973 39.2478 686.772 38.8278 685.31C38.4525 684.004 38.7734 682.508 39.5057 681.368C40.5787 679.699 43.1888 679.038 44.957 678.505L62.7548 673.767C80.8716 668.068 98.0087 660.124 116.361 654.969C132.77 650.36 149.753 648.589 166.564 646.163L188.821 642.313C185.073 639.347 180.884 636.516 177.873 632.782C177.367 630.251 176.003 626.176 177.176 623.792L178.721 620.469C180.019 618.363 183.581 617.512 185.472 615.75C191.615 610.027 196.895 602.792 202.402 596.425L216.263 578.756C250.933 537.028 284.153 493.572 323.827 456.319C327.604 452.773 330.821 447.407 336.01 446.07Z"/>
	<path fill="white" d="M363.434 737.25L365.25 736.787L366.44 737.75L366.545 742.75C366.458 744.411 365.828 747.393 364.993 748.78C364.178 750.135 361.097 751.747 359.753 752.626C357.698 753.97 355.911 755.519 354.097 757.165C349.759 756.261 345.49 754.558 341.261 753.219L320.876 746.681L310.823 742.56L317.803 739.913C318.37 739.683 320.146 738.726 320.659 738.726C322.626 738.726 326.481 740.6 328.581 741.189C340.759 744.607 352.251 743.56 363.434 737.25Z"/>
	<path fill="white" d="M455.945 728.621C457.754 728.491 459.919 728.196 461.655 728.827C465.473 730.218 467.963 733.749 469.778 737.165L392.674 771.984C390.497 771.886 387.83 770.297 385.818 769.425L367.936 762.721C368.245 762.27 427.311 737.924 431.146 736.503C439.247 733.499 447.502 730.489 455.945 728.621Z"/>
	<path fill="white" d="M335.858 485.917C338.55 487.037 340.743 488.844 343.057 490.583L227.361 632.813L219.275 626.059L335.858 485.917Z"/>
	<path fill="white" d="M348.361 495.309L356.92 501.882C355.644 503.674 353.394 505.079 351.75 506.568L343.864 514.357L316.793 545.946L280.979 595.406L242.817 643.809L241.457 643.25L231.625 635.675C243.442 624.314 253.347 611.264 263.221 598.22L287.362 566.743L348.361 495.309Z"/>
	<path fill="white" d="M336.405 456.884C346.903 461.989 356.685 468.998 366.029 475.914L386.75 491.624L401.182 503.87L426.191 522.99L453.676 545.482L470.853 559.262L367.602 691.663C362.712 686.931 356.093 684.366 349.935 681.747C335.404 675.566 320.513 670.965 305.302 666.791C292.396 663.25 279.03 660.087 266.633 655.003L277.853 638.511C280.898 634.08 283.671 629.409 286.956 625.152L307.823 599.205L356.105 539.554L369.885 525.114C372.593 522.479 385.093 512.254 385.464 510.25C383.554 506.527 381.41 506.101 377.715 504.7C374.337 506.903 371.427 510.963 368.548 513.875C352.544 530.063 337.474 547.812 323.295 565.62L313.575 578.5L287.513 611.813L260.828 651.834C256.585 649.781 252.075 647.9 248.321 645.02C251.352 640.764 255.332 636.939 258.612 632.839L279.716 605.13C297.139 581.787 313.144 557.81 331.964 535.501C337.344 529.124 343.033 522.499 349.075 516.75L359.15 508.077C360.402 507.032 362.353 505.805 363.262 504.522C364.072 503.38 364.272 500.927 364.506 499.518C362.155 496.015 359.506 493.816 356.005 491.516L355.39 491.117C355.068 490.379 354.715 489.796 354.223 489.164L353.675 488.467L354.15 487.5L353.582 485.966C352.832 485.316 352.36 484.816 351.351 484.617C350.419 484.433 349.966 485.126 349.25 485.651C347.907 483.753 345.945 482.764 344.46 481.064C343.366 479.811 342.847 478.238 341.479 477.192C340.049 476.1 337.946 475.485 336.268 474.86C332.945 476.886 331.104 479.346 328.483 482.128L315.382 496.485L273.329 545.86L239.055 590.614L218.364 616.72C215.959 619.81 211.867 623.884 210.649 627.5C210.783 628.083 210.829 628.695 211.053 629.25C211.673 630.786 214.229 632.037 215.5 632.957C219.434 635.804 222.861 639.207 226.933 642.026L226.5 642.434C224.643 642.075 224.034 642.246 222.801 640.75L221.5 641.472C220.24 641.142 218.9 640.631 217.597 640.851L217 640.983C215.04 640.909 213.041 640.488 210.953 640.496C208.596 640.506 203.934 641.351 201.818 640.504C200.158 639.841 196.68 635.638 195.196 634.325C193.217 632.573 191.03 631.103 188.825 629.654C192.106 626.27 194.363 622.567 197.146 618.799L215.916 593.45C244.599 557.042 273.528 520.982 305.424 487.293C315.213 476.953 325.23 465.696 336.405 456.884Z"/>
	<path fill="#242021" d="M415.374 562.75L416.281 562.496C418.007 562.163 418.58 562.534 419.845 563.625C420.547 569.201 413.24 576.739 410.25 581.243L409.25 581.937C408.123 581.694 407.724 581.088 406.987 580.25C406.778 579.307 406.734 578.652 406.891 577.682C407.763 572.306 410.821 565.954 415.374 562.75Z"/>
	<path fill="#242021" d="M401.864 540.75L403.257 540.507C404.99 541.136 405.265 541.249 406.493 542.75C406.605 544.188 406.665 545.356 405.868 546.622C404.624 548.596 402.345 550.308 400.775 552.081L392.085 562.75C391.483 563.471 391.134 563.737 390.25 564.058L389.15 563.357C388.467 561.544 388.534 560.894 388.997 559C390.541 552.68 396.298 543.993 401.864 540.75Z"/>
	<path fill="#242021" d="M337.106 602.75C337.841 602.641 338.549 602.579 339.25 602.929C340.228 603.417 341.138 604.434 341.25 605.562C341.315 606.223 341.222 607.622 341 608.25C340.199 610.511 337.147 612.546 335.619 614.421C332.367 618.411 329.917 622.677 326.25 626.36L324.75 626.848C323.192 625.904 323.017 625.528 322.152 624L322.913 622C325.568 616.064 330.862 605.243 337.106 602.75Z"/>
	<path fill="#242021" d="M355.521 621.25C357.128 620.972 357.471 620.717 358.955 621.5C359.553 622.485 360.017 622.948 360.097 624.125C360.188 625.477 359.843 626.614 359.161 627.769C357.709 630.227 355.372 632.487 353.476 634.635L343.895 645.57L342.832 646.302C341.826 646.023 342.043 646.284 341.543 645.481C340.737 644.186 340.915 641.919 341.238 640.495C342.755 633.809 349.868 624.876 355.521 621.25Z"/>
	<path fill="white" d="M206.473 650.235L206.951 650.151C213.226 649.411 221.937 650.955 228 652.481C244.009 656.511 259.2 663.532 274.861 668.738C296.046 675.781 317.796 680.221 338.628 688.457C344.986 690.97 351.991 693.712 357.497 697.816C362.226 701.34 365.874 706.38 366.499 712.403C366.824 715.541 365.388 718.878 363.421 721.25C360.087 725.269 351.945 727.652 346.889 727.918C344.272 728.055 341.769 728.573 339.141 728.378C328.383 727.579 317.178 724.635 306.703 722.184C296.448 719.784 285.55 717.567 275.73 713.736C267.699 710.602 259.944 706.948 252.455 702.669C243.429 697.512 234.283 691.295 224.586 687.497C222.433 686.654 219.829 686.187 217.5 686.479C216.54 686.6 216.051 687.181 215.499 687.91C214.664 689.012 214.19 690.254 214.532 691.652C214.846 692.941 215.611 693.915 216.65 694.691C220.67 697.695 226.104 699.498 230.562 701.844L254.944 715.811C257.71 717.442 260.217 719.409 262.912 721.137L291.388 740.089L304.136 749.025C306.344 750.542 308.637 752.348 311.075 753.47C321.42 758.233 332.945 761.201 343.765 764.756L374.577 775.9C380.669 778.255 387.079 780.484 392.898 783.437C397.358 785.7 401.599 788.654 405.946 791.164C407.906 790.537 409.782 790.157 411.145 788.504C411.386 787.393 411.549 786.636 411.363 785.488C410.925 782.778 407.996 781.313 405.924 779.925L474.126 749.268C483.877 744.917 493.28 740.818 503.825 738.793C505.37 738.496 508.616 738.41 509.971 739.322C513.196 741.491 513.826 744.755 514.443 748.321L510.415 751.739C504.906 756.532 498.078 760.345 491.923 764.265C469.612 778.475 446.459 790.987 422.799 802.775C412.082 808.114 400.792 814.936 388.978 817.341C378.127 819.549 368.496 816.403 357.801 815.678C355.154 815.498 352.533 814.727 349.888 814.411L316.887 809.672L272 803.835L238.5 797.506L220.38 793.451L193.665 784.785L175.375 779.552C173.055 778.788 171.637 777.422 169.549 776.349C167.779 775.44 165.739 775.044 163.813 774.601C151.342 771.733 138.949 768.947 126.247 767.339C125.282 767.216 122.436 767.169 122.204 766.84C121.667 766.079 120.524 755.575 120.111 753.697C115.121 730.993 107.33 706.016 93.3317 687.167C90.5967 683.484 87.2246 680.136 84.1016 676.776C99.7406 670.13 117.076 664.225 133.821 661.123L171.237 655.651C183.254 653.653 194.191 650.593 206.473 650.235Z"/>
</svg>
