<?xml version="1.0" encoding="utf-8" ?>
<svg xmlns="http://www.w3.org/2000/svg" xmlns:xlink="http://www.w3.org/1999/xlink" width="1024" height="1024">
	<path fill="#FEFEFE" d="M-0 -0L1024 0L1024 1024L-0 1024L0 -0Z"/>
	<path fill="#231F20" d="M424.498 766.75C424.984 766.595 425.209 766.487 425.765 766.497C427.16 766.522 427.872 767.239 428.651 768.25C428.705 769.706 428.567 769.795 427.75 771.025C426.605 771.645 426.031 771.612 424.75 771.476L423.809 770.25C423.59 768.481 423.673 768.343 424.498 766.75Z"/>
	<path fill="#231F20" d="M305.872 358.75C307.122 358.636 307.417 358.881 308.564 359.443C309.472 360.855 309.518 361.647 309.476 363.25C308.345 364.987 308.27 364.804 306.362 365.25L305.848 365.298C304.163 365.252 304.087 364.946 302.985 363.75C303.013 363.094 303.014 362.391 303.194 361.75C303.618 360.24 304.594 359.514 305.872 358.75Z"/>
	<path fill="#231F20" d="M327.879 340.75L330.25 340.591L331.25 341.725C331.533 342.984 331.494 343.535 331.062 344.75C329.508 345.906 328.008 346.705 326.25 347.514C324.656 347.459 324.175 347.152 322.943 346.25C322.43 345.051 322.615 344.796 322.901 343.5C324.176 341.798 325.955 341.403 327.879 340.75Z"/>
	<path fill="#231F20" d="M638.379 446.75C639.452 446.418 639.987 446.564 641.055 446.866C642.356 447.978 642.929 448.597 643.424 450.25C642.591 453.112 641.805 455.438 639.25 457.155C638.395 457.406 637.623 457.533 636.75 457.18C635.403 456.636 635.217 455.721 634.709 454.5C635.994 452.102 636.696 448.757 638.379 446.75Z"/>
	<path fill="#231F20" d="M946.948 523.75C948.093 523.285 948.556 523.305 949.75 523.602C951.013 524.798 951.422 525.314 951.845 527C950.925 530.02 948.698 531.678 946.25 533.51L945.737 533.744C944.092 534.175 943.819 533.872 942.462 533.021C942.08 532.257 941.436 531.535 941.654 530.659C942.263 528.224 944.942 525.141 946.948 523.75Z"/>
	<path fill="#231F20" d="M194.117 571.25L195.273 571.019C196.385 571.681 197.245 572.076 197.767 573.335C196.384 577.126 195.268 581.988 192.956 585.25C192.033 585.67 191.496 585.615 190.5 585.503C189.865 584.941 189.201 584.678 189.124 583.771C188.805 580.02 192.035 574.262 194.117 571.25Z"/>
	<path fill="#231F20" d="M685.182 365.25C686.236 365.112 686.717 364.736 687.584 365.453C688.374 366.105 688.794 367.021 689.091 367.982C689.737 370.07 689.454 372.297 690.155 374.5C691.296 378.084 693.523 381.452 693.933 385.236C694.079 386.58 693.977 386.308 693.198 387.25L691.775 387.48C687.924 384.108 684.887 376.235 684.08 371.228C683.695 368.839 683.72 367.196 685.182 365.25Z"/>
	<path fill="#231F20" d="M946.024 504.75L946.818 504.575C948.042 504.562 948.312 505.367 948.874 506.25C948.794 507.077 948.71 507.965 948.424 508.75C947.987 509.952 946.78 511.17 945.957 512.123C941.5 517.281 933.144 522.979 926.75 525.245L926.177 525.216C924.859 524.142 924.744 523.857 924.146 522.25C925.01 520.225 925.474 519.91 927.472 519.105C934.449 516.292 941.618 510.903 946.024 504.75Z"/>
	<path fill="#231F20" d="M934.484 489.75L935.922 489.647L937.143 490.993C937.19 492.068 936.889 492.73 936.433 493.681C933.523 499.745 929.148 504.79 924.981 510C923.474 511.883 922.117 514.424 919.75 515.222L918.875 514.938C917.741 514.401 917.064 513.344 916.638 512.25C918.54 507.942 923.807 503.546 926.814 499.802C929.449 496.522 931.545 492.765 934.484 489.75Z"/>
	<path fill="#231F20" d="M923.762 467.75L925.214 467.578C926.264 468.637 926.277 468.773 926.546 470.25C922.612 480.699 917.253 490.181 910.105 498.78C907.954 501.368 905.349 504.542 902.25 505.953C900.94 505.484 900.562 504.826 899.762 503.75C899.928 501.283 904.207 497.497 905.894 495.455C910.397 490.008 914.487 484.389 918.05 478.285C920.006 474.933 921.202 470.617 923.762 467.75Z"/>
	<path fill="#231F20" d="M780.912 821.25C782.559 820.807 782.673 820.726 784.25 821.327C785.084 824.369 785.345 827.704 785.496 830.855C785.974 840.834 784.834 851.17 783.262 861.015C782.817 863.804 782.673 867.873 780.75 869.992L778.5 870.011C777.183 869.248 777.13 869.133 776.474 867.75C778.907 858.671 779.314 848.891 779.771 839.547C780.039 834.056 780.592 828.149 779.7 822.694L779.62 822.25L780.912 821.25Z"/>
	<path fill="#231F20" d="M373.913 106.25C374.518 106.045 375.1 105.825 375.75 105.828C380.629 105.855 396.845 116.79 400.052 120.469C401.175 121.758 401.85 122.991 401.616 124.75C401.415 126.254 400.331 127.02 399.25 127.931C398.655 128.153 398.141 128.344 397.5 128.385C391.546 128.759 381.302 120.766 376.66 116.902C374.658 115.236 371.751 112.333 371.887 109.5C371.967 107.818 372.819 107.311 373.913 106.25Z"/>
	<path fill="#231F20" d="M307.459 167.75C308.216 167.478 308.849 167.33 309.664 167.309C311.609 167.261 314.699 169.268 316.564 170.083L332.5 177.489C334.548 178.528 337.521 179.635 339.113 181.315C340.281 182.548 340.929 184.057 340.837 185.75C340.135 187.451 339.811 187.961 338.25 188.937C337.692 189.13 337.219 189.309 336.615 189.246C329.295 188.479 322.195 185.216 315.698 181.969C312.429 180.335 309.322 178.897 306.856 176.104C305.568 174.645 304.833 173.002 305.092 171C305.334 169.124 306.055 168.735 307.459 167.75Z"/>
	<path fill="#231F20" d="M347.73 234.143C349.186 234.34 350.302 234.513 351.436 235.582C352.023 236.135 352.47 237.086 352.516 237.862C352.618 239.585 352.839 240.591 351.581 241.912C349.422 244.179 345.767 245.397 342.899 246.5C335.788 249.234 329.102 251.54 321.434 251.949L318.822 251.25C317.717 250.679 317.016 249.556 316.649 248.396C315.953 246.192 316.506 244.231 317.509 242.25C319.298 240.513 323.749 240.203 326.259 239.544C333.467 237.653 340.359 235.437 347.73 234.143Z"/>
	<path fill="#231F20" d="M670.123 422.75L671.25 422.921C672.655 424.458 672.658 425.003 673.115 427C676.382 441.274 672.916 456.39 668.561 470C666.39 476.785 664.11 483.545 661.13 490.025C659.551 493.459 657.411 500.025 653.75 501.376C652.364 501.373 651.969 501.423 651.006 500.25C650.292 499.38 650.257 498.209 650.609 497.201C651.513 494.613 653.681 492.07 654.974 489.598C657.872 484.061 660.289 478.361 662.408 472.485C665.895 462.816 669.108 452.219 669.395 441.884C669.506 437.872 668.952 433.756 668.542 429.766C668.375 428.141 667.807 425.728 668.261 424.213C668.49 423.447 669.475 423.141 670.123 422.75Z"/>
	<path fill="#231F20" d="M607.168 100.75L607.974 100.685C609.86 100.778 612.331 102.59 613.318 104.143C614.028 105.26 614.3 107.513 613.844 108.767C613.342 110.15 611.806 111.722 610.885 112.91L603.387 122.601C601.08 125.614 599.108 129.149 596.445 131.846C595.365 132.938 594.151 133.595 592.75 134.184L592.272 134.322C590.32 134.597 588.318 133.271 586.907 132.081C585.995 130.403 585.744 128.749 586.167 126.861C587.258 121.996 591.753 117.743 594.804 113.994C598.429 109.54 602.238 103.765 607.168 100.75Z"/>
	<path fill="#231F20" d="M418.368 290.221C419.601 290.217 420.774 290.504 421.975 290.75L422.206 291.75C420.259 293.482 416.843 293.508 414.336 293.902L397.5 296.51C391.435 297.611 385.32 298.933 379.385 300.59C367.315 303.962 355.707 309.014 344.498 314.556C328.226 322.599 310.903 332.775 298.557 346.26C295.217 349.908 291.745 353.941 289.155 358.159C287.63 360.641 286.625 363.389 285.186 365.914L284.704 366.75C283.575 367.732 283.472 367.855 282 368.033C281.514 367.514 281.035 367.275 280.992 366.539C280.588 359.561 288.656 350.23 293.024 345.342C302.481 334.759 314.508 325.892 326.653 318.646C354.696 301.915 385.781 292.126 418.368 290.221Z"/>
	<path fill="#231F20" d="M357.461 745.25C359.006 744.834 360.827 745.914 362.209 746.541L374.994 752.744C375.295 752.903 377.663 754.301 377.863 754.273C377.994 754.255 379.438 752.826 379.584 752.692C381.981 750.497 385.571 746.357 388.75 745.489C389.952 746.164 389.937 746.468 390.509 747.75C389.84 750.54 384.979 754.404 383.033 756.882C385.313 759.698 390.121 762.199 393.15 764.398C396.712 761.388 404.525 754.545 409 754.488C410.107 755.476 410.136 755.548 410.455 757C409.226 758.942 406.629 760.212 404.75 761.496C402.177 763.255 400.011 765.048 397.867 767.314C402.132 771.594 408.367 774.712 411.445 780C411.538 781.568 411.74 781.995 410.879 783.355C407.828 783.692 403.42 779.447 401.075 777.687C398.217 775.541 395.428 773.644 392.278 771.955L381.975 782.098C385.208 784.913 398.22 792.565 399.264 795.601C399.551 796.434 399.345 796.497 399.032 797.25C397.761 797.807 397.616 797.888 396.251 797.369C389.815 794.921 383.465 789.627 377.309 786.299L369.714 795.225C368.978 796.075 367.753 797.72 366.75 798.223C366.298 798.45 365.75 798.38 365.25 798.459L363.75 796.969C363.662 796.479 363.415 795.992 363.487 795.5C363.62 794.597 365.317 792.975 365.893 792.323C368.332 789.565 370.659 786.858 372.754 783.816C371.004 781.361 366.137 779.112 363.521 777.549C361.154 777.616 357.312 785.817 354.25 786.665C352.998 786.012 352.734 785.973 352.075 784.75C353.747 780.87 356.939 777.485 359.729 774.368C352.75 769.778 342.678 765.291 337.75 758.549C337.512 757.071 337.496 757.01 338.186 755.688L338.794 755.585C341.323 755.54 345.221 758.865 347.428 760.134C357.751 766.07 368.119 771.425 377.007 779.534L388.562 768.937L374.896 759.368C370.453 756.492 365.798 754.068 361.428 751.057C359.685 749.856 357.82 748.778 356.618 747L357.461 745.25Z"/>
	<path fill="#231F20" d="M742.716 505.75C746.035 505.263 754.816 510.613 758.116 512.272C758.564 512.498 760.282 513.581 760.721 513.59C761.03 513.597 761.984 512.723 762.206 512.522C764.231 510.692 767.058 507.283 769.81 506.747C770.649 506.584 771.171 507.215 771.847 507.649C772.234 508.434 772.773 508.983 772.537 509.88C771.848 512.5 767.472 514.749 765.334 516.215L779.143 523.658L788.415 515.75C788.057 514.652 788.256 515.082 787.674 514.05C787.075 512.987 787.336 512.901 787.574 511.75C788.746 510.759 789.841 510.319 791.25 509.79C792.894 510.045 793.75 510.298 794.89 511.595C796.032 512.894 796.017 513.852 795.993 515.5C793.817 519.426 787.588 523.419 784.032 526.397C787.558 527.655 791.071 529.047 793.84 531.662C795.433 533.167 795.428 533.695 795.518 535.75C794.726 536.997 794.373 537.035 793 537.648C789.934 537.443 782.638 531.7 779.741 529.983C774.758 533.912 769.536 537.672 765.058 542.18C769.956 544.164 775.208 545.395 780.258 546.97C782.327 547.615 784.805 548.056 786.386 549.588C787.011 550.978 787.113 551.769 787.118 553.25C786.199 554.009 785.525 554.584 784.25 554.463L780.394 553.612L760.522 546.635L751.465 553.284C750.425 554.029 748.976 555.313 747.785 555.75C746.495 556.223 745.742 555.97 744.562 555.402C744.064 554.653 743.528 554.287 743.676 553.343C744.121 550.497 752.548 545.729 755.219 543.809C754.625 542.97 752.808 542.354 751.879 541.879L742.966 537.124C740.767 540.003 738.789 542.921 736.25 545.528C735.542 546.256 735.461 546.037 734.5 546.046C733.1 545.337 732.431 544.966 731.697 543.487C732.003 539.707 735.754 537.123 738.341 534.661L722.723 522.601C721.342 521.295 721.112 520.629 721.071 518.75C722.336 517.527 722.439 517.278 724.25 516.998C726.992 518.185 729.087 520.274 731.397 522.123L742.447 530.849L756.857 517.243C753.247 515.316 742.54 512.254 741.014 508.75C741.332 507.268 741.586 506.765 742.716 505.75Z"/>
	<path fill="#FEFEFE" d="M760.139 520.75L760.652 520.603C764.628 519.817 771.962 524.904 775.264 527.097L761.566 538.75C760.962 539.155 760.435 539.31 759.75 539.534L746.595 532.905L760.139 520.75Z"/>
	<path fill="#231F20" d="M729.599 225.75C730.871 225.467 731.604 225.368 732.874 225.756C739.21 227.696 745.535 230.939 751.618 233.611C796.814 253.463 835.331 283.981 871.99 316.555L892.275 336.38C894.985 339.289 898.29 342.439 900.172 345.944C900.123 347.364 899.586 347.752 898.75 348.87L897.08 349.312C894.7 348.132 893.09 345.891 891.18 344.088L879.95 333.901L846.606 305.15C825.599 287.355 802.906 270.608 779.401 256.259C767.717 249.127 755.89 242.778 743.437 237.076L735.282 233.422C732.583 232.304 729.854 231.776 728.128 229.25C728.349 227.612 728.54 227.019 729.599 225.75Z"/>
	<path fill="#231F20" d="M848.271 167.75L850 167.518C855.398 167.538 855.52 181.785 856.721 185.811C857.739 189.224 859.591 192.548 862.124 195.063C865.401 198.316 871.041 200.379 875.641 200.469C876.85 200.493 878.386 200.412 879.5 200.99C880.911 201.721 881.265 202.837 881.757 204.232C881.323 206.108 881.249 206.853 879.374 207.837C877.587 208.775 875.54 209.278 873.705 210.219C865.154 214.609 859.666 221.975 857.201 231.175C856.542 233.635 856.02 237.419 854.597 239.5C853.385 241.271 852.735 241.289 850.75 241.601C848.966 241.454 847.837 240.932 846.704 239.554C845.306 237.852 845.078 233.269 844.319 231.002C842.865 226.66 841.262 222.5 838.863 218.585C835.724 213.463 830.941 209.443 824.882 208.439C821.796 207.928 819.93 208.479 817.402 206.25C816.924 205.155 817.026 204.407 817.322 203.285C818.266 199.709 823.336 200.468 826.163 199.584C828.196 198.949 830.429 197.764 832.256 196.656C838.477 192.886 842.378 184.195 844.097 177.447C844.584 175.535 844.595 173.479 845.152 171.609C845.776 169.515 846.369 168.819 848.271 167.75Z"/>
	<path fill="#FEFEFE" d="M848.65 186.989L850.216 190.905C853.519 198.547 858.978 202.782 866.472 205.771C859.317 210.714 854.725 216.205 851.369 224.25L850.814 224.822C849.867 224.76 849.554 223.091 849.172 222.215C845.829 214.545 841.656 208.531 834.224 204.418C841.24 199.985 844.75 194.145 848.65 186.989Z"/>
	<path fill="#231F20" d="M502.991 797.25C504.039 797.304 505.131 797.38 506.003 798.045C507.547 799.221 508.828 801.456 510.01 803L516.855 811.537C523.648 819.686 531.27 827.398 537.651 835.866C538.351 836.794 538.599 837.582 538.69 838.75C538.76 839.651 538.753 840.167 538.379 840.977C537.483 842.92 535.717 844.799 534.528 846.606L523.858 862.896L514.716 877.299C513.53 879.171 512.117 882.038 510.519 883.53C509.219 884.744 507.86 884.447 506.25 884.388C503.378 882.48 501.22 879.112 498.97 876.5L485.946 861.503L475.585 850.006C474.006 848.232 471.952 846.3 470.775 844.25C470.632 844 470.398 843.505 470.354 843.203C470.089 841.369 470.484 840.078 471.63 838.65C479.213 829.198 486.093 818.671 493.174 808.8C495.467 805.603 497.557 801.695 500.243 798.873C501.104 797.967 501.808 797.598 502.991 797.25Z"/>
	<path fill="#FEFEFE" d="M503.392 808.601C506.185 811.241 508.479 814.45 510.994 817.361L529.635 838.742C526.644 844.601 522.237 850.32 518.623 855.877C515.226 861.101 511.694 868.541 507.232 872.75C504.163 870.576 501.244 866.315 498.662 863.432L479.43 842.068L503.392 808.601Z"/>
	<path fill="#231F20" d="M194.573 260.177C201.574 259.549 208.867 259.858 215.25 263.15C223.884 267.602 230.875 275.684 233.624 285.01C236.295 294.076 234.75 303.964 229.987 312.098C224.722 321.089 216.714 326.502 206.726 328.892L204.937 329.294C196.411 330.592 187.224 326.969 180.471 321.985C172.923 316.413 167.953 307.46 166.695 298.169C165.499 289.336 168.391 279.446 173.772 272.404C178.784 265.845 186.417 261.138 194.573 260.177Z"/>
	<path fill="#FEFEFE" d="M196.553 267.534C201.107 267.223 206.453 267.974 210.5 270.056C216.967 273.383 223.337 279.557 225.344 286.696C227.193 293.276 226.493 300.91 223.015 306.843C219.004 313.685 212.794 318.867 205.125 320.927C202.148 321.461 198.668 321.235 195.75 320.442C188.939 318.59 181.926 313.671 178.449 307.515C175.214 301.786 173.284 294.848 175.19 288.359L175.454 287.5C176.055 285.449 176.73 283.61 177.723 281.719C181.757 274.03 188.512 269.993 196.553 267.534Z"/>
	<path fill="#231F20" d="M199.652 274.538L203.75 274.58C205.816 275.609 208.066 277.138 209.176 279.233C210.003 280.796 209.848 282.589 209.225 284.183C208.211 286.775 194.315 300.269 191.75 301.459C190.216 301.549 188.637 301.698 187.224 300.982C185.763 300.243 183.957 298.592 183.481 296.984C183.16 295.903 183.625 295.675 184.151 294.75C187.106 293.157 187.425 295.975 190.011 296.637L192.473 294.295C195.776 290.489 201.909 286.742 203.886 282.25C203.288 281.007 202.913 280.847 201.75 280.062C197.135 281.115 192.376 288.262 188.496 291.25C186.886 291.354 186.917 291.233 185.611 290.25C185.244 289.006 184.885 288.377 185.48 287.115C186.17 285.65 187.888 284.22 189.012 283.061C192.166 279.808 195.215 275.934 199.652 274.538Z"/>
	<path fill="#231F20" d="M283.048 425.25C285 425.043 285.331 424.928 287.041 426.047C289.849 427.884 291.902 431.206 293.75 433.945C303.127 447.846 300.331 464.309 296.034 479.5C295.581 481.101 293.965 484.885 294.316 486.384L338.8 470.217L383.364 453.182C386.349 452.103 395.005 448.141 397.891 449.253C400.047 450.083 401.958 452.777 402.62 454.919C402.753 455.35 402.851 455.799 402.879 456.25C403.073 459.357 401.715 462.418 400.65 465.266L396.467 476.573L373.763 538.297L365.852 562.425C364.563 566.508 363.608 571.876 361.489 575.549C360.209 577.768 358.161 579.359 355.841 580.376C352.427 581.874 348.552 582.055 344.949 582.935L324.646 588.387C329.31 605.597 334.556 624.427 331.41 642.221C330.069 649.809 326.365 657.668 322.229 664.125C310.296 682.757 292.347 696.41 274.25 708.625L265.346 714.913C248.577 725.659 230.758 734.955 213.049 744.029C206.439 747.416 198.945 753.284 191.75 754.877C190.392 754.285 190.335 754.291 189.626 753C191.083 749.674 247.929 714.997 256.5 709.413L275.374 696.356C287.434 687.639 299.847 678.392 309.518 666.977C318.206 656.721 325.523 643.824 325.439 630C325.358 616.59 320.503 603.141 319.401 589.708C311.973 591.629 304.224 594.137 296.572 594.654C294.092 600.88 293.236 608.348 292.747 615.003C295.977 619.221 301.283 625.785 301.443 631.25C300.34 632.844 300.368 632.83 298.5 633.342C295.741 632.26 293.242 627.425 291.563 624.993C291.537 629.303 291.439 633.605 290.278 637.788C289.763 639.641 289.444 641.043 287.75 641.989C286.305 641.689 286.191 641.554 285.14 640.5C286.551 633.307 284.865 625.137 285.59 617.741C286.287 610.632 287.188 603.417 289.007 596.5C292.665 582.596 298.839 569.222 304.67 556.124C306.167 551.952 307.273 547.696 306.902 543.25C305.819 541.401 305.782 541.047 303.75 540.135C299.084 540.376 294.819 542.262 291.049 544.983C273.81 557.426 262.83 577.933 252.46 596C250.739 598.998 246.786 604.17 246.402 607.575C246.277 608.691 246.225 608.729 245.423 609.508C240.387 614.404 219.836 617.46 212.687 617.533C208.69 617.574 201.756 617.549 198.932 614.75C198.55 613.217 198.498 612.993 198.976 611.5C199.958 610.54 200.835 609.971 202.203 609.75C205.075 609.287 208.33 609.882 211.27 609.791C218.463 609.567 225.944 608.545 232.906 606.696C237.862 605.38 239.577 603.211 242.045 598.979C238.484 601.383 234.598 604.485 230.03 603.828L229.535 603.75C227.584 603.508 226.274 603.083 224.531 602.203C215.955 597.876 207.25 589.645 204.533 580.144C202.907 574.457 204.536 568.948 207.341 563.991C204.312 562.017 199.756 560.765 196.329 559.437L174.469 550.979C169.648 564.53 162.328 576.977 156.735 590.222C149.324 607.772 144.695 626.265 139.348 644.493L132.57 668.88C131.613 672.459 130.138 676.393 129.659 680.048L129.479 681.5C129.052 683.776 128.175 687.523 126.25 688.88C125.143 688.037 124.712 687.455 124.19 686.142C122.845 682.762 124.403 678.235 124.859 674.689C126.77 659.814 130.322 645.636 134.446 631.244C139.086 615.048 144.401 599.03 150.968 583.5C156.005 571.59 162.964 560.523 168.14 548.622C167.257 547.755 165.248 547.339 164.073 546.911L154.795 543.405L130.882 534.25L97.6216 522.794L75.4708 515.353C73.6665 514.654 70.8611 513.886 69.6095 512.396C69.1129 511.805 68.7629 511.162 68.8322 510.385C69.0287 508.182 70.4175 507.091 72.0862 505.84C72.2568 505.713 72.5766 505.674 72.6024 505.463C72.6218 505.304 71.8879 503.58 71.7752 503.278C70.8558 500.817 69.8159 498.698 70.25 496.027C72.1757 494.193 74.3966 493.087 76.5841 491.633L92.7168 481.201L111.564 468.323C113.787 466.755 115.687 464.82 118 463.396C122.024 463.397 126.07 465.003 129.956 466.049L156.321 473.769L249.569 504.273L266.795 465.315L277.537 436.614C278.561 433.877 279.301 430.974 280.438 428.295C281.01 426.947 281.923 426.145 283.048 425.25Z"/>
	<path fill="#FEFEFE" d="M304.466 497.027L306.75 496.579C312.242 500.951 318.086 504.522 323.75 508.601L332.228 514.931C338.338 519.041 346.464 523.101 351.408 528.5L351.322 530.311C348.283 529.174 345.432 526.907 342.762 525.081L327.415 514.437L313.259 504.85C310.163 502.762 306.899 500.875 304.294 498.166L304.466 497.027Z"/>
	<path fill="#FEFEFE" d="M78.8312 500.25C80.6642 499.82 83.8779 501.206 85.8009 501.657C110.003 507.332 133.342 516.285 156.643 524.75L203.662 541.595L234.45 552.156C234.874 555.931 232.991 561.528 232.25 565.326C231.948 566.235 232.093 566.256 231.25 566.838C216.458 559.362 200.482 553.477 185.048 547.443L168.054 540.348L132.376 527.169L101.206 516.51L86.5404 511.947C83.9185 511.093 80.6663 510.131 78.454 508.5L78.669 507.645C79.426 505.115 79.7215 503.338 78.9818 500.746L78.8312 500.25Z"/>
	<path fill="#FEFEFE" d="M304.466 497.027C301.912 496.338 299.339 497.831 296.934 498.67L289.037 501.089L292.13 492.664C300.671 491.15 309.497 486.958 317.691 484.025L374.752 463.104L388.01 457.864C389.476 457.339 390.983 456.57 392.561 456.869L393.31 458L389.514 469.5L374.946 511.112L362.48 544.858L356.737 562.169C355.924 564.465 355.202 567.391 353.864 569.395C353.017 570.663 351.686 571.389 350.318 571.977C344.966 574.275 338.997 575.474 333.404 577.076L298.863 586.609L304.476 571.948C305.543 572.76 306.756 573.823 308.027 574.281C310.131 575.04 312.188 574.385 314.282 573.895C319.66 572.637 324.923 570.789 330.223 569.234C335.2 567.775 340.822 566.67 345.5 564.448C346.297 564.07 347.781 563.463 348.415 562.85C350.504 560.83 352.207 553.819 353.224 550.992L383.921 467.137C379.408 468.147 375.502 469.916 371.215 471.521C366.68 473.22 362.151 474.622 357.96 477.114C360.232 478.962 363.084 479.777 365.289 481.75L364.853 482.75L363.75 483.032C360.571 482.283 358.147 479.871 355.765 477.766C352.371 478.499 349.119 479.994 346.009 481.508C350.738 485.709 356.491 488.504 361.553 492.25C361.089 493.534 361.146 493.667 360 494.369C354.95 491.412 346.92 487.686 343.543 482.858L343.257 482.424L331.78 485.645L345.063 495.672C347.683 497.535 352.852 500.162 354.54 502.75L353.958 503.75C353.556 503.825 353.157 504.021 352.75 503.974C351.309 503.806 346.971 500.307 345.611 499.365C339.727 495.289 333.796 491.068 327.517 487.625L317.87 491.517C320.062 494.422 324.025 496.221 327.048 498.126L337.465 505.098C342.373 508.342 346.987 511.06 350.552 515.862C346.132 515.137 340.714 510.829 337.074 508.306L321.801 498.075C319.193 496.291 316.798 494.155 314.053 492.595C310.698 493.562 306.98 494.452 304.466 497.027Z"/>
	<path fill="#FEFEFE" d="M285.727 433.008C289.817 438.129 292.811 443.521 293.895 450.057C296.214 464.046 289.263 480.276 284.426 493.061C274.518 519.245 262.367 545.608 246.567 568.82L245.023 569.661C242.848 569.675 241.352 569.197 239.614 567.922C239.284 566.129 240.092 563.779 240.48 562L244.155 547C247.557 534.279 250.343 520.841 254.913 508.5C259.274 496.722 265.634 485.423 270.538 473.826L285.727 433.008Z"/>
	<path fill="#FEFEFE" d="M120.142 471.413C128.169 473.08 135.702 475.715 143.56 477.954L213.165 499.937L235.25 507.245C238.813 508.414 242.423 509.269 245.813 510.915C245.368 514.071 244.162 517.149 243.364 520.237L236.557 545.335L218.086 538.541L176.273 523.708C146.635 512.713 116.455 500.564 85.3755 494.32L120.142 471.413Z"/>
	<path fill="#231F20" d="M115.955 484.25C116.394 484.126 116.51 484.069 117.029 484.067C120.847 484.053 128.944 485.65 131.811 488.179L131.837 490.25C130.918 491.844 130.971 491.863 129.25 492.484C125.914 492.481 122.772 491.671 119.492 491.2C117.919 490.974 115.894 491.074 114.425 490.518C113.446 490.147 113.432 489.902 113.081 489C113.658 486.587 114.233 486.093 115.955 484.25Z"/>
	<path fill="#231F20" d="M190.829 496.75C191.911 496.615 192.262 496.83 193.25 497.228C194.287 498.547 194.622 498.762 194.75 500.486C193.381 503.143 191.012 505.178 188.929 507.289C191.502 507.796 195.308 508.146 197.25 510.034C198.366 511.119 198.365 511.746 198.418 513.25L196.931 514.75C192.865 515.209 189.827 513.858 186.088 512.456L184.647 514.388C183.157 516.24 182.238 516.481 180 516.677C178.489 515.884 178.526 515.827 177.84 514.25C178.177 512.121 178.458 511.907 179.825 510.356C177.715 508.335 172.271 507.392 169.436 506.161C168.149 505.602 167.208 505.405 166.683 504.033C167.241 502.228 167.185 501.508 168.75 500.379C172.742 500.228 178.51 502.854 182.066 504.62L182.842 505.014C185.367 502.15 187.79 499.084 190.829 496.75Z"/>
	<path fill="#231F20" d="M520.811 127.662C522.897 127.486 524.935 127.479 527 127.882C542.786 130.971 549.961 155.947 554.701 169.149L566.1 203.685C567.628 208.461 568.851 215.348 571.739 219.401L630.966 177.516L652.161 163.733C658.263 159.855 663.631 156.714 668.829 151.587C674.936 154.445 681.735 155.516 688.253 157.158L708.952 162.461C710.234 162.749 712.316 163.53 713.519 163.472C715.663 163.368 744.041 145.14 747.324 142.648C749.799 140.77 751.383 138.092 754 136.438C754.686 136.381 755.318 136.325 756 136.468C760.4 137.388 764.999 139.34 769.37 140.58L791.482 146.563C794.37 147.374 797.624 147.82 800.27 149.25C801.475 150.875 801.683 152.228 801.597 154.25C801.476 157.104 799.676 158.808 797.625 160.66C795.775 162.329 793.534 163.557 791.5 164.984L779.392 173.835L743.634 200.963C737.283 205.688 729.916 210.004 723.989 215.137C723.208 215.812 722.986 227.595 722.854 229.562C722.647 232.653 722.493 235.506 720.917 238.267C718.884 241.83 715.119 243.846 711.951 246.243C706.736 250.191 701.379 254.015 696.458 258.32C698.82 258.681 701.761 258.184 704.168 258.03C712.38 257.507 720.758 256.456 728.816 254.784C732.432 254.034 736.026 252.218 739.75 252.37L740.56 253.5C740.54 254.531 740.729 255.506 740.134 256.384C739.221 257.734 737.188 258.586 735.722 259.25C728.8 262.384 720.516 264.281 713 265.206L701.162 266.133C694.293 266.993 686.895 266.505 679.956 266.517L637.75 265.996C626.485 265.548 615.682 264.148 604.362 264.367C601.693 264.419 598.427 264.09 595.895 265.01L595.288 265.25C593.482 265.947 591.756 266.66 590.299 267.976C589.378 268.808 587.625 270.665 587.768 271.964C588.276 276.572 590.959 285.213 594.796 287.928C597.562 289.884 601.993 290.64 605.228 291.48C628.577 297.543 652.404 298.725 676 303.022C687.784 305.168 699.943 308.136 711.125 312.472C723.202 317.156 734.942 324.182 744.654 332.735C750.326 337.731 755.636 343.354 761.877 347.644C764.3 349.31 766.776 350.892 769.586 351.827C771.931 352.608 775.138 352.748 777.158 354.156C778.31 354.959 778.275 355.197 778.534 356.5C777.904 357.675 777.578 358.19 776.25 358.598C774.574 359.114 772.547 358.943 770.819 358.822C762.68 358.25 757.84 354.433 751.068 350.499C751.55 352.677 752.004 354.936 752.795 357.025C753.737 359.511 754.91 361.544 755.105 364.25L754.25 365.209C753.237 365.491 752.527 365.893 751.493 365.551C750.176 365.116 749.403 363.989 748.615 362.919C746.199 359.635 744.878 355.763 744.25 351.755C743.925 349.68 743.932 345.194 742.822 343.557L742.241 342.907C735.441 334.814 725.653 328.748 716.295 324.04C712.54 322.152 708.839 320.23 704.814 318.978L707.298 370.021L709.028 388.953C709.504 392.398 709.973 396.161 711.696 399.236C721.497 416.726 795.136 441.146 815.5 448.508C830.131 453.797 844.873 459.74 859.849 463.909C861.14 457.197 862.394 450.273 864.28 443.705C872.902 413.679 888.078 384.946 902.35 357.294C904.04 354.255 907.127 346.563 910 344.902C910.875 344.884 911.393 344.989 912.138 345.47C916.921 348.555 943.575 369.212 944.858 372.584C946.773 377.62 910.43 460.095 905.857 469.905L894.869 492.729C894.1 494.386 892.581 496.546 892.12 498.25C891.952 498.87 892.223 500.164 892.347 500.778L892.509 501.5C891.675 503.068 890.958 503.375 889.5 504.339C885.674 503.721 880.538 496.96 877.154 494.514C870.923 490.009 863.95 486.393 857.558 482.093C857.33 478.913 858.074 475.47 858.506 472.303L827.247 461.688L781.943 444.975C762.701 437.764 742.046 430.544 724.458 419.785C722.38 418.513 720.518 416.941 718.492 415.597C715.303 413.483 712.037 412.266 709.216 409.552C705.627 406.098 702.743 401.85 701.393 397.003C699.556 390.408 699.774 382.859 699.331 376.048L696.884 316.547L664.456 309.369C658.055 312.645 652.077 318.941 646.51 323.578L626.341 339.075C626.56 340.274 629.342 342.982 630.169 344.159L636.187 353.592C641.949 363.236 646.74 373.635 650.849 384.081C657.001 399.721 661.675 415.677 661.527 432.617C661.401 447.072 657.574 461.88 651.047 474.746C649.815 477.175 648.335 480.407 646.25 482.221C645.126 483.2 644.423 483.062 643 482.975C642.466 482.553 642.052 482.192 641.774 481.551C641.354 480.58 641.103 479.226 641.655 478.25C642.456 476.835 644.102 475.392 645.098 474.03C647.557 470.664 649.344 466.583 650.915 462.742C662.299 434.91 655.109 404.805 643.736 378.294C641.518 373.125 625.334 340.949 622.523 340.93C621.943 340.926 620.296 341.792 619.701 342.018C615.465 343.624 610.932 345.69 606.443 343.771C605.589 343.406 605.056 342.912 604.067 343.26C603.179 343.572 601.738 344.888 600.922 345.461C597.365 347.953 593.254 351.715 589.326 353.381C585.48 355.012 580.829 355.579 576.735 356.431C557.578 360.419 539.611 368.4 521.121 374.536C510.496 378.062 499.23 380.436 488.32 382.898C478.207 385.179 469.355 385.879 460.336 380.038C455.87 377.146 453.182 372.969 450.89 368.271C441.357 348.729 436.204 327.531 429.177 307.043L419.704 280.851L412.479 257L402.069 223.471C399.613 215.106 396.198 206.928 394.529 198.346C392.981 190.387 394.083 177.939 398.833 171.27C401.389 167.681 406.094 164.13 410.156 162.4C414.638 160.49 419.74 159.497 424.405 158.05L455.822 148.082L500.204 133.174C507.09 131.05 513.655 128.752 520.811 127.662Z"/>
	<path fill="#FEFEFE" d="M640.936 306.75C645.252 306.506 650.479 307.617 654.805 308.119C643.012 317.894 631.936 328.095 618.478 335.595C616.269 336.44 614.193 337.66 611.75 337.594C609.458 337.533 608.928 336.535 607.369 335.013C607.372 334.152 607.411 333.45 607.665 332.62C607.968 331.625 608.958 328.29 609.637 327.687C610.587 326.843 612.645 326.066 613.806 325.416L622.078 320.327C628.411 316.055 634.333 310.478 640.936 306.75Z"/>
	<path fill="#FEFEFE" d="M669.954 159.886L707.17 168.364L684.48 182.874L654.743 203.839L610.164 236.844L595.056 248.022C591.594 250.548 588.109 253.288 584.25 255.181L583.159 254.25L578.382 241.189C580.607 241.07 583.008 241.061 585.161 240.456C587.439 239.816 588.752 239.103 589.88 237L589.383 236.25C588.231 235.942 587.311 235.851 586.435 235C588.939 232.819 592.29 230.983 593.841 228C593.312 226.758 593.098 226.855 592 226.18C587.309 226.562 580.535 233.185 576.503 235.851C574.91 233.554 574.15 229.497 573.281 226.771C579.462 223.58 584.301 219.179 589.958 215.25L627.843 188.253L669.954 159.886Z"/>
	<path fill="#231F20" d="M646.554 188.25C647.112 188.266 647.427 188.25 648 188.392C649.295 188.713 649.862 189.449 650.544 190.5C650.123 192.147 650.03 192.175 648.697 193.25C647.632 193.496 646.954 193.395 645.889 193.179C644.684 192.137 644.754 192.087 644.486 190.5C645.034 189.085 645.25 189.073 646.554 188.25Z"/>
	<path fill="#231F20" d="M663.745 179.75L665.5 179.354C665.836 179.596 666.329 179.916 666.569 180.25C667.394 181.403 667.153 182.008 666.849 183.25C665.578 184.821 664.649 185.485 662.75 186.175C661.522 186.307 661.344 186.087 660.25 185.615C659.316 184.103 659.436 184.035 659.673 182.25C660.869 180.821 662.028 180.405 663.745 179.75Z"/>
	<path fill="#231F20" d="M668.985 171.25C669.919 171.189 670.589 171.322 671.5 171.5C672.628 172.894 672.506 172.934 672.451 174.75C670.922 176.446 669.279 177.111 667.243 178.021L665 178.123L664.077 177.25C664.01 175.732 663.901 175.137 664.694 173.777C665.619 172.189 667.316 171.7 668.985 171.25Z"/>
	<path fill="#231F20" d="M651.533 175.25C652.252 175.066 653.01 175.115 653.75 175.096C655.249 176.442 655.499 176.914 655.762 178.876C656.164 181.876 657.144 185.532 655.25 188.045L653.25 188.455C652.11 187.876 651.644 187.51 651.227 186.25C650.168 183.043 649.894 178.253 651.533 175.25Z"/>
	<path fill="#FEFEFE" d="M531.159 137.75C531.882 137.691 531.892 137.557 532.447 137.902C534.722 139.315 536.691 143.846 537.955 146.279C549.618 168.736 556.106 194.201 563.748 218.207L574.002 248.951L583.892 281.2L594.672 309.423C596.254 313.783 598.022 318.17 598.856 322.75C599.612 326.902 597.894 330.509 595.495 333.825C593.331 336.816 590.831 337.92 587.25 338.458C584.928 338.005 584.185 337.837 582.659 335.857C579.688 332.004 577.997 326.026 576.353 321.514L558.299 263.853L536.905 198.139L530.836 179.087L525.33 164.619C523.439 159.986 519.171 152.241 519.69 147.172C519.767 146.417 519.78 146.026 519.662 145.296L519.526 144.5C519.996 143.894 520.267 143.566 520.385 142.782L520.429 142.25C523.06 140.173 527.864 138.378 531.159 137.75Z"/>
	<path fill="#FEFEFE" d="M756.381 144.963L792.488 154.353L683.758 232.911L661.859 247.098C662.332 243.728 663.155 240.416 663.538 237.03C664.218 231.018 664.301 224.805 664.554 218.762C664.738 214.361 665.197 209.946 664.587 205.561L664.479 204.829L756.381 144.963Z"/>
	<path fill="#231F20" d="M742.835 162.095L748.25 162.042C749.692 162.331 749.756 163.049 750.406 164.25C748.807 166.333 744.097 167.243 741.607 168.047C738.804 168.766 737.856 169.134 735.25 167.803L735.079 166.75C737.653 164.104 739.203 162.877 742.835 162.095Z"/>
	<path fill="#231F20" d="M697.606 196.25L699.5 196.031L700.75 197.034L700.928 198.75C698.734 202.457 691.587 204.851 687.75 206.44L686.5 206.558C685.106 205.93 684.952 205.286 684.176 204C684.827 202.584 686.509 202.087 687.855 201.328C691.081 199.508 694.213 197.749 697.606 196.25Z"/>
	<path fill="#231F20" d="M708.371 197.75C709.223 197.534 710.125 197.53 711 197.467C712.279 198.349 712.444 198.262 712.788 199.75C710.059 203.427 702.638 206.631 698.621 209.058C697.791 209.473 697.407 209.408 696.5 209.387C695.133 208.061 695.081 208.133 694.922 206.25C696.118 203.411 705.347 199.122 708.371 197.75Z"/>
	<path fill="#231F20" d="M757.955 155.75C758.752 155.608 759.336 155.713 760.132 155.816C763.493 158.198 759.403 160.648 760.75 163.156C762.635 162.324 763.924 161.821 766 161.855C767.201 162.685 767.26 162.594 767.579 164C764.435 167.826 757.195 170.916 752.748 173.35C750.676 174.422 748.808 175.373 746.5 175.866C745.294 175.156 745.173 174.987 744.507 173.75C745.438 170.074 750.05 170.105 751.916 167.776C752.382 167.195 752.787 165.184 753.062 164.415C754.056 161.633 755.473 157.517 757.955 155.75Z"/>
	<path fill="#FEFEFE" d="M514.397 135.25C515.328 135.133 515.282 134.993 516.145 135.5C515.333 138.128 514.086 140.226 513.732 143.009C513.312 146.317 513.691 149.796 514.639 152.985C516.502 159.256 519.376 165.26 521.68 171.38L533.691 206.371L555.597 274.701L571.982 326.779C573.814 331.739 576.346 337.266 579.75 341.356C582.176 344.27 584.806 344.456 588.33 344.839C583.13 347.532 576.885 349.413 571.291 351.158L549.703 357.909L522.117 367.838C516.335 369.802 510.531 371.045 504.65 372.623C495.042 375.202 486.159 377.518 476.205 378.434L471.408 377.865C466.53 376.892 461.186 373.546 458.457 369.375C453.451 361.722 450.745 353.1 448.024 344.469L438.559 314.036L425.453 276.835L408.973 224.26C406.351 215.514 402.877 206.901 400.981 197.961C400.052 193.581 399.895 188.277 400.886 183.903C401.447 181.431 401.939 178.801 403.04 176.5C404.667 173.097 407.567 170.502 410.878 168.784C414.95 166.67 419.908 166.13 424.272 164.756L456 154.531L475.907 147.576L514.397 135.25Z"/>
	<path fill="#231F20" d="M446.943 241.549L450 241.487C451.26 242.656 451.818 244.578 452.434 246.159L457.758 260.59C458.648 262.964 460.294 266.24 460.407 268.735C460.447 269.607 460.092 270.357 459.75 271.135C456.541 273.51 451.772 274.914 447.926 275.967L445.53 275.863C445.05 275.398 444.601 274.966 444.25 274.39C441.328 269.591 439.855 263.27 438.002 258C436.969 255.063 434.062 250.008 434.858 246.94C437.273 244.115 443.476 242.811 446.943 241.549Z"/>
	<path fill="#231F20" d="M573.449 476.073C577.165 475.893 580.689 477.126 583.489 479.562C588.495 483.917 591.416 491.704 594.935 497.326L609.928 520.5L653.13 586.25C658.041 593.498 663.818 600.221 668.296 607.764C670.26 611.071 670.584 614.034 670.887 617.768C671.969 613.459 673.547 610.288 676.065 606.639L677.162 606.664C682.69 606.966 686.272 608.555 689.918 612.752C699.629 623.931 704.752 640.186 709.031 654.115C724.83 705.552 730.403 759.186 726.053 812.806L728.5 812.503C739.782 810.555 750.995 807.466 761.817 803.757C762.513 803.518 765.629 802.711 766.036 802.28C766.057 802.258 765.933 800.145 765.917 799.813L764.8 779.39C764.481 776.104 763.556 773.075 765.576 770.25C767.196 770.05 767.241 770.038 768.646 770.861C769.804 773.04 769.456 775.92 769.618 778.341L770.48 800.828C778.798 797.145 787.281 793.768 795.284 789.42C823.498 774.094 850.643 749.757 864.667 720.489C873.395 702.274 877.112 681.268 870.225 661.859C868.766 657.747 866.944 653.834 864.47 650.236C864.319 650.016 863.342 648.519 863.231 648.471C863.064 648.399 860.349 649.086 859.989 649.161L847.947 651.49C839.698 653.21 828.424 656.15 820.521 652.122C817.636 650.652 814.433 648.136 813.592 644.875C812.671 641.304 813.443 638.522 815.535 635.5C817.994 631.949 822.684 629.249 826.898 628.452C829.525 627.955 832.058 627.482 834.745 627.71C846.918 628.746 857.462 633.839 865.35 643.155C871.973 642.577 878.265 641.916 884.935 642.332C893.419 642.862 903.406 646.188 909.045 652.805C911.195 655.328 912.761 658.108 912.47 661.5C911.331 662.804 911.257 663.192 909.5 663.516L908.25 662.635C907.304 659.3 906.169 656.559 903.467 654.25C894.353 646.462 879.883 646.945 868.733 647.623C875.388 659.309 878.827 669.809 878.776 683.429C878.744 692.017 876.709 700.728 873.971 708.837C867.049 729.341 854.839 747.027 839.511 762.171C818.709 781.718 796.871 795.196 770.362 805.668C770.682 811.211 770.076 816.682 769.76 822.201C768.671 841.222 765.593 861.239 759.865 879.428C758.557 880.566 758.564 880.786 756.75 880.794C755.92 880.076 754.977 879.487 754.947 878.25C754.91 876.735 755.842 874.531 756.304 873.064L759.388 862.834C763.23 847.52 765.342 831.568 765.873 815.778C765.959 813.226 766.478 809.708 765.862 807.268L725.672 817.593L724.75 823.416C726.705 824.835 729.365 825.27 730.989 827.116C736.938 833.881 737.04 855.329 736.323 864.191C736.028 867.845 734.043 870.096 731.312 872.402C718.387 883.311 701.585 890.385 685.548 895.17C661.762 902.267 637.59 905.769 612.752 903.484C608.115 903.057 601.689 901.968 598.608 898.25C596.669 893.032 596.673 886.656 595.758 881.142L594.07 871.338C593.812 869.785 593.252 867.908 593.717 866.363C594.642 863.292 599.953 861.428 602.706 860.02L592.253 800.742L587.634 777.073C587.002 773.895 586.805 770.578 585.857 767.482C581.925 771.412 577.581 776.748 572.149 778.42C568.769 779.46 564.493 778.148 561.5 776.518C557.377 774.272 553.173 769.688 550.536 765.832C540.048 750.494 530.986 733.72 521.75 717.596L489.546 662.621L453.516 601.615L442.913 584.319C440.437 580.396 437.135 576.414 435.94 571.855C434.647 566.922 436.454 561.968 439.071 557.787C440.245 555.913 442.075 554.323 443.891 553.076L470.5 536.487L519.5 506.928L547.06 490.341L562.134 481.352C565.885 479.179 569.192 477.096 573.449 476.073Z"/>
	<path fill="#FEFEFE" d="M650.229 589.528C654.25 593.996 657.513 599.742 660.949 604.704C662.445 606.865 665.279 610.109 665.964 612.612C666.363 614.07 664.883 616.008 664.187 617.313C663.583 618.209 663.967 617.818 663 618.454C660.699 616.032 659.163 611.636 657.84 608.59C655.111 602.306 652.359 596.044 650.229 589.528Z"/>
	<path fill="#FEFEFE" d="M567.775 676.75C568.766 676.486 569.359 676.355 570.37 676.567C571.571 681.011 571.462 685.719 572.154 690.256C573.134 696.676 574.634 703.044 575.362 709.5L574.5 710.099C570.711 710.612 568.557 710.31 565.11 708.625C562.348 706.815 559.714 704.317 558.25 701.326C556.079 696.889 555.402 691.763 557.228 687.076C559.127 682.201 563.018 678.681 567.775 676.75Z"/>
	<path fill="#FEFEFE" d="M831.009 633.111L831.797 633.013C842.913 631.922 851.564 637.513 859.558 644.412L845.525 647.012C839.592 648.07 832.793 649.583 826.81 648.536C823.62 647.978 820.553 646.588 818.648 643.912C818.447 642.164 818.339 641.011 819.428 639.479C822.261 635.493 826.449 634.04 831.009 633.111Z"/>
	<path fill="#FEFEFE" d="M585.594 492.733C592.212 500.307 597.014 509.989 602.504 518.44L628.915 558.836C630.093 560.676 634.211 565.691 634.25 567.483C631.809 566.451 628.673 566.171 626.03 566.522C623.784 566.822 621.151 568.603 619.963 570.5C615.513 577.604 618.085 589.196 619.621 596.915C617.554 593.144 615.415 587.936 611.731 585.512C609.699 584.175 606.424 583.743 604.085 584.235C600.18 585.056 595.573 590.542 593.547 593.89C588.059 602.961 587.701 617.015 590.244 627.151L591.31 631.689C589.244 630.226 587.236 628.973 584.661 628.696C582.417 628.454 579.76 629.096 578.002 630.563C573.484 634.329 571.666 645.829 570.894 651.5C570.254 656.207 570.177 661.026 570.242 665.776C570.252 666.522 570.637 671.021 570.383 671.41C570.381 671.412 568.193 671.869 568.019 671.907C563.993 672.804 560.709 674.32 557.937 677.505C553.587 682.501 551.786 687.853 552.247 694.449C552.669 700.48 555.799 706.878 560.475 710.75C565.656 715.04 570.233 715.113 576.572 714.55L582.655 748.066C579.579 750.261 576.112 752.115 572.865 754.057C570.512 755.464 566.986 757.755 564.25 758.074C562.502 758.278 561.974 757.769 560.637 756.725C558.354 753.813 556.575 750.385 554.622 747.232L543.888 729.701L507.162 667.563L467.744 600.827L460.464 588.271C459.28 586.248 457.462 583.808 456.849 581.547C455.803 577.694 455.878 572.289 458.094 568.88C459.271 567.069 461.954 565.698 463.75 564.558L475.29 557.288L556.602 507.365C563.784 503.269 570.902 498.356 578.288 494.722C580.484 493.642 583.199 493.229 585.594 492.733Z"/>
	<path fill="#231F20" d="M571.61 614.25L573.5 614.018C574.397 615.078 574.235 615.907 574.37 617.25C571.347 619.822 567.69 621.764 564.316 623.831L547.825 634.051L531.013 645.198C527.935 647.203 525.151 649.208 521.75 650.652C520.304 651.01 520.236 651.219 518.962 650.5L519.067 649.25C523.553 645.193 528.775 641.875 533.767 638.49L571.61 614.25Z"/>
	<path fill="#231F20" d="M565.672 595.75C566.381 595.574 567.024 595.616 567.75 595.62L568.473 597C567.741 598.402 566.026 599.039 564.69 599.792L555.179 605.432L524.866 623.925C520.413 626.482 516.13 629.258 511.379 631.25L509.5 631.609L508.611 630.963L508.349 629.25C509.535 626.782 517.849 623.572 520.484 621.989L534.751 612.84L551.956 603.051C556.516 600.488 560.852 597.813 565.672 595.75Z"/>
	<path fill="#231F20" d="M581.412 524.25L581.634 524.2C583.067 523.98 583.517 523.806 584.75 524.596L584.75 525.641C578.298 532.105 569.58 535.898 561.719 540.355L526.855 559.543L525.5 559.901L524.537 559.25L524.506 557.75C526.81 554.697 533.571 552.091 536.988 550.082L581.412 524.25Z"/>
	<path fill="#231F20" d="M593.081 542.75C593.686 542.758 593.942 542.964 594.462 543.25C594.438 544.379 594.619 545.342 593.879 546.288C592.819 547.643 590.081 548.748 588.593 549.681L563 564.973C556.125 569.137 549.592 573.785 542.475 577.554C541.214 578.221 540.381 578.603 538.964 578.75C538.172 578.45 537.926 578.28 537.367 577.597C536.708 576.791 536.957 576.706 537.089 575.75L593.081 542.75Z"/>
	<path fill="#231F20" d="M494.974 562.646C496.336 562.532 497.714 562.413 499.077 562.561C504.567 563.156 509.035 565.876 512.358 570.222C515.355 574.142 516.92 580.254 516.2 585.153L516.062 586C515.587 589.057 514.685 591.742 513.112 594.41C510.016 599.663 504.912 602.141 499.246 603.639C496.703 603.62 494.087 603.731 491.67 602.842L491 602.581L487.26 600.983C482.169 598.236 478.268 592.984 476.84 587.383C475.407 581.757 476.802 575.29 480.025 570.515C483.492 565.378 489.232 563.624 494.974 562.646Z"/>
	<path fill="#FEFEFE" d="M494.911 566.551C497.892 566.525 501.623 567.289 504.159 568.921C507.81 571.27 510.62 575.597 511.418 579.846C512.285 584.464 511.185 589.131 508.471 592.967C505.616 597.003 501.987 598.268 497.348 599.072C494.728 598.853 492.4 598.513 490 597.376C486.098 595.528 482.541 592.197 481.188 588.022C479.691 583.405 479.878 579.822 482.249 575.567C485.255 570.174 489.308 568.262 494.911 566.551Z"/>
	<path fill="#FEFEFE" d="M625.352 573.75C626.155 573.548 626.783 573.433 627.6 573.671C630.277 574.449 631.98 576.447 633.477 578.692C636.648 583.449 638.703 589.047 641.072 594.234L660.393 642.119L672.07 672.997C673.552 677.548 674.669 682.179 675.707 686.849C676.278 689.413 676.674 692.974 678.068 695.188C678.691 696.176 679.337 696.509 680.5 696.692C682.077 696.941 683.048 696.052 684.196 695.196C685.15 692.853 683.847 690.093 683.279 687.75L681.296 678.44C679.391 668.052 678.327 657.759 677.371 647.25C676.752 640.437 675.911 633.632 675.916 626.782C675.919 622.697 675.641 614.868 678.75 611.76C680.117 612.014 681.173 612.903 682.098 613.905C685.415 617.501 687.711 622.287 689.927 626.606C696.213 638.86 700.305 651.486 703.727 664.779C713.71 703.568 719.876 743.819 721.063 783.913C721.479 797.952 720.185 811.891 719.377 825.885L606.734 859.996C606.546 851.217 605.638 842.49 604.836 833.75C603.024 813.977 599.881 794.229 594.865 775.005L590.148 753.036L580.619 691.375C578.631 677.723 575.36 663.13 575.475 649.367C575.51 645.147 576.102 639.756 578.692 636.282C579.3 635.467 580.246 634.586 581.28 634.481C586.559 633.945 588.9 637.373 591.333 641.613C594.618 647.336 595.684 653.674 597.2 659.989L601.638 677L610.512 706.171C611.525 709.335 612.443 715.135 615.057 717.25C616.434 717.535 617.767 717.718 619.003 716.874C621.778 714.981 620.475 712.286 619.679 709.672L613.757 689.766L600.834 647.541C596.774 633.081 591.586 617.475 595.198 602.333C595.984 599.039 597.66 593.504 600.932 591.87C602.758 590.959 603.651 591.124 605.489 591.617C606.277 592.321 606.89 592.92 607.355 593.886C609.084 597.479 610.228 601.593 611.577 605.352L619.094 626.358L634.145 666.994L642.43 690.448C643.682 693.9 645.012 698.731 647.07 701.75C647.905 702.973 648.913 704.029 650.5 704.027C651.744 704.026 653.119 703.375 653.922 702.445C654.31 701.995 654.502 701.604 654.674 701.04C655.48 698.401 647.177 680.216 645.899 676.017C638.586 651.99 633.409 626.984 628.096 602.446C626.596 595.516 623.871 587.744 623.495 580.681C623.337 577.715 623.356 576.005 625.352 573.75Z"/>
</svg>
