<?xml version="1.0" encoding="UTF-8" standalone="no"?>
<!-- Created with Inkscape (http://www.inkscape.org/) -->

<svg
   width="300"
   height="40.210403"
   viewBox="0 0 126 23.88498"
   version="1.1"
   id="svg5"
   color='#fff'
   style='fill:#fff'
   inkscape:version="1.1 (c68e22c387, 2021-05-23)"
   sodipodi:docname="logo.svg"
   xmlns:inkscape="http://www.inkscape.org/namespaces/inkscape"
   xmlns:sodipodi="http://sodipodi.sourceforge.net/DTD/sodipodi-0.dtd"
   xmlns:xlink="http://www.w3.org/1999/xlink"
   xmlns="http://www.w3.org/2000/svg"
   xmlns:svg="http://www.w3.org/2000/svg">
  <sodipodi:namedview
     id="namedview7"
     pagecolor="#ffffff"
     bordercolor="#999999"
     borderopacity="1"
     inkscape:pageshadow="0"
     inkscape:pageopacity="0"
     inkscape:pagecheckerboard="0"
     inkscape:document-units="mm"
     showgrid="false"
     inkscape:zoom="1.2077384"
     inkscape:cx="219.41838"
     inkscape:cy="67.895499"
     inkscape:window-width="1916"
     inkscape:window-height="2054"
     inkscape:window-x="-8"
     inkscape:window-y="0"
     inkscape:window-maximized="0"
     inkscape:current-layer="g22946"
     showguides="true"
     inkscape:guide-bbox="true"
     units="px"
     width="400mm"
     lock-margins="true"
     fit-margin-top="0"
     fit-margin-left="0"
     fit-margin-right="0"
     fit-margin-bottom="0" />
  <defs
     id="defs2">
    <linearGradient
       id="linearGradient19537"
       inkscape:swatch="solid">
      <stop
         style="stop-color:#ffffff;stop-opacity:1;"
         offset="0"
         id="stop19535" />
    </linearGradient>
  </defs>
  <g
     inkscape:label="Calque 1"
     inkscape:groupmode="layer"
     id="layer1"
     transform="translate(-35.369236,-106.85751)">
    <g
       id="g22883"
       transform="translate(-13.788709,-353.13277)">
      <g
         aria-label="CashMaster"
         id="text2366"
         style="font-size:23.76px;line-height:1.25;stroke:#ffffff;stroke-width:0.298877;stroke-miterlimit:4;stroke-dasharray:none;stroke-opacity:1"
         transform="matrix(1.9874418,0,0,1.9874418,-77.341896,-1.8129173)">
        <path
           d="m 55.394947,65.741476 q -1.75824,0 -2.77992,1.49688 -1.02168,1.49688 -1.02168,4.0392 0,2.32848 0.92664,3.89664 0.92664,1.5444 2.80368,1.5444 0.99792,0 1.85328,-0.21384 0.85536,-0.2376 1.5444,-0.57024 l 1.3068,2.6136 q -0.92664,0.49896 -2.23344,0.78408 -1.3068,0.30888 -2.39976,0.30888 -3.82536,0 -5.63112,-2.39976 -1.80576,-2.39976 -1.80576,-5.94 0,-3.73032 1.94832,-6.10632 1.97208,-2.376 5.53608,-2.376 0.87912,0 2.1384,0.28512 1.28304,0.26136 2.30472,0.85536 l -1.0692,2.44728 q -1.11672,-0.3564 -1.782,-0.49896 -0.66528,-0.16632 -1.63944,-0.16632 z"
           style="font-weight:500;font-family:'Palanquin Dark';-inkscape-font-specification:'Palanquin Dark, Medium';stroke:#ffffff;stroke-width:0.298877;stroke-miterlimit:4;stroke-dasharray:none;stroke-opacity:1"
           id="path9454" />
        <path
           d="m 66.134425,76.789876 q 0.54648,0 1.11672,-0.2376 0.57024,-0.26136 1.09296,-0.73656 v -1.44936 h -1.99584 q -0.68904,0 -1.0692,0.40392 -0.38016,0.40392 -0.38016,0.9504 0,0.42768 0.3564,0.76032 0.3564,0.30888 0.87912,0.30888 z m 0.76032,-9.33768 q 2.16216,0 3.54024,1.23552 1.40184,1.23552 1.40184,3.18384 v 7.43688 h -1.71072 l -0.76032,-0.9504 q -0.594,0.52272 -1.47312,0.87912 -0.85536,0.3564 -1.75824,0.3564 -2.1384,0 -3.18384,-1.04544 -1.02168,-1.0692 -1.02168,-2.77992 0,-1.80576 1.21176,-2.7324 1.23552,-0.92664 3.2076,-0.92664 h 1.97208 q -0.04752,-0.73656 -0.52272,-1.16424 -0.45144,-0.42768 -1.21176,-0.42768 -0.73656,0 -1.63944,0.21384 -0.90288,0.21384 -1.56816,0.52272 l -0.92664,-2.75616 q 0.73656,-0.42768 2.11464,-0.73656 1.37808,-0.30888 2.32848,-0.30888 z"
           style="font-weight:500;font-family:'Palanquin Dark';-inkscape-font-specification:'Palanquin Dark, Medium';stroke:#ffffff;stroke-width:0.298877;stroke-miterlimit:4;stroke-dasharray:none;stroke-opacity:1"
           id="path9456" />
        <path
           d="m 100.0226,67.357156 q 2.376,0 3.37392,1.37808 1.02168,1.37808 1.02168,3.39768 v 7.17552 h -3.49272 v -7.05672 q 0,-0.9504 -0.49896,-1.44936 -0.475202,-0.52272 -1.354322,-0.52272 -0.594,0 -1.28304,0.30888 -0.66528,0.30888 -1.23552,0.68904 v 8.03088 h -3.46896 v -16.5132 l 3.46896,-0.26136 v 5.89248 q 0.73656,-0.49896 1.68696,-0.78408 0.97416,-0.28512 1.782002,-0.28512 z"
           style="font-weight:500;font-family:'Palanquin Dark';-inkscape-font-specification:'Palanquin Dark, Medium';stroke:#ffffff;stroke-width:0.298877;stroke-miterlimit:4;stroke-dasharray:none;stroke-opacity:1"
           id="path9460" />
        <path
           d="m 114.53995,74.508916 -3.46896,-4.37184 v 9.17136 h -3.46896 v -16.1568 h 2.28096 l 5.27472,7.03296 q 1.21176,-1.73448 2.39976,-3.49272 1.188,-1.782 2.39976,-3.54024 h 2.20968 v 16.1568 h -3.51648 v -8.81496 q -0.66528,0.9504 -1.37808,1.92456 -0.68904,0.9504 -1.37808,1.9008 -0.33264,0.02376 -0.68904,0.09504 -0.33264,0.07128 -0.66528,0.09504 z"
           style="font-weight:500;font-family:'Palanquin Dark';-inkscape-font-specification:'Palanquin Dark, Medium';stroke:#ffffff;stroke-width:0.298877;stroke-miterlimit:4;stroke-dasharray:none;stroke-opacity:1"
           id="path9462" />
        <path
           d="m 129.24739,76.789876 q 0.54648,0 1.11672,-0.2376 0.57024,-0.26136 1.09296,-0.73656 v -1.44936 h -1.99584 q -0.68904,0 -1.0692,0.40392 -0.38016,0.40392 -0.38016,0.9504 0,0.42768 0.3564,0.76032 0.3564,0.30888 0.87912,0.30888 z m 0.76032,-9.33768 q 2.16216,0 3.54024,1.23552 1.40184,1.23552 1.40184,3.18384 v 7.43688 h -1.71072 l -0.76032,-0.9504 q -0.594,0.52272 -1.47312,0.87912 -0.85536,0.3564 -1.75824,0.3564 -2.1384,0 -3.18384,-1.04544 -1.02168,-1.0692 -1.02168,-2.77992 0,-1.80576 1.21176,-2.7324 1.23552,-0.92664 3.2076,-0.92664 h 1.97208 q -0.0475,-0.73656 -0.52272,-1.16424 -0.45144,-0.42768 -1.21176,-0.42768 -0.73656,0 -1.63944,0.21384 -0.90288,0.21384 -1.56816,0.52272 l -0.92664,-2.75616 q 0.73656,-0.42768 2.11464,-0.73656 1.37808,-0.30888 2.32848,-0.30888 z"
           style="font-weight:500;font-family:'Palanquin Dark';-inkscape-font-specification:'Palanquin Dark, Medium';stroke:#ffffff;stroke-width:0.298877;stroke-miterlimit:4;stroke-dasharray:none;stroke-opacity:1"
           id="path9464" />
        <path
           d="m 142.17282,72.014116 q 1.44936,0.52272 2.70864,1.44936 1.25928,0.90288 1.25928,2.42352 0,1.73448 -1.21176,2.7324 -1.21176,0.97416 -3.58776,0.97416 -0.73656,0 -2.09088,-0.33264 -1.33056,-0.33264 -2.20968,-0.99792 l 1.02168,-2.47104 q 0.78408,0.38016 1.61568,0.61776 0.85536,0.2376 1.47312,0.2376 0.7128,0 1.0692,-0.19008 0.3564,-0.21384 0.3564,-0.49896 0,-0.38016 -0.38016,-0.66528 -0.3564,-0.30888 -1.16424,-0.57024 -1.40184,-0.45144 -2.66112,-1.3068 -1.25928,-0.85536 -1.25928,-2.35224 0,-1.71072 1.23552,-2.66112 1.25928,-0.9504 3.46896,-0.9504 0.7128,0 1.92456,0.30888 1.23552,0.30888 2.1384,0.97416 l -1.02168,2.47104 q -0.78408,-0.38016 -1.52064,-0.594 -0.73656,-0.2376 -1.47312,-0.2376 -0.57024,0 -0.85536,0.21384 -0.28512,0.19008 -0.28512,0.49896 0,0.2376 0.30888,0.45144 0.33264,0.19008 1.14048,0.4752 z"
           style="font-weight:500;font-family:'Palanquin Dark';-inkscape-font-specification:'Palanquin Dark, Medium';stroke:#ffffff;stroke-width:0.298877;stroke-miterlimit:4;stroke-dasharray:none;stroke-opacity:1"
           id="path9466" />
        <path
           d="m 153.57761,79.712356 q -2.1384,0 -3.54024,-1.09296 -1.37808,-1.09296 -1.37808,-3.2076 v -4.752 h -1.63944 v -2.70864 h 1.63944 v -2.8512 l 3.46896,-0.57024 v 3.42144 h 2.32848 l 0.76032,2.70864 h -3.0888 v 4.22928 q 0,0.8316 0.42768,1.37808 0.42768,0.52272 1.23552,0.52272 0.30888,0 0.66528,-0.09504 0.3564,-0.09504 0.7128,-0.26136 l 1.02168,2.47104 q -0.40392,0.33264 -1.188,0.57024 -0.78408,0.2376 -1.4256,0.2376 z"
           style="font-weight:500;font-family:'Palanquin Dark';-inkscape-font-specification:'Palanquin Dark, Medium';stroke:#ffffff;stroke-width:0.298877;stroke-miterlimit:4;stroke-dasharray:none;stroke-opacity:1"
           id="path9468" />
        <path
           d="m 163.27168,67.452196 q 2.70864,0 4.01544,1.782 1.3068,1.782 1.3068,4.22928 v 1.14048 h -7.50816 q 0.2376,0.97416 0.97416,1.52064 0.76032,0.54648 1.92456,0.54648 0.78408,0 1.44936,-0.16632 0.68904,-0.19008 1.47312,-0.57024 l 1.02168,2.47104 q -0.87912,0.66528 -2.1384,0.92664 -1.25928,0.26136 -1.99584,0.26136 -2.92248,0 -4.70448,-1.56816 -1.75824,-1.59192 -1.75824,-4.46688 0,-2.80368 1.63944,-4.44312 1.63944,-1.6632 4.30056,-1.6632 z m -0.095,2.89872 q -0.80784,0 -1.37808,0.52272 -0.57024,0.52272 -0.73656,1.47312 h 4.20552 q -0.16632,-0.90288 -0.68904,-1.44936 -0.52272,-0.54648 -1.40184,-0.54648 z"
           style="font-weight:500;font-family:'Palanquin Dark';-inkscape-font-specification:'Palanquin Dark, Medium';stroke:#ffffff;stroke-width:0.298877;stroke-miterlimit:4;stroke-dasharray:none;stroke-opacity:1"
           id="path9470" />
        <path
           d="m 177.38509,67.784836 0.7128,2.80368 q -0.80784,0 -1.80576,0.38016 -0.99792,0.38016 -1.9008,1.16424 v 7.17552 h -3.49272 v -11.49984 h 1.782 l 1.04544,1.52064 q 0.7128,-0.594 1.71072,-1.0692 0.99792,-0.4752 1.94832,-0.4752 z"
           style="font-weight:500;font-family:'Palanquin Dark';-inkscape-font-specification:'Palanquin Dark, Medium';stroke:#ffffff;stroke-width:0.298877;stroke-miterlimit:4;stroke-dasharray:none;stroke-opacity:1"
           id="path9472" />
      </g>
      <path
         id="rect3178"
         clip-path="none"
         style="fill:#37abc8;fill-opacity:1;stroke:#37abc8;stroke-width:0.594;stroke-linecap:round;stroke-linejoin:round;stroke-miterlimit:0;stroke-dasharray:none;stroke-opacity:1;paint-order:normal"
         d="m 74.762793,126.31389 c -1.64538,0 -2.97,1.32462 -2.97,2.97 v 23.76 c 0,1.64539 1.32462,2.97 2.97,2.97 h 23.759996 c 1.645381,0 2.970001,-1.32461 2.970001,-2.97 v -23.76 c 0,-1.64538 -1.32462,-2.97 -2.970001,-2.97 z m 10.593384,2.97 h 2.639352 v 2.77162 c 1.1,0.17599 2.00789,0.57841 2.72289,1.2054 0.715,0.627 1.23737,1.39164 1.56737,2.29363 l -2.44213,1.05574 c -0.264,-0.70399 -0.63787,-1.23277 -1.12187,-1.58477 -0.484,-0.35201 -1.144385,-0.52787 -1.980386,-0.52787 -0.968,0 -1.705255,0.2149 -2.211254,0.64388 -0.505993,0.42901 -0.758746,0.96302 -0.758746,1.60102 0,0.72601 0.330787,1.29787 0.990774,1.71587 0.659999,0.41801 1.80374,0.8571 3.431742,1.3191 1.518,0.44 2.66699,1.1394 3.44798,2.0964 0.78101,0.957 1.17176,2.06173 1.17176,3.31573 0,1.562 -0.46238,2.75 -1.38639,3.564 -0.92399,0.814 -2.06773,1.32065 -3.43174,1.51864 v 2.77161 h -2.639352 v -2.83774 c -1.165998,-0.26399 -2.172876,-0.77064 -3.019884,-1.51864 -0.846991,-0.748 -1.468374,-1.80322 -1.864376,-3.16723 l 2.44213,-0.99077 c 0.329991,1.05599 0.818609,1.85965 1.467602,2.40964 0.648998,0.55001 1.502143,0.82487 2.558144,0.82487 0.901996,0 1.666626,-0.20323 2.293626,-0.61024 0.627,-0.40699 0.93973,-1.04003 0.93973,-1.89801 0,-0.77002 -0.2411,-1.37973 -0.7251,-1.83073 -0.484,-0.45099 -1.60677,-0.96289 -3.366776,-1.53489 -1.891997,-0.594 -3.189471,-1.30388 -3.89348,-2.12888 -0.703991,-0.82501 -1.055746,-1.83073 -1.055746,-3.01873 0,-1.42999 0.461217,-2.54112 1.385226,-3.33313 0.923991,-0.792 1.870904,-1.24391 2.838904,-1.3539 z" />
    </g>
    <g
       aria-label="CashMaster"
       id="g21559"
       style="font-size:23.76px;line-height:1.25;stroke-width:0.594"
       transform="matrix(1.9874418,0,0,1.9874418,-82.752004,-306.25468)">
      <path
         d="m 55.394947,65.741476 q -1.75824,0 -2.77992,1.49688 -1.02168,1.49688 -1.02168,4.0392 0,2.32848 0.92664,3.89664 0.92664,1.5444 2.80368,1.5444 0.99792,0 1.85328,-0.21384 0.85536,-0.2376 1.5444,-0.57024 l 1.3068,2.6136 q -0.92664,0.49896 -2.23344,0.78408 -1.3068,0.30888 -2.39976,0.30888 -3.82536,0 -5.63112,-2.39976 -1.80576,-2.39976 -1.80576,-5.94 0,-3.73032 1.94832,-6.10632 1.97208,-2.376 5.53608,-2.376 0.87912,0 2.1384,0.28512 1.28304,0.26136 2.30472,0.85536 l -1.0692,2.44728 q -1.11672,-0.3564 -1.782,-0.49896 -0.66528,-0.16632 -1.63944,-0.16632 z"
         style="font-weight:500;font-family:'Palanquin Dark';-inkscape-font-specification:'Palanquin Dark, Medium'"
         id="path21541" />
      <path
         d="m 66.134425,76.789876 q 0.54648,0 1.11672,-0.2376 0.57024,-0.26136 1.09296,-0.73656 v -1.44936 h -1.99584 q -0.68904,0 -1.0692,0.40392 -0.38016,0.40392 -0.38016,0.9504 0,0.42768 0.3564,0.76032 0.3564,0.30888 0.87912,0.30888 z m 0.76032,-9.33768 q 2.16216,0 3.54024,1.23552 1.40184,1.23552 1.40184,3.18384 v 7.43688 h -1.71072 l -0.76032,-0.9504 q -0.594,0.52272 -1.47312,0.87912 -0.85536,0.3564 -1.75824,0.3564 -2.1384,0 -3.18384,-1.04544 -1.02168,-1.0692 -1.02168,-2.77992 0,-1.80576 1.21176,-2.7324 1.23552,-0.92664 3.2076,-0.92664 h 1.97208 q -0.04752,-0.73656 -0.52272,-1.16424 -0.45144,-0.42768 -1.21176,-0.42768 -0.73656,0 -1.63944,0.21384 -0.90288,0.21384 -1.56816,0.52272 l -0.92664,-2.75616 q 0.73656,-0.42768 2.11464,-0.73656 1.37808,-0.30888 2.32848,-0.30888 z"
         style="font-weight:500;font-family:'Palanquin Dark';-inkscape-font-specification:'Palanquin Dark, Medium'"
         id="path21543" />
      <path
         d="m 100.0226,67.357156 q 2.376,0 3.37392,1.37808 1.02168,1.37808 1.02168,3.39768 v 7.17552 h -3.49272 v -7.05672 q 0,-0.9504 -0.49896,-1.44936 -0.475202,-0.52272 -1.354322,-0.52272 -0.594,0 -1.28304,0.30888 -0.66528,0.30888 -1.23552,0.68904 v 8.03088 h -3.46896 v -16.5132 l 3.46896,-0.26136 v 5.89248 q 0.73656,-0.49896 1.68696,-0.78408 0.97416,-0.28512 1.782002,-0.28512 z"
         style="font-weight:500;font-family:'Palanquin Dark';-inkscape-font-specification:'Palanquin Dark, Medium'"
         id="path21545" />
      <path
         d="m 114.53995,74.508916 -3.46896,-4.37184 v 9.17136 h -3.46896 v -16.1568 h 2.28096 l 5.27472,7.03296 q 1.21176,-1.73448 2.39976,-3.49272 1.188,-1.782 2.39976,-3.54024 h 2.20968 v 16.1568 h -3.51648 v -8.81496 q -0.66528,0.9504 -1.37808,1.92456 -0.68904,0.9504 -1.37808,1.9008 -0.33264,0.02376 -0.68904,0.09504 -0.33264,0.07128 -0.66528,0.09504 z"
         style="font-weight:500;font-family:'Palanquin Dark';-inkscape-font-specification:'Palanquin Dark, Medium'"
         id="path21547" />
      <path
         d="m 129.24739,76.789876 q 0.54648,0 1.11672,-0.2376 0.57024,-0.26136 1.09296,-0.73656 v -1.44936 h -1.99584 q -0.68904,0 -1.0692,0.40392 -0.38016,0.40392 -0.38016,0.9504 0,0.42768 0.3564,0.76032 0.3564,0.30888 0.87912,0.30888 z m 0.76032,-9.33768 q 2.16216,0 3.54024,1.23552 1.40184,1.23552 1.40184,3.18384 v 7.43688 h -1.71072 l -0.76032,-0.9504 q -0.594,0.52272 -1.47312,0.87912 -0.85536,0.3564 -1.75824,0.3564 -2.1384,0 -3.18384,-1.04544 -1.02168,-1.0692 -1.02168,-2.77992 0,-1.80576 1.21176,-2.7324 1.23552,-0.92664 3.2076,-0.92664 h 1.97208 q -0.0475,-0.73656 -0.52272,-1.16424 -0.45144,-0.42768 -1.21176,-0.42768 -0.73656,0 -1.63944,0.21384 -0.90288,0.21384 -1.56816,0.52272 l -0.92664,-2.75616 q 0.73656,-0.42768 2.11464,-0.73656 1.37808,-0.30888 2.32848,-0.30888 z"
         style="font-weight:500;font-family:'Palanquin Dark';-inkscape-font-specification:'Palanquin Dark, Medium'"
         id="path21549" />
      <path
         d="m 142.17282,72.014116 q 1.44936,0.52272 2.70864,1.44936 1.25928,0.90288 1.25928,2.42352 0,1.73448 -1.21176,2.7324 -1.21176,0.97416 -3.58776,0.97416 -0.73656,0 -2.09088,-0.33264 -1.33056,-0.33264 -2.20968,-0.99792 l 1.02168,-2.47104 q 0.78408,0.38016 1.61568,0.61776 0.85536,0.2376 1.47312,0.2376 0.7128,0 1.0692,-0.19008 0.3564,-0.21384 0.3564,-0.49896 0,-0.38016 -0.38016,-0.66528 -0.3564,-0.30888 -1.16424,-0.57024 -1.40184,-0.45144 -2.66112,-1.3068 -1.25928,-0.85536 -1.25928,-2.35224 0,-1.71072 1.23552,-2.66112 1.25928,-0.9504 3.46896,-0.9504 0.7128,0 1.92456,0.30888 1.23552,0.30888 2.1384,0.97416 l -1.02168,2.47104 q -0.78408,-0.38016 -1.52064,-0.594 -0.73656,-0.2376 -1.47312,-0.2376 -0.57024,0 -0.85536,0.21384 -0.28512,0.19008 -0.28512,0.49896 0,0.2376 0.30888,0.45144 0.33264,0.19008 1.14048,0.4752 z"
         style="font-weight:500;font-family:'Palanquin Dark';-inkscape-font-specification:'Palanquin Dark, Medium'"
         id="path21551" />
      <path
         d="m 153.57761,79.712356 q -2.1384,0 -3.54024,-1.09296 -1.37808,-1.09296 -1.37808,-3.2076 v -4.752 h -1.63944 v -2.70864 h 1.63944 v -2.8512 l 3.46896,-0.57024 v 3.42144 h 2.32848 l 0.76032,2.70864 h -3.0888 v 4.22928 q 0,0.8316 0.42768,1.37808 0.42768,0.52272 1.23552,0.52272 0.30888,0 0.66528,-0.09504 0.3564,-0.09504 0.7128,-0.26136 l 1.02168,2.47104 q -0.40392,0.33264 -1.188,0.57024 -0.78408,0.2376 -1.4256,0.2376 z"
         style="font-weight:500;font-family:'Palanquin Dark';-inkscape-font-specification:'Palanquin Dark, Medium'"
         id="path21553" />
      <path
         d="m 163.27168,67.452196 q 2.70864,0 4.01544,1.782 1.3068,1.782 1.3068,4.22928 v 1.14048 h -7.50816 q 0.2376,0.97416 0.97416,1.52064 0.76032,0.54648 1.92456,0.54648 0.78408,0 1.44936,-0.16632 0.68904,-0.19008 1.47312,-0.57024 l 1.02168,2.47104 q -0.87912,0.66528 -2.1384,0.92664 -1.25928,0.26136 -1.99584,0.26136 -2.92248,0 -4.70448,-1.56816 -1.75824,-1.59192 -1.75824,-4.46688 0,-2.80368 1.63944,-4.44312 1.63944,-1.6632 4.30056,-1.6632 z m -0.095,2.89872 q -0.80784,0 -1.37808,0.52272 -0.57024,0.52272 -0.73656,1.47312 h 4.20552 q -0.16632,-0.90288 -0.68904,-1.44936 -0.52272,-0.54648 -1.40184,-0.54648 z"
         style="font-weight:500;font-family:'Palanquin Dark';-inkscape-font-specification:'Palanquin Dark, Medium'"
         id="path21555" />
      <path
         d="m 177.38509,67.784836 0.7128,2.80368 q -0.80784,0 -1.80576,0.38016 -0.99792,0.38016 -1.9008,1.16424 v 7.17552 h -3.49272 v -11.49984 h 1.782 l 1.04544,1.52064 q 0.7128,-0.594 1.71072,-1.0692 0.99792,-0.4752 1.94832,-0.4752 z"
         style="font-weight:500;font-family:'Palanquin Dark';-inkscape-font-specification:'Palanquin Dark, Medium'"
         id="path21557" />
    </g>
    <path
       id="path21561"
       clip-path="none"
       style="fill:#37abc8;fill-opacity:1;stroke:#ffffff;stroke-width:0.594;stroke-linecap:butt;stroke-linejoin:miter;stroke-miterlimit:0;stroke-dasharray:none;stroke-opacity:1;paint-order:normal"
       d="m 69.352681,-178.12787 c -1.64538,0 -2.97,1.32462 -2.97,2.97 v 23.76 c 0,1.64539 1.32462,2.97 2.97,2.97 h 23.759996 c 1.645381,0 2.970001,-1.32461 2.970001,-2.97 v -23.76 c 0,-1.64538 -1.32462,-2.97 -2.970001,-2.97 z m 10.593384,2.97 h 2.639352 v 2.77162 c 1.1,0.17599 2.00789,0.57841 2.72289,1.2054 0.715,0.627 1.23737,1.39164 1.56737,2.29363 l -2.44213,1.05574 c -0.264,-0.70399 -0.63787,-1.23277 -1.12187,-1.58477 -0.484,-0.35201 -1.144385,-0.52787 -1.980386,-0.52787 -0.968,0 -1.705255,0.2149 -2.211254,0.64388 -0.505993,0.42901 -0.758746,0.96302 -0.758746,1.60102 0,0.72601 0.330787,1.29787 0.990774,1.71587 0.659999,0.41801 1.80374,0.8571 3.431742,1.3191 1.518,0.44 2.66699,1.1394 3.44798,2.0964 0.78101,0.957 1.17176,2.06173 1.17176,3.31573 0,1.562 -0.46238,2.75 -1.38639,3.564 -0.92399,0.814 -2.06773,1.32065 -3.43174,1.51864 v 2.77161 h -2.639352 v -2.83774 c -1.165998,-0.26399 -2.172876,-0.77064 -3.019884,-1.51864 -0.846991,-0.748 -1.468374,-1.80322 -1.864376,-3.16723 l 2.44213,-0.99077 c 0.329991,1.05599 0.818609,1.85965 1.467602,2.40964 0.648998,0.55001 1.502143,0.82487 2.558144,0.82487 0.901996,0 1.666626,-0.20323 2.293626,-0.61024 0.627,-0.40699 0.93973,-1.04003 0.93973,-1.89801 0,-0.77002 -0.2411,-1.37973 -0.7251,-1.83073 -0.484,-0.45099 -1.60677,-0.96289 -3.366776,-1.53489 -1.891997,-0.594 -3.189471,-1.30388 -3.89348,-2.12888 -0.703991,-0.82501 -1.055746,-1.83073 -1.055746,-3.01873 0,-1.42999 0.461217,-2.54112 1.385226,-3.33313 0.923991,-0.792 1.870904,-1.24391 2.838904,-1.3539 z" />
    <g
       id="g22946">
      <g
         id="g22950"
         transform="matrix(0.68717051,0,0,0.68717051,22.920711,11.914625)">
        <use
           x="0"
           y="0"
           xlink:href="#text2366"
           id="use9825"
           transform="translate(-37.541182,16.015655)"
           width="100%"
           height="100%" />
        <use
           x="0"
           y="0"
           xlink:href="#rect3178"
           id="use9827"
           transform="translate(-37.541182,16.015655)"
           width="100%"
           height="100%" />
      </g>
    </g>
  </g>
</svg>
