<?xml version="1.0" encoding="utf-8" ?>
<svg xmlns="http://www.w3.org/2000/svg" xmlns:xlink="http://www.w3.org/1999/xlink" width="1024" height="1024">
	<path fill="#FEFEFE" d="M-0 -0L1024 0L1024 1024L-0 1024L0 -0Z"/>
	<path fill="#231F20" d="M753.956 601.75C754.441 601.811 754.81 602.024 755.25 602.226C755.547 609.304 758.344 612.885 764.955 615.467C766.56 616.093 768.156 616.462 769.371 617.75C766.848 620.708 762.205 620.074 759.546 623.24C757.617 625.539 756.858 628.693 755.25 631.239L754.096 631.25C751.099 627.934 752.67 622.758 748.464 619.626C745.653 617.533 741.388 617.716 738.25 615.402C738.182 615.018 737.954 614.629 738.046 614.25C738.525 612.293 749.71 609.59 751.684 606.938C752.598 605.71 753.218 603.241 753.956 601.75Z"/>
	<path fill="#FEFEFE" d="M754.319 607.937L754.927 609.25C756.728 613.34 759.705 615.455 763.182 618.055C760.677 619.074 757.771 620.01 756.101 622.276L755.801 622.75L755.25 622.15C752.622 617.67 750.155 616.159 745.515 614.272C749.216 612.689 751.615 610.841 754.319 607.937Z"/>
	<path fill="#231F20" d="M824.258 186.574C833.094 185.685 837.397 188.421 843.269 194.78C844.949 196.6 846.647 198.745 848.679 200.173C857.206 206.16 867.75 203.892 876.333 199.388C878.823 198.081 881.455 195.856 884.25 195.451L885.238 196.25C885.364 196.839 885.672 197.331 885.302 197.859C884.317 199.265 882.451 200.36 880.994 201.248C875.689 204.484 870.327 206.267 864.239 207.385C858.517 208.166 851.509 207.226 846.745 203.767C844.437 202.091 842.361 199.637 840.371 197.593C838.398 195.567 836.422 193.224 833.92 191.839C828.197 188.671 820.903 191.272 815.953 194.873C813.201 196.875 810.584 199.395 807.203 200.237C806.073 200.518 806.089 200.543 805.118 199.966L805.15 198.642C811.566 194.043 816.709 189.343 824.258 186.574Z"/>
	<path fill="#231F20" d="M487.77 499.544C490.244 499.321 492.824 499.356 495.264 499.85C497.154 500.233 498.508 501.067 499.508 502.75C500.426 504.297 500.675 506.43 500.068 508.13C498.021 513.869 486.321 515.451 481.33 517.943L480.667 518.277C477.605 520.455 475.415 522.757 473.072 525.659C473.644 519.494 474.6 513.873 477.319 508.233C479.579 503.545 483.015 501.227 487.77 499.544Z"/>
	<path fill="#231F20" d="M320.691 464.551C322.978 464.462 325.515 464.177 327.518 465.551C334.609 470.418 333.966 480.535 335.599 488.067L338.879 500.997C337.337 499.37 336.468 497.643 335.501 495.65L332.105 487.41C329.181 481.843 323.918 482.72 318.75 481.034C315.837 480.083 314.004 478.71 312.585 476C312.479 474.321 312.263 472.479 312.903 470.884C314.345 467.296 317.274 465.856 320.691 464.551Z"/>
	<path fill="#231F20" d="M281.218 531.592L286.588 531.469C288.856 531.474 290.745 531.269 292.472 533L292.25 533.702C290.051 534.41 287.488 534.885 285.476 535.992C277.745 540.246 278.49 551.021 270.25 554.623C268.451 555.096 266.026 554.801 264.275 554.197C260.794 552.995 259.437 549.67 258.005 546.605C258.65 545.057 259.305 543.497 260.199 542.073C264.403 535.372 274.054 533.337 281.218 531.592Z"/>
	<path fill="#231F20" d="M453.522 460.507C455.404 460.432 457.388 460.267 459.201 460.875C460.997 461.478 463.324 463.231 463.953 465.076C464.901 467.857 463.014 471.605 461.431 473.813C457.088 479.873 452.761 484.385 451.331 492.046C450.556 496.198 450.182 500.051 448.735 504.054C448.103 505.554 447.399 506.395 446.25 507.537L445.488 506.75C445.07 500.367 448.902 495.203 449.043 488.95C449.201 481.987 443.373 476.644 445.907 468.938C447.279 464.763 449.704 462.501 453.522 460.507Z"/>
	<path fill="#231F20" d="M620.429 156.904C622.191 164.745 623.775 169.665 630.86 174.228C632.791 175.472 634.726 176.481 636.23 178.25C636.352 178.989 636.729 179.831 636.289 180.502C635.319 181.977 632.546 182.785 631.049 183.836C629.473 184.942 628.023 186.479 626.809 187.972C622.293 193.522 622.924 200.165 620.424 206.38L619.786 206.145L619.91 204.597C619.495 199.483 617.338 192.161 614.338 188C612.935 186.053 611.143 183.595 609.16 182.23C606.32 180.274 601.873 179.991 598.544 179.422C601.599 178.629 605.525 178.054 608.252 176.481C615.459 172.322 618.392 164.472 620.429 156.904Z"/>
	<path fill="#FEFEFE" d="M620.621 164.641C623.635 170.469 624.278 174.757 630.038 178.747L630.636 179.155C625.285 181.983 622.973 185.214 620.85 190.772C618.638 185.62 616.337 181.645 611.068 179.232L610.42 178.948C612.171 177.553 614.347 176.43 615.872 174.783C618.314 172.146 619.498 168.001 620.621 164.641Z"/>
	<path fill="#231F20" d="M730.908 528.511C732.493 528.479 732.972 528.261 734.285 529.215C734.322 529.643 734.556 530.1 734.397 530.5C733.904 531.745 718.027 541.134 715.523 542.94C688.821 562.2 665.531 586.009 646.844 613.13C642.472 619.476 638.75 626.145 634.75 632.719C634.189 633.432 634.016 633.554 633.25 633.954L631.777 632.75L632.532 630.25C635.33 622.826 639.664 615.995 643.911 609.348C658.587 586.374 677.884 565.663 699.25 548.804C709.093 541.037 719.278 533.411 730.908 528.511Z"/>
	<path fill="#231F20" d="M729.145 411.553C730.434 411.548 731.384 411.324 732.511 412C732.08 413.974 721.141 417.764 718.798 418.759C681.906 434.419 650.454 458.071 622.273 486.285C613.62 494.948 604.585 504.367 597.497 514.366C596.76 515.305 596.775 515.664 595.572 515.948C595.606 514.505 596.262 513.504 596.93 512.263C603.214 500.601 612.284 490.415 621.379 480.885C650.996 449.849 687.76 424.001 729.145 411.553Z"/>
	<path fill="#231F20" d="M756.472 419.75L757.233 419.566C760.01 420.76 759.157 432.774 759.571 436.082C759.94 439.029 761.775 443.788 763.504 446.25C767.473 451.901 772.008 450.391 777.5 452.458C778.955 453.006 778.942 453.397 779.446 454.75C779.258 455.294 779.062 456.303 778.755 456.75C777.14 459.102 769.91 460.807 767.175 462.308C761.671 465.33 761.525 472.823 760 478.25L759.37 478.729C756.596 477.85 755.38 470.818 753.948 468.25C752.695 466.005 750.891 463.891 748.915 462.24C747.112 460.734 743.012 458.344 740.61 458.664C739.685 458.788 739.372 458.783 738.49 458.517L738.195 457.75C738.715 455.157 742.674 452.752 744.461 450.728C746.345 448.595 748.149 446.178 749.547 443.699C751.6 440.058 753.147 434.722 753.914 430.624C754.569 427.127 754.67 422.831 756.472 419.75Z"/>
	<path fill="#FEFEFE" d="M755.375 440.468L757.318 445.503C758.382 448.751 759.694 450.087 762.125 452.374C764.24 454.364 766.401 455.193 769.062 456.223L765.931 457.343C761.537 458.741 759.679 461.963 757.751 465.804C754.106 460.755 750.379 457.536 744.097 456.454L743.52 456.363C749.192 451.568 752.376 447.228 755.375 440.468Z"/>
	<path fill="#231F20" d="M678.242 495.25L679.75 495.105C680.103 496.295 679.822 496.63 679.005 497.5C674.353 502.454 667.548 506.119 662.049 510.167C654.64 515.62 647.544 521.645 640.883 527.99C617.6 550.168 596.995 574.916 583.077 604.078C579.316 611.959 576.842 620.352 573.166 628.205L572.906 628.75L571.987 629.627L571.362 629.25C571.389 620.576 575.258 611.647 578.62 603.748C582.931 593.619 588.015 583.616 594.149 574.454C608.126 553.58 626.061 534.428 644.914 517.895C654.725 509.291 666.049 500.167 678.242 495.25Z"/>
	<path fill="#231F20" d="M156.436 421.75L157.478 421.586C158.73 422.444 158.469 422.662 158.546 424.098C158.766 428.194 159.297 432.415 159.324 436.5C159.353 441.131 158.266 447.459 160.197 451.805C162.862 457.803 169.533 460.739 174.425 464.616C175.639 465.579 176.344 466.985 177.869 467.474L178.75 467.676C180.218 468.15 180.822 468.684 181.491 470C180.463 471.713 175.757 472.852 173.843 473.657C171.905 474.471 170.716 476.08 169.41 477.662C166.031 481.759 163.712 485.961 161.847 490.934C161.222 492.603 161.116 494.334 160.45 495.996L159.5 496.363C159.056 496.14 158.73 496.01 158.351 495.65C157.114 494.478 156.6 491.979 156.081 490.367C155.512 487.213 155.285 482.852 153.731 480.075L153.39 479.5L151.33 476.25C150.043 474.601 147.781 471.94 145.853 471.17C140.488 469.029 132.915 473.113 127.151 472.338L126.008 470.75L126.25 469.818C131.665 467.243 138.443 468.569 143.893 466.164C146.039 465.217 147.979 463.043 149.519 461.309C157.652 452.148 155.583 440.234 155.79 428.877C155.832 426.529 155.578 423.963 156.436 421.75Z"/>
	<path fill="#FEFEFE" d="M157.708 454.715C161.245 461.627 167.876 464.308 174.284 468.012C168.321 470.673 164.925 474.426 161.066 479.571L159.159 482.591C156.239 475.755 155.155 471.889 148.406 467.903L147.57 467.414C151.845 463.127 154.694 460.087 157.708 454.715Z"/>
	<path fill="#231F20" d="M387.371 366.75L388.112 366.824C389.169 368.136 389.262 370.653 389.544 372.29C390.718 379.103 390.962 387.017 395.03 392.843C398.884 398.361 403.802 401.282 409.5 404.473C410.966 405.294 412.779 406.73 414.451 406.922C415.26 407.015 415.799 407.157 416.557 407.442L416.863 408.25C415.578 410.033 413.12 411.042 411 411.516C408.277 412.125 405.933 413.297 403.476 414.614C394.306 419.531 393.034 428.619 390.289 437.66C386.929 431.248 384.363 424.459 380.36 418.375C375.149 410.454 369.997 407.721 360.75 405.876L360.5 405C361.773 404.084 361.976 404.216 363.571 404.257C367.232 401.844 371.919 401.285 375.693 398.774C378.679 396.787 381.947 393.989 383.677 390.771C387.31 384.014 385.859 374.226 387.371 366.75Z"/>
	<path fill="#FEFEFE" d="M388.319 392.075C389.613 394.954 391.954 399.339 394.505 401.25C397.566 403.541 400.844 404.998 403.857 407.558C401.001 408.659 398.162 409.646 395.784 411.647C390.873 415.78 389.916 420.173 389.317 426.25L388.879 426.159L387.936 423.537C386.996 421.181 385.821 418.806 384.421 416.689C380.145 410.225 376.237 407.192 368.595 405.683C376.989 402.982 382.81 398.961 388.319 392.075Z"/>
	<path fill="#231F20" d="M902.741 618.75L903.75 618.8C903.984 619.116 904.328 619.376 904.451 619.75C904.853 620.981 904.38 624.122 904.364 625.524C904.297 631.399 904.125 637.514 904.523 643.373C904.658 645.349 905.287 647.345 905.894 649.224C908.065 655.939 913.337 664.554 920.29 667.225C923.463 668.444 927.214 668.421 930.25 669.964L930.627 671.25C928.265 673.92 923.244 672.937 919.932 673.399C915.749 673.982 910.898 675.857 907.922 678.92C904.804 682.128 903.062 686.392 902.028 690.68C901.312 693.649 901.206 702.244 899 703.984C897.794 703.256 897.491 701.278 897.037 699.928C895.288 692.935 893.828 680.642 888.613 675.392C881.685 668.418 872.362 671.664 863.687 671.665C870.419 668.118 878.4 668.493 884.917 664.421C891.426 660.354 897.375 651.823 899.132 644.432C900.428 638.975 900.453 632.706 900.861 627.105C901.063 624.336 900.856 620.806 902.741 618.75Z"/>
	<path fill="#FEFEFE" d="M900.807 649.08C901.956 651.109 902.651 653.471 903.736 655.567C906.815 661.515 910.995 665.699 916.253 669.779L913.75 670.542L910.503 671.632C903.633 674.662 900.818 680.466 898.444 687.119C897.169 683.877 896.615 680.186 894.936 677.13C892.465 672.633 888.671 670.077 883.864 668.692L883.148 668.492C885.17 667.195 887.339 666.151 889.219 664.641C894.623 660.299 897.642 655.123 900.807 649.08Z"/>
	<path fill="#231F20" d="M126.934 192.958L126.874 183L127.75 182.304L128.885 182.75C129.579 186.092 130.088 192.378 129.413 195.691C129.492 203.438 129.533 209.485 127.252 216.992C131.807 220.759 136.439 224.648 140.612 228.839C141.422 229.653 144.53 233.436 145.138 233.598C146.52 233.965 150.064 233.258 151.615 233.135C156.471 232.752 161.869 232.527 166.626 233.701L151.841 237.403C150.061 237.849 147.918 239.01 146.118 238.573C145.012 238.305 144.454 238.341 143.458 238.856C135.336 243.062 130.44 253.848 129.314 262.511C128.814 266.362 129.073 270.537 127.947 274.25C126.743 274.515 127.252 274.617 126.202 274.038C125.365 273.576 124.368 272.667 124.02 271.75C123.611 270.673 123.665 268.449 123.548 267.25C123.117 262.812 123.071 257.912 121.733 253.655C120.642 250.183 118.511 247.388 115.537 245.319C111.628 242.602 107.264 241.25 102.491 241.572C100.247 241.722 95.0276 243.121 93.25 242.151L92.9612 240.75C93.1578 240.417 93.2452 239.987 93.5512 239.75C93.7999 239.557 95.2803 239.322 95.609 239.238C97.8064 238.683 99.9942 238.146 102.125 237.362C106.244 235.847 109.63 233.814 113.057 231.089C120.156 225.445 125.126 217.184 126.238 208.093C126.848 203.105 126.364 197.99 126.934 192.958Z"/>
	<path fill="#FEFEFE" d="M125.85 220.664L140.139 234.37C132.13 238.431 129.78 245.467 125.75 252.719L125.026 251.25L123.912 249.333C119.946 243.026 114.491 240.293 107.515 238.636C115.478 234.142 120.892 228.233 125.85 220.664Z"/>
	<path fill="#231F20" d="M798.624 720.25L799.654 720.314C800.819 721.93 800.525 723.994 800.553 725.905C800.635 731.42 800.134 737.005 800.484 742.5C800.669 745.421 801.216 748.808 802.004 751.625L802.538 753.696C803.269 757.323 804.818 760.164 807.134 763.049C814.135 771.765 822.6 770.96 832.528 772.534C835.367 772.984 837.428 773.252 839.603 775.25L839.325 776.318C831.321 777.902 824.304 775.195 816.497 778.762C808.875 782.244 802.979 789.246 800.146 797.069L799.84 797.946C798.872 800.668 798.646 802.875 798.561 805.765C798.493 808.107 798.922 810.951 797.404 812.874C795.659 812.997 795.586 812.653 794.25 811.618L793.657 809.215C794.315 800.2 796.799 786.377 790.911 778.783C781.848 767.096 763.516 775.973 751.5 774.75L750.868 773.75L751.25 772.913C754.715 770.662 758.641 770.404 762.64 769.976C768.933 769.304 775.42 768.778 781.75 768.979L782.655 769.011C784.741 767.133 787.296 765.118 789.04 762.919C794.56 755.958 796.069 746.54 796.368 737.924C796.51 733.817 796.273 729.626 796.835 725.551L796.954 724.75C797.219 722.818 797.247 721.708 798.624 720.25Z"/>
	<path fill="#FEFEFE" d="M798.148 752.927L799.813 757.606C803.355 766.163 810.348 770.567 818.526 774.049L815.25 775.509C809.524 778.008 805.154 781.986 801.317 786.879L800.875 787.448L798.057 792.396L797.494 784.75C797.424 784.197 797.376 783.657 797.211 783.121C795.179 776.525 790.924 773.433 785.136 770.27C791.757 765.414 794.874 760.387 798.148 752.927Z"/>
	<path fill="#231F20" d="M461.532 179.641C463.148 179.401 464.863 179.488 466.5 179.474C468.725 181.442 468.284 191.915 468.603 195.178C473.629 196.299 477.028 198.727 480.36 202.63C481.558 204.034 482.337 205.613 481.983 207.5C481.641 209.326 480.132 210.533 478.75 211.598L470 210.572L469.102 211.25C468.825 215.034 469.49 218.76 469.892 222.513L471.227 236.115L479.328 237.9C489.209 240.708 497.819 248.988 502.761 257.796C507.081 265.496 509.43 277.697 506.778 286.31L504.121 294.047C499.596 305.114 489.873 311.682 479.272 316.188L479.642 317.992C480.744 323.234 480.744 328.5 480.417 333.832C477.953 334.518 473.756 335.496 471.287 334.715C468.697 331.559 469.048 322.546 468.722 318.341C466.704 317.937 464.369 318.301 462.303 318.324C459.029 318.361 455.718 318.106 452.448 317.924L441.722 315.954C436.117 314.596 426.751 311.458 423.68 306.367C423.627 305.745 423.431 305.118 423.52 304.5C423.769 302.769 426.26 300.079 427.296 298.683C430.196 294.771 432.909 290.718 436.015 286.963C445.633 293.585 455.387 296.807 467.109 296.342L462.654 256.506C462.591 256.108 461.939 252.912 461.731 252.779C461.259 252.478 458.985 252.25 458.344 252.123L450.13 250.318C445.246 248.997 440.074 246.063 435.982 243.115C431.531 239.908 428.138 234.628 427.274 229.191C426.079 221.669 429.184 214.123 433.528 208.15C439.151 200.419 448.154 195.624 457.48 194.23C457.444 191.747 457.295 189.218 457.014 186.75C456.808 184.938 456.049 182.668 456.75 180.954C458.187 180.073 459.897 179.932 461.532 179.641Z"/>
	<path fill="#FEFEFE" d="M458.312 213.25L459.193 213.709L461.493 234.546C459.4 234.764 456.912 234.061 454.821 233.723C453.758 233.056 452.594 232.381 451.755 231.436C450.152 229.629 450.152 226.566 450.521 224.25C451.347 219.077 454.413 216.248 458.312 213.25Z"/>
	<path fill="#FEFEFE" d="M473.323 255.03L474.489 255.577C480.34 258.494 482.849 262.542 484.733 268.629C486.965 275.838 485.716 282.561 482.123 289.066C480.658 291.179 478.834 292.797 476.95 294.519L473.323 255.03Z"/>
	<path fill="#231F20" d="M908.536 327.75L910.004 327.541C910.569 327.922 910.708 327.982 911.25 328.543C915.209 332.648 918.323 339.592 920.729 344.676C932.667 369.909 939.758 398.488 940.346 426.384C940.459 431.768 940.741 437.421 940.143 442.778L939.503 447.75C937.417 459.63 932.945 472.136 926.759 482.469C924.035 487.02 920.657 491.135 917.518 495.396C909.455 506.343 900.344 516.142 889.115 523.912C880.727 529.717 870.801 533.034 861.115 535.99C852.29 538.683 842.216 541.433 832.958 541.415C825.445 541.399 817.516 540.003 810.155 538.621C806.958 537.928 803.664 537.233 800.417 536.846C797.802 536.535 790.993 536.793 789.067 535.402C788.311 534.857 788.491 534.615 788.356 533.75C789.025 532.648 789.183 532.335 790.441 531.826C794.362 530.238 799.381 529.691 803.531 528.39C814.721 524.885 825.667 520.807 836.352 515.962C854.439 507.762 868.785 496.012 882.156 481.436C893.259 469.334 903.489 454.838 910.031 439.714C913.343 432.058 915.574 424.299 917.66 416.25C919.622 408.682 921.436 400.629 921.546 392.786C921.699 381.956 919.234 370.195 917.023 359.592L912.806 343.161C911.571 339.077 908.524 332.837 908.514 328.702L908.536 327.75Z"/>
	<path fill="#FEFEFE" d="M913.879 473.75C915.404 473.75 915.33 473.717 916.451 474.75C915.04 479.687 910.445 484.828 907.332 488.808C904.413 492.54 901.89 496.667 898.805 500.25C891.227 509.052 879.248 513.989 869.23 519.578C868.452 519.886 868.933 519.753 867.75 519.811C875.084 514.723 882.68 510.617 889.667 504.875C893.445 501.77 896.369 497.423 899.364 493.586C904.488 487.023 909.345 480.742 913.879 473.75Z"/>
	<path fill="#FEFEFE" d="M921.028 438.25C921.465 438.222 922.065 438.41 922.5 438.496L923.007 439.75C922.49 443.173 920.938 446.433 919.644 449.625C915.391 460.116 909.524 469.717 902.646 478.658C900.164 481.885 897.513 485.633 894.25 488.085L893.219 488.409L892.463 488C892.449 483.644 898.487 478.255 901.115 474.934C907.032 467.454 911.588 459.371 915.431 450.673C917.205 446.656 918.499 441.81 921.028 438.25Z"/>
	<path fill="#231F20" d="M524.261 344.656C528.574 345.602 532.206 347.54 536.242 349.235L555.057 356.581C570.908 361.949 587.696 364.769 603.036 371.644C609.516 374.548 615.81 378.21 622.124 381.471C624.733 382.818 628.805 384.242 630.959 386.155C631.672 386.788 631.918 387.327 632.25 388.196C631.371 391.36 633.24 395.784 634.119 398.864L638.759 415.102C639.931 418.942 641.685 422.772 642.238 426.75L641.4 427.75C640.035 428.149 639.278 428.086 637.934 427.78L637.5 427.676L622.437 439.068C599.564 456.232 582.612 480.989 568.336 505.363C560.331 519.029 552.457 533.428 547.248 548.429C542.733 561.429 540.516 574.491 538.609 588.063C536.661 598.601 536.099 610.868 532.043 620.79L531.811 620.338C531.299 618.756 531.415 616.099 531.337 614.404C530.956 606.111 532.104 597.672 533.325 589.483C534.954 578.557 536.099 567.885 538.795 557.129C547.444 522.62 568.247 493.438 589.088 465.368L510.5 444.444C508.813 444.071 508.558 443.977 507.616 442.5C507.041 420.414 509.404 399.391 515.016 378L524.261 344.656Z"/>
	<path fill="#FEFEFE" d="M527.864 350.189L627.485 389.785C627.144 400.987 631.136 414.228 635.978 424.178L624.425 430.466C622.618 426.805 621.866 422.724 621.015 418.754C620.611 416.866 620.538 413.852 619.25 412.412C617.88 412.685 617.915 412.88 617.038 414C617.672 421.006 618.956 426.349 621.433 432.951L616.823 436.997C608.554 444.078 599.378 452.161 592.946 460.964L592.485 461.601C587.137 459.556 581.813 458.734 576.25 457.527L557.836 452.813L528.956 444.239L518.5 441.533C516.626 441.113 513.787 441.073 512.25 439.914C512.34 431.659 511.907 423.418 512.512 415.141C514.145 392.8 521.552 371.476 527.864 350.189Z"/>
	<path fill="#231F20" d="M519.376 420.75L520.313 420.58C522.296 420.269 523.814 421.082 525.331 422.279C526.794 423.434 527.233 424.444 527.471 426.25C526.815 427.652 526.876 427.97 525.5 428.617L521.5 426.787L520.543 427.5C520.492 429.351 521.088 430.685 522.289 432.103C525.846 436.303 527.514 432.271 531.5 432.591C533.062 433.573 533.427 434.048 534.139 435.75C533.765 437.195 530.882 441.245 529.653 442.305C527.902 440.705 527.75 440.565 527.289 438.25C522.381 437.234 519.511 434.304 516.474 430.539C515.553 429.396 515.359 429.401 515.567 427.95C516.052 424.577 516.632 422.782 519.376 420.75Z"/>
	<path fill="#231F20" d="M532.962 359.627C534.427 359.439 536.026 359.18 537.5 359.417C539.637 359.761 541.524 361.39 542.629 363.185C543.761 365.024 543.958 368.021 543.32 370.059C542.677 372.11 541.055 373.304 539.245 374.25C537.884 374.553 536.496 374.652 535.105 374.486C533.159 374.255 531.076 373.05 529.908 371.467C528.576 369.661 528.238 367.27 528.708 365.102C529.31 362.332 530.647 361.117 532.962 359.627Z"/>
	<path fill="#231F20" d="M608.28 385.25C609.376 384.919 610.281 384.686 611.436 384.798C615.337 385.175 620.2 388.318 622.645 391.372C623.718 392.712 624.349 394.834 623.897 396.536C623.429 398.297 622.228 399.185 620.75 400.02C619.575 400.394 618.486 400.506 617.25 400.45C613.832 400.296 609.842 397.923 607.736 395.304C606.22 393.42 605.037 391.256 605.5 388.75C605.84 386.905 606.917 386.323 608.28 385.25Z"/>
	<path fill="#231F20" d="M568.403 389.25C570.15 388.893 573.222 388.537 574.681 389.434L574.84 392.25C576.512 394.123 584.388 395.279 587.192 396.055L585.516 402.155C581.845 401.213 578.327 400.78 574.552 400.483L575.072 412.235L583.25 416.619C585.974 418.352 587.666 421.501 588.25 424.61C590.51 436.651 576.239 436.205 575.602 438C574.988 439.726 575.908 440.413 574.654 442.25L573.874 442.624C572.379 443.293 570.291 443.331 568.767 442.75C567.983 440.936 568.016 438.846 567.875 436.895C563.785 435.868 559.923 435.195 556.085 433.358C556.511 431.04 557.433 428.84 558.239 426.632C561.683 428.443 563.766 429.436 567.75 429.597L568.364 428.75L568.334 421.679C568.332 421.085 568.498 419.32 568.322 418.847C568.304 418.798 567.187 418.181 567.144 418.159C564.378 416.715 560.16 415.637 558.074 413.276C555.726 410.618 555.04 407.364 555.407 403.898C555.736 400.787 559.376 397.028 562.11 395.654C564.057 394.676 566.051 394.291 567.75 392.834C567.767 391.481 568.01 390.525 568.403 389.25Z"/>
	<path fill="#FEFEFE" d="M566.118 402.25L567.506 401.91L568.091 402.75C568.072 404.796 568.6 408.682 567.477 410.289L565.806 409.75C565.392 409.541 564.841 409.289 564.5 408.983C563.348 407.949 563.287 407.182 563.042 405.75C563.868 403.984 564.492 403.312 566.118 402.25Z"/>
	<path fill="#FEFEFE" d="M575.629 420.177L577.396 421.568C579.139 422.98 580.922 424.379 581.02 426.811C581.074 428.158 580.613 428.189 579.75 429.119L579.024 429.562C577.974 430.084 577.153 430.219 576.085 429.75L575.629 420.177Z"/>
	<path fill="#231F20" d="M299.376 220.25C299.92 220.192 300.314 220.374 300.83 220.531C300.505 222.069 299.535 222.969 298.533 224.118L298.041 224.675C301.572 227.43 305.469 229.675 309.071 232.344C322.371 242.201 334.573 252.643 345.25 265.355C349.56 270.486 353.42 275.957 356.936 281.655C358.353 283.951 359.835 286.307 360.988 288.75C361.641 290.134 362.017 292.117 363.316 293.022C363.952 293.464 364.209 293.64 364.668 294.25C364.416 294.795 364.374 294.931 363.992 295.5C361.977 298.499 359.155 301.332 356.794 304.103C347.095 315.487 336.015 325.855 325.332 336.32L307.552 355.105L286.061 376.952L270.113 395.095L262.211 405.135C260.901 406.837 259.565 409.019 257.731 410.179C257.207 410.51 256.703 410.72 256.097 410.843C254.677 411.13 254.413 410.753 253.25 410.024C251.012 407.238 247.956 405.311 245.25 403.029L231.618 390.762C220.513 380.355 211.535 368.351 201.593 356.929C195.684 350.139 188.187 343.759 183.728 335.906C184.965 329.671 189.872 326.038 194.115 321.838L208.606 307.606C212.062 304.036 215.164 300.031 218.456 296.295L238.494 274.675C250.31 262.64 263.17 252.201 275.661 240.946C283.417 233.958 290.744 226.099 299.376 220.25Z"/>
	<path fill="#FEFEFE" d="M257.733 298.75L258.738 298.585C261.059 300.216 263.377 301.481 265.925 302.72L259.361 306.997L253.912 310.078C254.742 305.869 255.122 302.317 257.733 298.75Z"/>
	<path fill="#FEFEFE" d="M288.603 305.501C290.004 305.402 290.261 305.191 291.373 306.009C291.505 307.038 291.623 308.109 291.406 309.136C290.987 311.128 289.03 314.065 287.25 315.107L285.338 313.956L279.841 309.003L288.603 305.501Z"/>
	<path fill="#FEFEFE" d="M295.903 227.349C303.081 232.623 310.115 237.893 316.794 243.798L324.484 251.245C329.172 255.497 334.027 259.666 338.353 264.296C340.96 267.086 343.155 270.229 345.61 273.148C350.863 279.391 356.303 286.045 359.908 293.395C348.097 298.072 339.06 305.645 329.75 314.049C321.146 321.816 313.367 329.709 305.537 338.244C302.149 334.193 298.557 330.194 294.469 326.84L293.676 326.196C295.429 324.76 296.825 323.21 298.292 321.495C299.886 319.287 301.35 316.728 302.119 314.104C303.253 310.231 302.005 306.176 300.085 302.773C298.263 299.542 294.411 295.521 290.75 294.579C283.151 292.622 276.316 296.621 270.035 300.319C268.82 299.077 267.659 297.794 266.071 297.032C264.339 296.202 262.78 295.184 261.165 294.15L267.892 286.332C268.793 285.264 270.162 283.96 270.595 282.636C270.914 281.66 270.451 281.365 270 280.498C269.583 280.38 269.179 280.089 268.75 280.145C268.025 280.238 266.057 281.621 265.25 282.031C261.745 283.813 256.114 286.553 252.121 286.532C251.347 286.528 249.825 285.742 249 285.468C246.278 284.565 243.597 283.655 240.765 283.159L240.228 283.07L295.903 227.349Z"/>
	<path fill="#231F20" d="M295.753 238.598C297.749 238.761 299.825 239.025 301.488 240.25C303.871 242.006 304.575 243.967 305.004 246.75C303.837 250.86 300.724 252.495 297.268 254.435C295.858 254.959 294.865 254.932 293.508 254.262C291.713 253.377 289.97 251.469 289.35 249.555C288.499 246.926 289.224 243.912 290.623 241.607C291.945 239.428 293.416 239.12 295.753 238.598Z"/>
	<path fill="#231F20" d="M340.027 279.75C341.651 279.462 343.026 279.366 344.562 280.077C346.126 280.801 347.235 282.357 347.75 283.973C348.638 286.762 348.425 288.031 347.023 290.514C344.929 294.224 342.909 296.357 338.738 297.516L336 297.019C334.134 296.433 332.72 295.123 331.847 293.411C330.55 290.863 330.805 289.479 331.772 286.836C332.958 283.595 337.101 281.159 340.027 279.75Z"/>
	<path fill="#FEFEFE" d="M237.599 286.634C241.415 289.538 245.212 292.665 249.664 294.524L250.395 294.823C249.952 296.38 249.096 297.719 248.597 299.25C247.004 304.145 246.4 311.395 248.128 316.25C248.738 317.962 250.213 320.697 252.047 321.364C253.06 321.732 253.955 321.833 255 321.605C257.656 321.027 260.257 319.618 262.711 318.464L275.116 312.695L284.011 320.63L275.684 328.135C274.067 329.544 272.336 330.489 271.055 332.25L271.545 333.25C274.715 334.076 280.249 334.055 283.314 332.823L284 332.525C286.779 331.379 288.793 329.923 291.122 328.076C294.895 332.55 298.852 336.36 303.283 340.177L265.593 380.844L249.701 400.12L231.704 378.07C227.711 373.573 223.111 369.49 218.872 365.211L205.848 351.696C201.154 347.103 195.248 344.18 190.605 339.488C189.48 338.35 188.388 337.558 187.97 336C189.024 333.368 191.326 331.694 193.356 329.803C196.35 327.016 199.316 324.031 202.507 321.472C204.893 319.56 207.606 318.055 209.977 316.121C214.772 312.207 219.559 307.595 223.98 303.256C229.007 298.324 233.381 292.274 237.599 286.634Z"/>
	<path fill="#231F20" d="M208.607 320.589C210.121 320.315 211.727 320.086 213.25 320.474C214.728 320.851 215.828 321.944 216.574 323.25C217.448 324.782 217.97 327.859 217.426 329.543C216.118 333.598 214.035 335.392 210.509 337.444C209.778 337.551 208.994 337.705 208.25 337.585C206.221 337.256 203.687 335.026 202.615 333.338C201.511 331.599 202.005 328.614 202.506 326.75C203.266 323.921 206.246 321.972 208.607 320.589Z"/>
	<path fill="#231F20" d="M251.136 369.073C252.255 368.981 253.453 368.838 254.57 368.985C256.183 369.197 257.696 370.247 258.658 371.533C259.618 372.816 260.172 375.476 259.807 377.052C258.853 381.177 256.234 383.642 252.984 386.065C251.353 386.515 250.203 386.53 248.526 386.358C247.144 385.38 245.594 384.339 244.856 382.75C243.904 380.698 244.319 376.739 245.03 374.6C245.992 371.707 248.647 370.439 251.136 369.073Z"/>
	<path fill="#231F20" d="M761.97 177.968C763.223 177.869 764.02 177.85 765.151 178.467C766.966 179.456 768.111 181.071 768.685 183.039C770.009 187.575 767.14 191.886 765.313 195.838L760.528 206.134C762.488 204.109 764.645 202.094 766.422 199.913C767.24 198.909 767.729 197.532 768.752 196.719C772.523 193.72 780.842 194.228 785.331 194.965C791.179 195.925 798.627 198.871 801.766 204.207C804.238 208.407 803.471 211.937 802.268 216.336C811.823 215.683 822.828 214.937 832.031 218.254C836.442 219.844 842.345 222.889 844.365 227.327L844.644 227.966C844.925 228.596 845.213 229.208 845.35 229.892C846.064 233.446 844.956 237.358 843.191 240.39L842.855 240.958L843 241.488L846.25 241.532C852.813 244.978 858.434 250.564 863.955 255.461L887.308 276.534L896.548 284.907C897.725 286.009 899.313 287.17 900.035 288.63C900.402 289.372 900.116 289.67 899.895 290.4C898.572 291.21 898.033 291.745 896.369 291.588C893.199 291.29 889.494 289.49 886.359 288.651C880.556 287.099 874.986 286.315 869.016 285.746C869.826 286.986 870.92 288.14 871.871 289.282L864.335 336.371L863.026 349.343C862.802 351.908 862.791 354.526 861.75 356.911C861.132 357.325 860.644 357.563 859.901 357.676C853.044 358.717 849.51 363.389 844.458 367.596C841.088 370.403 837.319 373.122 833.475 375.25C824.536 380.197 815.329 382.233 805.387 384.077C778.069 386.918 750.764 387.271 723.863 380.946C718.986 379.799 714.13 379.077 709.573 376.85C705.888 375.05 702.502 375.344 698.5 375.307L686.282 375.138C684.409 375.099 681.679 375.391 680 374.525C677.019 372.987 676.08 368.421 675.047 365.5L669.917 351C669.459 349.84 668.436 346.849 667.61 346.003C667.069 345.448 664.437 344.665 663.618 344.327L643.696 336.543L643.718 331C644.382 315.955 647.056 300.134 650.081 285.373C650.706 282.323 650.942 276.809 653.183 274.75C656.056 274.523 659.725 275.979 662.533 276.682L682.454 281.402C682.743 258.293 685.684 235.3 694.734 213.873C695.448 212.183 696.202 210.355 697.63 209.141C700.49 206.71 704.257 205.04 707.536 203.206C718.564 197.038 729.939 192.107 741.5 187.03L761.97 177.968Z"/>
	<path fill="#FEFEFE" d="M687.848 309.073C691.393 312.001 694.672 314.915 697.796 318.299C695.938 317.539 693.733 316.385 691.735 316.183L689.609 315.961L688.75 315.859C688.397 314.983 688.26 314.368 688.302 313.433L688.352 312.535L687.25 311.385L686.25 312.416C686.076 313.604 685.947 314.458 686.28 315.63L686.543 316.5C683.437 318.665 677.116 319.669 673.335 320.794L665.888 323.673C664.26 324.382 662.697 325.518 660.928 325.25L660.45 324.25C661.584 322.179 666.035 320.261 668.094 319.084C674.686 315.316 680.525 311.359 687.848 309.073Z"/>
	<path fill="#FEFEFE" d="M712.232 330.754C714.192 331.782 716.654 332.949 717.988 334.741C712.421 341.294 707.955 348.851 703.517 356.203C702.932 356.79 702.463 357.068 701.75 357.472C700.521 356.454 699.881 354.834 699.599 353.25C699.262 351.36 700.248 349.222 701.081 347.567C704.047 341.681 708.036 335.827 712.232 330.754Z"/>
	<path fill="#FEFEFE" d="M858.242 349.25L859.133 349.523L858.512 353.25C856.241 355.258 850.025 356.038 846.897 355.828C845.003 355.701 843.521 356.22 841.663 356.308C836.973 356.529 830.433 356.963 825.845 355.991C824.98 355.807 824.441 355.539 823.545 355.792C822.56 356.069 821.756 355.896 820.75 355.782C819.861 355.664 820.324 355.806 819.396 355.25C819.434 353.791 819.168 351.714 820 350.547L821.416 351.447C824.041 352.687 833.148 353.117 835.931 352.08C840.142 350.512 846.32 350.554 850.845 350.346C853.241 350.236 856.221 350.64 858.242 349.25Z"/>
	<path fill="#FEFEFE" d="M815.35 221.73C824.672 222.107 834.564 222.049 841.45 229.172C841.525 231.174 842.1 234.977 841.181 236.724L840.621 237.5L839.496 239.317C836.44 243.522 833.168 244.589 828.213 245.391C831.917 242.08 835.801 239.784 838.954 235.847C839.942 234.022 840.437 232.895 840.003 230.75C839.764 229.566 837.92 228.657 836.944 228.138C832.007 225.508 827.183 225.439 821.73 225.431C812.985 225.419 804.084 226.303 795.643 228.703L796.427 227.589C797.085 226.753 799.589 223.685 800.443 223.362C801.52 222.954 803.564 222.961 804.75 222.828L815.35 221.73Z"/>
	<path fill="#FEFEFE" d="M769.557 199.696C773.514 199.287 777.918 199.914 781.837 200.606C787.803 201.659 793.599 202.985 797.174 208.34C798.439 210.235 798.864 212.693 798.377 214.925C797.699 218.031 795.479 220.816 793.593 223.295C789.44 228.754 784.91 233.544 780.027 238.357C777.983 240.373 775.739 243.11 773.337 244.663C772.37 245.288 770.093 244.49 768.907 244.25L768.179 243.484C769.161 241.876 770.526 240.824 771.924 239.588C778.024 234.196 783.479 228.388 788.772 222.215C790.961 219.663 793.739 216.805 795.162 213.751C795.679 212.642 795.762 211.449 795.836 210.25C793.495 203.049 780.03 202.752 773.624 201.91C771.838 201.675 768.887 201.643 767.599 200.25L769.557 199.696Z"/>
	<path fill="#FEFEFE" d="M649.957 332.013L648.583 331.25C646.536 326.717 652.276 297.216 653.479 290.138C653.909 287.608 654.036 284.708 654.639 282.25C655.039 280.618 655.36 279.494 656.75 278.583C658.571 278.81 659.517 279.426 661.018 280.472L661.563 280.859C664.576 280.809 680.435 283.684 682.479 285.5L681.75 286.451L677.564 286.639L666.59 283.476C665.098 283.033 663.067 282.161 661.507 282.491C660.814 282.638 660.103 283.056 659.75 283.722C659.366 284.447 659.404 286.572 659.272 287.533L657.224 310.25C657.071 313.81 657.842 319.827 656.028 322.75C656.211 328.059 660.468 331.807 662.199 336.608C658.741 335.41 652.136 334.826 649.957 332.013Z"/>
	<path fill="#231F20" d="M649.957 332.013C649.224 328.93 653.377 322.951 654.026 319.25L654.338 317.75L654.813 317.589L655.168 318.377C655.611 319.338 655.382 318.99 655.88 319.609C655.586 320.994 654.909 321.23 654.54 322.25C654.33 322.83 654.897 325.629 655.2 326.221L656.534 328L656.734 331.75C654.464 333.177 652.454 332.446 649.957 332.013Z"/>
	<path fill="#FEFEFE" d="M761.617 182.532L764.987 185.508C763.293 191.351 760.949 196.677 758.569 202.253C755.508 209.421 752.798 215.795 748.478 222.308C748.846 219.208 750.16 216.192 750.781 213.113C751.432 209.888 751.566 206.59 752.253 203.348C753.285 198.474 755.092 193.783 756.66 189.061L729.61 200.006C727.558 200.885 725.289 201.771 723.461 203.052C721.328 204.548 720.078 207.227 717.5 207.629C715.363 209.666 714.852 213.32 714.089 216.099L702.809 210.557C721.231 199.024 741.908 191.52 761.617 182.532Z"/>
	<path fill="#FEFEFE" d="M840.511 244.75C841.736 244.527 842.84 245.197 844 245.604C845.492 246.127 846.942 246.614 848.267 247.497C855.641 252.416 862.418 259.639 869.075 265.603C874.02 270.032 879.029 274.114 883.708 278.859C885.273 280.447 887.43 281.991 887.85 284.25L887.172 284.388C884.813 284.306 882.147 282.864 879.71 282.566C876.52 282.177 873.212 282.163 870 281.895C869.166 281.825 867.26 281.865 866.6 281.524C865.814 281.117 864.869 280.106 864.254 279.463C860.486 275.521 841.353 251.275 840.435 247.25C840.288 246.607 840.49 245.444 840.511 244.75Z"/>
	<path fill="#FEFEFE" d="M699.923 320.674L706.67 325.742C704.232 327.509 702.416 329.534 700.731 332.016C696.952 337.583 689.934 349.728 691.335 356.527L691.497 357.25C692.195 360.55 694.413 362.923 696.879 365.111C697.3 365.484 697.639 365.988 698.153 366.215C698.952 366.566 700.854 366.572 701.766 366.675C706.349 367.192 711.244 367.685 715.852 367.398C723.26 366.936 730.253 365.562 737.5 364.072C745.436 362.44 755.667 361.052 761.268 354.571L761.638 354.133C765.673 355.053 770.128 355.664 773.994 357.111L774.112 357.75L771.476 358.983C754.748 366.644 736.167 370.173 717.903 371.516C714.363 371.777 710.803 372.402 707.253 372.419C700.478 372.452 693.752 370.988 686.952 371.386C686.161 371.433 685.665 370.908 685 370.503C684.171 370.9 683.986 370.927 683 370.96L682.044 369.75C682.215 364.474 683.932 359.034 685.453 354C689.067 342.039 693.805 331.543 699.923 320.674Z"/>
	<path fill="#231F20" d="M687.188 358.75L688.289 358.706L691.997 363.535C693.051 364.999 693.56 365.815 693.25 367.617L691.75 368.099L691.344 368.184C689.41 368.409 687.542 366.554 685.953 365.498C685.636 363.193 686.07 360.787 687.188 358.75Z"/>
	<path fill="#FEFEFE" d="M835.646 248.75L836.883 248.625C842.955 259.233 850.622 270.173 858.489 279.52C860.923 282.412 863.701 284.933 866.197 287.75C866.664 288.276 867.961 289.741 868.061 290.36C868.281 291.719 867.485 294.798 867.296 296.246L864.793 313.751C863.507 320.56 861.717 327.277 860.702 334.148C860.023 338.746 859.853 343.595 859.661 348.235C854.973 346.628 850.421 346.302 845.792 344.16C842.322 342.28 838.771 340.41 835.675 337.944C829.926 333.368 825.352 327.484 820.713 321.837C820.691 319.354 820.521 316.735 820.947 314.285L827.325 253.25L816.25 252.278C818.662 251.019 822.904 251.716 825.662 251.25C829.046 250.678 832.377 249.786 835.646 248.75Z"/>
	<path fill="#231F20" d="M843.315 293.75C843.794 293.677 844.738 293.461 845.25 293.562C846.393 293.788 847.007 294.138 847.527 295.175C848.117 296.351 848.227 298.318 847.756 299.55L847.458 300.25L848.212 301.25C848.265 302.036 848.354 302.599 848.558 303.376C849.377 303.368 850.102 303.309 850.917 303.18L851.75 303.038L852.75 304.22C852.954 305.069 853.068 305.638 852.88 306.511C852.387 308.806 850.333 314.841 848.25 315.974C847.079 316.611 846.432 316.746 845.19 316.323L845.956 314.25L845.25 313.488C844.324 314.328 844.337 314.504 844.051 315.75C843.728 317.161 843.237 318.485 842.75 319.846C842.099 320.641 841.794 321.011 840.75 321.225C839.515 321.479 838.568 321.214 837.619 320.5C837.707 319.694 838.109 317.749 837.882 317.048C837.441 315.683 832.978 313.354 831.969 311.624C831.4 310.648 831.567 310.396 831.91 309.425C832.355 309.204 833.306 308.563 833.75 308.51C835.482 308.304 837.098 309.105 838.835 308.373C838.863 306.5 838.014 306.113 836.794 304.75C837.117 303.625 837.427 302.587 838.047 301.584L840.019 298C840.992 296.092 841.558 295.031 843.315 293.75Z"/>
	<path fill="#FEFEFE" d="M699.479 213.215C707.917 217.299 715.729 222.919 724 227.433L745.361 237.766C749.698 239.924 753.301 243.257 757.716 245.197C778.087 254.15 801.315 254.606 823.17 256.619C821.281 264.45 819.783 272.547 818.694 280.525C817.606 288.492 817.806 296.535 817.312 304.532L815.857 327.416C815.772 330.029 815.356 332.993 815.766 335.556C816.613 340.847 816.294 346.838 816.307 352.218C816.311 353.859 816.691 356.509 815.75 357.899L811.458 357.878L795.25 356.754C781.181 355.188 768.798 351.35 755.548 346.56C748.336 343.953 740.942 341.753 734 338.457C716.89 330.332 699.341 316.282 687.553 301.492C687.489 297.371 686.796 293.341 686.739 289.261C686.379 263.338 688.643 237.088 699.479 213.215Z"/>
	<path fill="#231F20" d="M709.03 289.25L709.831 289.257C711.331 290.954 713.278 292.392 714.555 294.25C714.293 295.572 714.223 296.292 713.25 297.295C712.785 297.275 712.72 297.303 712.219 297.102C709.561 296.031 708.525 292.681 707.679 290.25L709.03 289.25Z"/>
	<path fill="#231F20" d="M708.155 228.75C709.459 228.231 710.43 228.245 711.75 228.641L721.182 236.808C721.995 237.483 724.556 239.37 724.957 240.25C725.19 240.761 725.152 241.357 725.25 241.91C724.55 242.302 724.037 242.287 723.25 242.359C718.497 240.368 710.869 233.241 708.155 228.75Z"/>
	<path fill="#231F20" d="M804.007 265.587L805.374 265.57C806.987 265.645 809.1 265.972 809.969 267.5C810.699 268.785 810.376 269.503 809.937 270.75L809 271.01C806.807 270.408 804.535 269.799 802.25 269.829C800.989 270.505 800.825 270.442 800.308 271.75L801.75 273.413C802.194 274.398 802.157 274.437 801.909 275.498C800.429 276.589 800.354 276.534 798.5 276.492C797.341 275.894 796.17 275.106 795.8 273.75C795.397 272.27 795.681 271.032 796.503 269.75C798.249 267.026 801.064 266.287 804.007 265.587Z"/>
	<path fill="#231F20" d="M800.311 280.25C801.407 280.061 802.291 279.943 803.387 280.224C804.94 280.623 806.158 281.611 806.871 283.052C807.648 284.622 807.612 286.426 807.052 288.056C806.378 290.016 805.596 290.982 803.75 291.923C802.405 292.004 800.815 292.217 799.498 291.895C798.492 291.649 797.732 290.988 797.288 290.065C796.445 288.313 796.174 285.611 796.829 283.768C797.489 281.912 798.627 281.116 800.311 280.25Z"/>
	<path fill="#231F20" d="M717.462 266.511C713.17 262.975 709.212 259.675 705.311 255.687C704.747 254.371 705.049 253.075 705.209 251.698L706.5 251.444C710.017 252.603 709.898 255.692 712.136 258.069C714.462 260.54 717.325 261.694 719.439 264.57C720.987 267.191 721.857 269.441 722.805 272.337C723.465 274.357 723.762 275.874 722.726 277.825C722.165 278.884 721.635 279.47 720.5 279.924L713.713 277.496C710.535 276.275 705.175 271.092 704.005 268.006C703.205 265.896 702.772 264.058 703.307 261.845L704.25 260.983C705.014 261.66 705.176 261.646 705.49 262.665C707.021 267.625 711.391 272.541 716.014 274.988C717.132 275.579 718.519 275.8 719.75 276.038C720.742 274.668 720.63 273.692 720.352 272C719.997 269.84 718.789 268.181 717.462 266.511Z"/>
	<path fill="#231F20" d="M759.985 278.75C762.087 278.284 765.53 278.331 767.605 278.854C768.005 279.625 768.471 280.813 769.03 281.438C770.594 283.185 774.039 284.28 775.958 286.203C778.105 288.355 781.063 292.716 780.512 296C780.273 297.424 779.8 297.667 778.75 298.529C777.566 298.781 776.539 299.009 775.327 298.82C772.64 298.401 772.32 296.881 770.75 295.009C769.606 293.645 768.444 293.424 766.75 293.222L766.07 294.25C765.949 297.556 764.999 303.437 766.605 306.354C767.589 308.141 768.164 309.904 768.797 311.834L772.768 308.322C774.581 306.767 775.33 306.32 777.75 306.501C779.2 307.465 780.494 308.574 781.161 310.25C781.446 310.964 781.544 311.297 781.213 311.959C777.161 320.052 771.046 323.2 762.821 325.858L762.449 330.75C761.528 331.838 761.302 332.054 759.896 332.342C758.593 332.609 757.078 332.222 755.978 331.5C755.193 329.302 755.202 326.868 755.034 324.554C749.491 323.164 745.228 321.524 741.758 316.75C743.409 314.213 743.67 310.494 744.562 307.538C746.44 310.481 748.446 312.788 751.854 313.939C753.212 314.398 754.798 314.781 756.146 314.156C757.278 312.458 757.054 311.985 756.98 310C755.365 307.399 752.479 306.359 750.174 304.461C746.832 301.711 745.132 297.304 744.786 293.056C744.613 290.935 745.63 288.52 747.099 287.011C750.015 284.019 753.235 283.446 757.204 283.4C758.027 283.391 758.497 283.371 759.25 282.977C759.389 281.491 759.602 280.192 759.985 278.75Z"/>
	<path fill="#FEFEFE" d="M755.692 292.25C756.526 292.006 757.383 292.046 758.25 292.011C759.369 293.747 758.296 296.701 757.969 298.75L757.305 298.898C756.019 298.098 755.437 297.224 754.629 295.993C754.549 294.105 754.792 293.834 755.692 292.25Z"/>
	<path fill="#231F20" d="M381.788 517.75C385.945 516.998 389.579 519.013 393.368 520.539C399.529 523.021 406.387 526.476 412.897 527.75L414.5 526.054C415.344 526.29 415.992 526.623 416.75 527.058C416.668 527.793 416.674 528.422 416.75 529.158C421.277 532.615 428.935 534.846 434.262 537.222C451.13 544.746 467.883 552.584 485.25 558.971C489.208 560.427 495.184 560.254 498.5 562.457C499.919 563.399 501.015 564.822 501.359 566.5C502.238 570.797 502.06 575.523 502.596 579.904L507.369 611.115L523.894 706.315L545.139 688.884C561.737 676.402 582.833 665.41 603 660.389C606.164 659.601 609.046 659.386 612.29 659.524C615.557 659.664 622.589 660.827 624.805 663.52C626.376 665.43 627.134 668.136 626.786 670.567L626.713 671L627 671.38C629.204 671.786 632.95 669.886 635.183 669.25C639.286 668.082 643.895 666.869 648.153 666.538C653.059 666.157 659.112 665.869 663.885 667.078C666.978 667.862 669.396 669.14 672.66 669.47L673.462 669.547L676.721 674.903L674.395 684.784C676.855 684.073 679.441 683.289 682 683.114C685.667 682.864 689.408 683.159 693.055 682.7C697.193 682.179 701.274 680.799 705.407 680.081L708.211 685.25C710.458 689.532 710.232 694.097 708.892 698.671C706.447 707.02 700.793 714.607 695.699 721.503C667.42 759.784 626.339 789.063 584.932 811.638C573.084 818.098 560.652 823.501 548.22 828.722L496.932 848.174C477.65 854.629 457.086 862.107 436.506 861.986C428.139 861.936 418.515 861.016 410.388 858.986C402.896 857.115 395.45 854.243 388.017 852.067L264.877 801.455C264.139 803.973 263.248 806.551 262.75 809.12C262.249 811.703 262.589 814.464 261.67 816.958C259.075 824 251.455 830.252 251.719 837.848C251.751 838.76 251.87 839.399 251.506 840.265C251.27 840.828 251.21 840.744 250.604 840.996C249.206 841.579 247.279 841.432 245.786 841.459L234.284 841.245C203.119 841.039 171.871 840.469 140.922 836.512C136.633 835.963 130.727 835.781 126.82 834.082C123.619 830.516 121.044 826.311 118.38 822.337C104.944 802.3 95.7173 779.871 89.6031 756.587C82.3593 729.001 80.5985 698.731 84.3948 670.5C86.036 658.295 88.5318 646.853 94.8279 636.143L95.9041 636.028C98.2735 635.997 101.053 636.852 103.45 637.194C106.7 637.658 110.068 637.587 113.344 637.475L191.721 633.75C210.958 632.821 229.992 631.036 249.252 632.18C250.979 632.282 253.854 632.066 255.449 632.559C256.639 632.927 258.767 635.237 259.82 636.159L259.098 637.5L266.383 651.5C266.669 652.034 267.691 654.008 268.119 654.211C268.342 654.316 270 654.137 270.267 654.126L278.332 653.732C296.058 652.996 314.787 657.225 331.712 662.051L326.585 626.753L318.585 581.896C317.772 578.282 317.591 573.723 315.5 570.672C314.605 569.367 313.986 568.22 313.404 566.75C313.741 565.397 313.855 564.628 314.99 563.75C318.928 560.703 323.78 558.578 328 555.955L347.366 543.25L366.752 530.685C370.246 528.192 373.947 525.51 377.11 522.615C378.791 521.077 380.025 519.232 381.788 517.75Z"/>
	<path fill="#FEFEFE" d="M252.508 796.3C254.487 796.977 256.342 798.034 258.202 798.985C254.835 805.103 251.693 810.97 247.25 816.401L246 817.594L245.173 817.341L241.823 803.783C246.265 801.903 249.034 799.606 252.508 796.3Z"/>
	<path fill="#FEFEFE" d="M484.11 733.75C485.774 733.41 488.278 733.286 489.75 734.102C487.465 739.248 486.04 744.318 484.178 749.61C482.568 754.186 483.462 758.78 482.25 763.344L480.25 763.701C478.179 763.616 476.184 763.299 474.25 762.518L474.419 761.75L474.422 759.75C476.104 752.625 476.986 744.127 479.926 737.409C480.823 735.36 482.057 734.477 484.11 733.75Z"/>
	<path fill="#FEFEFE" d="M440.439 544.39L454.618 550.519C454.296 557.484 453.85 565.518 451.951 572.25L451.384 573.361C448.169 573.19 443.673 570.521 440.374 569.503C440.767 565.473 440.88 561.784 440.897 557.75C440.906 555.832 441.455 553.756 441.189 551.857L440.439 544.39Z"/>
	<path fill="#FEFEFE" d="M456.451 581.707C466.533 585.032 477.579 589.691 486.824 594.842L482.886 602.935L481.75 603.332L451.505 596.729L456.451 581.707Z"/>
	<path fill="#FEFEFE" d="M149.18 797.601C151.502 797.489 154.082 797.146 156.25 798.135C160.013 799.852 163.477 802.626 164.833 806.662C165.83 809.628 165.777 813.127 164.329 815.942C162.572 819.358 160.135 821.072 156.577 822.322C153.712 822.683 151.619 822.21 149 821.129C145.579 819.715 142.29 816.714 141.005 813.19C139.927 810.237 139.735 806.71 141.195 803.85C142.941 800.429 145.724 798.867 149.18 797.601Z"/>
	<path fill="#231F20" d="M151.388 805.75C151.797 805.656 152.077 805.571 152.519 805.579C153.632 805.601 154.739 805.917 155.512 806.75C156.484 807.798 156.859 809.376 156.458 810.75C155.989 812.355 155.177 812.8 153.75 813.401C152.31 813.119 150.955 812.738 149.882 811.696C148.685 810.534 148.668 810.429 148.625 808.75C149.558 807.12 149.651 806.581 151.388 805.75Z"/>
	<path fill="#FEFEFE" d="M189.689 794.545C192.398 794.426 195.008 794.456 197.572 795.461C201.054 796.826 203.2 799.717 204.629 803.066C206.162 806.66 205.921 811.507 204.308 815.043C202.554 818.887 199.945 820.658 196.141 822.162C194.826 822.337 193.866 822.354 192.575 821.993C188.117 820.745 184.984 818.186 182.866 814.053C181.123 810.653 179.811 805.673 181.254 802.004C182.781 798.122 186.035 796.074 189.689 794.545Z"/>
	<path fill="#231F20" d="M192.015 803.75L192.341 803.716C193.784 803.767 194.452 803.996 195.592 804.92C196.567 806.44 196.487 807.48 196.416 809.25C195.488 810.825 194.77 811.384 193.172 812.25C191.319 812.434 190.725 811.768 189.328 810.75C188.756 809.364 188.478 808.503 188.843 807.008C189.247 805.352 190.688 804.618 192.015 803.75Z"/>
	<path fill="#FEFEFE" d="M345.714 552.25C348.967 550.718 374.69 558.154 380.339 559.459C374.509 563.566 366.085 565.933 359.38 568.524C356.927 569.526 352.957 571.456 350.333 570.746C349.192 570.437 349.849 570.546 348.777 570.411C340.983 569.425 333.044 566.643 325.472 564.507L345.714 552.25Z"/>
	<path fill="#FEFEFE" d="M461.558 554.25C463.396 553.982 464.972 554.893 466.677 555.584C470.786 557.248 475.028 559.012 478.973 561.029C481.989 562.57 484.828 564.567 487.62 566.477C488.046 566.768 489.474 567.537 489.731 567.934C490.397 568.959 490.881 570.973 491.25 572.166C492.048 574.746 493.494 580.221 493.059 582.734C492.615 585.296 489.879 589.238 488.625 591.595C486.029 588.977 482.132 586.841 478.909 585.103C472.021 581.391 465.558 578.512 458.048 576.236C459.036 571.673 460.106 567.075 460.622 562.43C460.803 560.805 461.166 558.866 460.837 557.249C460.597 556.07 461.12 555.352 461.558 554.25Z"/>
	<path fill="#FEFEFE" d="M416.158 533.528C421.871 536.634 428.242 538.403 433.752 541.962C435.62 549.73 434.822 559.322 434.505 567.277C432.821 567.271 430.986 566.435 429.379 565.934L419.75 563.006L394.139 556.806C402.001 550.188 411.274 542.657 416.158 533.528Z"/>
	<path fill="#FEFEFE" d="M326.199 572.231C330.021 572.822 333.555 573.864 337.166 575.225C336.903 577.753 336.2 580.331 336.306 582.879C336.508 587.756 337.82 592.856 338.705 597.664L346.419 635.604L352.266 668.844C348.503 667.791 344.17 666.642 340.769 664.75L340.694 663.517C340.704 659.86 339.939 656.371 339.409 652.756L336.564 634.557L331.382 603C329.563 592.744 327.356 582.597 326.199 572.231Z"/>
	<path fill="#FEFEFE" d="M386.163 521.61L411.171 531.73C406.498 539.369 398.14 547.546 390.643 552.436C389.715 553.042 387.523 554.577 386.534 554.74C385.132 554.971 381.444 553.717 379.878 553.403L352.824 546.664C363.363 538.615 376.71 532.146 385.614 522.23L386.163 521.61Z"/>
	<path fill="#FEFEFE" d="M387.016 561.75C390.961 560.157 426.86 571.376 433.25 573.609L433.6 574.5L432.658 575.634L433.47 577L430.143 590.084C423.931 589.059 417.832 586.683 411.733 585.061L358.946 573.76C368.495 570.288 378.139 566.723 387.016 561.75Z"/>
	<path fill="#FEFEFE" d="M493.577 734.184L526.363 738.713L529.167 742.678C532.494 748.471 531.703 754.827 530.193 761.028C528.219 762.264 526.377 763.17 524.181 763.945C512.011 766.699 499.326 765.586 487.002 764.362C486.746 753.71 489.054 743.807 493.577 734.184Z"/>
	<path fill="#FEFEFE" d="M612.335 669.155C614.875 668.92 616.835 668.991 618.898 670.554L618.906 671.75C615.923 674.404 611.957 676.103 608.5 678.088L594.183 686.881C588.11 690.895 582.854 695.96 576.584 699.686C578.42 696.804 581.355 694.294 583.957 692.127C587.482 689.191 591.047 686.156 594.838 683.567C597.62 681.668 600.602 680.209 603.25 678.095C603.614 676.595 603.547 676.7 602.75 675.36C601.985 675.002 601.264 674.388 600.403 674.637C598.656 675.14 596.855 677.182 595.329 678.231C589.292 682.386 583.395 686.598 578.597 692.231C576.355 694.863 574.34 698.092 572.448 701C570.554 703.912 567.086 705.078 564.025 706.534L529.5 724.797C528.553 724.528 527.526 724.293 526.79 723.603C524.766 721.706 525.119 717.142 524.979 714.504C532.219 710.137 538.488 704.255 545.35 699.333C565.122 685.151 588.275 673.458 612.335 669.155Z"/>
	<path fill="#FEFEFE" d="M495.172 590.25L495.712 590.335C495.959 590.64 496.302 590.887 496.453 591.25C497.013 592.603 497.063 595.193 497.299 596.676L499.828 612.431L512.508 692L517.266 718.826L512.291 716.468L506.921 714.25C505.551 713.268 505.789 712.466 505.48 711L487.48 607.766C486.82 602.008 491.714 594.692 495.172 590.25Z"/>
	<path fill="#FEFEFE" d="M439.12 575.224L449.685 579.238C448.718 583.365 447.166 592.498 444.122 595.272C443.522 595.819 443.691 596.209 443.616 597L445.005 598.25C445.382 600.646 443.257 604.993 442.422 607.275C434.229 629.695 422.937 651.375 411.29 672.176C408.511 677.139 405.12 681.678 402.53 686.75L401.75 687.914C398.151 687.374 394.826 686.106 391.534 684.594L406.128 660.126C420.352 633.447 431.041 604.278 439.12 575.224Z"/>
	<path fill="#FEFEFE" d="M659.722 674.2C661.187 674.051 662.1 674.178 663.5 674.525L663.732 675.137C661.64 680.457 657.95 686.34 653.649 690.147C648.753 694.482 641.194 697.712 635.385 700.763C629.177 704.023 623.187 707.539 616.769 710.395C621.852 704.927 628.445 700.748 634.483 696.392C637.72 694.055 646.749 689.463 647.851 685.75C646.699 684.457 646.448 684.148 644.75 683.553C641.663 685.18 639.958 687.604 637.304 689.708C629.779 695.672 619.395 701.026 614.729 709.756C611.738 715.352 585.132 728.316 577.54 732.44L542.466 751.821C542.223 746.65 541.947 740.773 539.274 736.167C537.979 733.936 536.126 731.862 534.595 729.78C557.563 715.256 583.157 704.94 607.875 693.894C624.524 686.453 641.259 676.248 659.722 674.2Z"/>
	<path fill="#FEFEFE" d="M229.458 640.426C235.592 640.012 241.707 641.3 247.797 640.595L248.579 640.5C235.322 662.109 232.283 688.284 229.917 713.11C226.868 745.108 229.471 775.678 237.505 806.75C238.897 812.137 240.258 819.951 243.977 824.247C245.834 826.394 247.162 826.038 249.821 826.194C249.374 827.653 248.63 829.021 247.973 830.394C247.576 831.777 247.056 832.246 246.053 833.21C243.499 833.171 240.885 833.055 238.48 832.095C236.404 831.266 234.782 829.543 233.31 827.916C227.786 821.815 224.47 814.314 221.567 806.711C212.517 783.015 211.061 757.228 211.076 732.108C211.081 722.14 211.069 712.064 212.375 702.166C215.107 681.459 220.941 659.514 229.458 640.426Z"/>
	<path fill="#FEFEFE" d="M338.196 575.338L429.687 592.261C422.869 614.174 413.38 635.019 402.618 655.25C398.4 664.71 391.289 674.174 385.219 682.506C376.236 679.696 367.473 674.907 358.781 671.194C357.416 658.655 353.879 645.671 351.083 633.367L338.196 575.338Z"/>
	<path fill="#231F20" d="M387.704 645.25L389 645.482C390.486 647.133 390.165 651.711 390.407 654.079C390.576 655.726 390.278 656.474 389.25 657.736C387.809 657.246 387.693 656.376 387 655.077C385.721 655.898 384.981 657.927 384.25 659.292C382.943 660.331 382.917 660.353 381.25 660.373C380.269 658.528 380.683 656.892 381.265 654.932L381.398 654.5L381.087 653.877C380.626 652.811 380.321 651.428 380.774 650.328C381.6 648.325 385.792 646.041 387.704 645.25Z"/>
	<path fill="#FEFEFE" d="M385.006 649.75L386.504 649.35C387.662 650.592 387.39 651.322 387.462 652.981L386.25 653.565C384.998 653.451 384.579 653.257 383.634 652.43L383.593 651L385.006 649.75Z"/>
	<path fill="#231F20" d="M396.199 605.75L397.25 606.477C397.607 607.61 397.885 608.37 397.618 609.553C396.77 613.32 399.768 617.549 398.25 620.974L396.75 621.375L395.25 619.442L394.909 619.939C393.946 621.17 392.441 621.188 391 621.403C390.334 622.452 389.958 623.472 389.516 624.624C388.459 625.721 388.508 625.743 387 625.883L386.211 624.75L386.561 616.012C386.567 615.463 386.379 613.381 386.563 612.978C386.667 612.748 388.891 611.492 389.209 611.284C390.868 610.202 392.344 609.262 393.59 607.703C394.487 606.581 394.818 606.19 396.199 605.75Z"/>
	<path fill="#FEFEFE" d="M392.451 612.75C393.312 612.534 393.305 612.401 394.176 612.75C394.358 614.477 394.87 616.489 394.25 618.123C393.191 617.47 392.836 617.684 391.629 617.734L391.18 618.415L390.25 618.35L390.644 614.13L392.451 612.75Z"/>
	<path fill="#FEFEFE" d="M450.269 600.218L483.128 608.112L493.976 669.75L497.731 692C498.867 698.961 499.845 705.915 501.818 712.699L467.123 703.34L406.748 689.449C408.396 686.027 410.772 682.965 412.725 679.708L420.987 664.42L439.849 625.781L450.269 600.218Z"/>
	<path fill="#231F20" d="M436.898 674.25C438.57 674.164 438.456 674.149 439.724 675.25C440.333 677.747 441.907 682.409 440.963 684.75C439.019 685.003 438.826 683.442 436.75 683.069C435.171 683.939 434.686 684.509 432.865 684.25C431.623 682.995 431.627 683.008 431.465 681.25C432.553 678.376 434.468 676.109 436.898 674.25Z"/>
	<path fill="#231F20" d="M473.28 661.25L474.75 661.507C474.788 662.428 474.819 663.235 475.055 664.13C475.596 666.175 475.408 667.454 474.93 669.5L474.25 669.89L472.482 668.25C472.337 667.304 472.226 666.637 471.841 665.75L469.692 666.25C469.137 668.629 471.472 673.179 472.011 675.75C471.072 676.727 470.924 677.021 469.625 677.319C467.85 675.649 467.982 673.729 467.276 671.523C466.81 670.068 466.107 668.28 464.75 667.543L464.75 668.974C465.876 672.934 467.582 678.036 466.75 682.148L465.75 682.653C465.373 682.335 465.206 682.241 464.942 681.75C463.18 678.479 461.534 669.149 462.117 665.543L463 665.034C463.578 665.602 464.09 666.061 464.75 666.542C466.355 664.049 470.585 662.298 473.28 661.25Z"/>
	<path fill="#FEFEFE" d="M266.01 662.684C271.906 662.066 278.109 662.44 284 662.932C294.913 663.845 305.718 665.51 316.379 668.04C330.765 671.454 345.438 676.264 359.209 681.646C371.485 686.443 383.346 691.794 395.942 695.75C416.372 702.166 437.539 705.843 458.296 710.985C471.112 714.16 483.432 718.482 496 722.447C505.257 725.367 515.679 727.818 523.822 733.232C516.699 732.856 509.439 730.619 502.309 729.686C496.818 728.966 484.237 726.903 479.75 730.733C476.683 733.35 475.122 738.306 474.116 742.071C472.283 748.93 471.101 755.784 470.415 762.848L427.008 757.674C411.176 756.153 391.885 753.147 377.083 760.445L377.57 760.644C382.894 762.796 388.246 763.556 393.882 764.385C404.385 765.93 414.937 766.437 425.502 767.312L458.534 770.78C474.157 772.51 489.464 775.649 505.26 775.899C513.175 776.023 521.769 775.893 529.139 772.701C534.615 770.329 538.461 766.294 540.601 760.747L540.886 759.997C546.318 758.025 551.342 755.011 556.456 752.338L582.286 738.74L639.977 709.794L664.622 697.262C673.48 693.249 683.182 688.767 692.911 687.594C695.51 687.281 698.266 687.42 700.885 687.419C702.57 689.746 703.8 691.488 703.403 694.5C702.717 699.708 699.449 704.151 696.532 708.338C692.525 714.089 687.96 719.014 683.296 724.212C672.079 736.712 659.595 748.039 646.716 758.804C622.291 779.221 594.317 796.483 565.607 810.163L541.633 820.263L526.337 826.901L503.156 835.414C485.619 841.715 467.764 848.052 449.305 850.967C444.022 851.802 438.435 854.761 433.034 854.194L421 853.404C415.906 852.843 410.085 850.705 405.165 849.191C396.263 846.453 387.74 842.708 379.118 839.23L340.341 823.602L287.347 801.75C279.957 798.622 272.454 795.958 265.258 792.361C256.267 787.866 247.31 783.231 239.991 776.233C236.83 767.952 236.837 757.04 236.483 748.25C235.874 733.158 235.862 718.031 237.107 702.957C238 692.151 239.811 681.315 241.629 670.634C249.468 666.175 257.164 664.006 266.01 662.684Z"/>
</svg>
