<?xml version="1.0" encoding="utf-8" ?>
<svg xmlns="http://www.w3.org/2000/svg" xmlns:xlink="http://www.w3.org/1999/xlink" width="1024" height="1024">
	<path fill="#FEFEFE" d="M-0 -0L1024 0L1024 1024L-0 1024L0 -0Z"/>
	<path fill="#231F20" d="M579.545 794.25C580.314 793.985 580.944 794.01 581.75 793.99C585.914 797.322 588.666 804.07 591.997 808.381C593.862 810.795 597.651 813.707 598.946 816.25C599.174 816.699 599.149 817.236 599.25 817.73C597.548 817.675 596.04 816.462 594.781 815.408C590.046 811.444 585.554 805.657 582.268 800.49C581.013 798.516 579.715 796.635 579.545 794.25Z"/>
	<path fill="#231F20" d="M350.189 523.75L351.507 523.397L353.027 525C352.836 528.544 345.392 534.754 342.849 537.389C342.197 538.064 340.662 539.527 340.621 540.5C340.572 541.645 341.973 542.414 341.75 544.134L339.25 544.394C338.561 544.185 338.463 544.191 337.75 543.772C336.448 543.008 334.735 541.318 334.499 539.75C334.212 537.844 334.58 537.19 335.67 535.678C340.494 535.102 346.458 527.048 350.189 523.75Z"/>
	<path fill="#231F20" d="M201.249 487.713C207.925 487.491 231.727 486.189 236.87 489.111C237.027 490.353 237.139 490.367 236.431 491.375C234.258 491.784 231.736 491.273 229.54 491.053C217.83 489.101 205.072 490.767 193.25 491.027C192.327 490.229 192.353 490.269 192.193 489.059C193.75 487.483 198.88 487.851 201.249 487.713Z"/>
	<path fill="#231F20" d="M591.639 759.25L592.528 759.01C594.828 760.285 598.015 767.254 599.818 769.718C602.578 773.489 605.76 776.965 609.302 780.017C616.269 786.021 623.652 788.15 632.75 787.421L633.367 788L632.529 789.25L631.871 789.686C629.002 791.237 624.215 790.595 621.157 789.786L620.25 789.534C613.47 787.703 608.16 783.839 603.05 779.147C597.65 774.187 591.963 766.825 591.639 759.25Z"/>
	<path fill="#231F20" d="M640.553 257.25L640.917 257.076C646.369 255.208 660.89 260.598 666.208 262.968C669.136 264.274 690.067 275.056 691.042 276.462C691.304 276.84 691.369 277.321 691.533 277.75L690.75 279.322C690.451 279.583 689.996 280.011 689.645 280.175C686.905 281.457 681.464 275.829 679.104 274.274C671.713 269.405 662.836 264.15 654.25 261.755C649.904 260.543 645.251 260.049 641.018 258.602L640.553 257.25Z"/>
	<path fill="#231F20" d="M342.944 510.75C344.32 510.727 344.228 510.78 345.25 511.724C345.321 512.232 345.57 512.748 345.463 513.25C345.231 514.34 343.301 515.877 342.494 516.627C339.631 519.286 333.549 523.585 332.012 527C332.456 527.371 333.25 527.943 333.586 528.453C334.315 529.556 334.161 530.518 333.966 531.75L333 532.359L328.911 531.299C324.874 532.526 322.152 533.92 318.826 536.526C317.956 537.266 317.376 537.834 316.25 538.142C315.502 536.772 315.501 536.567 315.6 535C318.489 529.83 326.144 524.866 330.688 521.005C334.713 517.584 338.54 513.671 342.944 510.75Z"/>
	<path fill="#231F20" d="M359.644 536.75L360.775 536.549C362.032 537.226 362.402 537.19 362.911 538.5C359.901 543.224 354.455 547.655 350.456 551.688C351.369 552.933 352.504 554.273 353.154 555.674C354.294 558.129 353.225 558.675 355.75 560.338C357.368 559.865 358.304 558.475 359.483 557.286C362.306 554.438 366.338 549.235 369.75 547.463C370.959 546.836 371.689 547.153 372.818 547.682C373.096 549.331 372.755 549.459 371.902 550.834C367.362 555.279 363.872 560.032 359.819 564.815L358 564.956C357.017 564.237 356.208 563.716 355.693 562.565C355.326 561.745 355.026 561.156 354.513 560.41L353.796 560.283C350.833 559.58 346.623 553.386 345.139 550.828C348.952 546.138 354.807 540.314 359.644 536.75Z"/>
	<path fill="#231F20" d="M189.464 704.25C196.98 703.705 204.702 703.668 212.225 704.149C216.094 704.396 220.195 704.58 223.92 705.727C225.648 706.26 227.1 706.847 227.991 708.5C227.783 709.847 227.566 710.76 226.56 711.75C226.248 712.057 225.089 712.837 224.75 712.941C224.041 713.159 220.254 711.661 219.311 711.403C216.114 710.527 212.666 710.238 209.379 709.85C199.982 708.757 189.75 708.529 180.283 708.658C177.121 708.7 171.176 710.647 168.811 709.184C168.48 707.755 168.7 707.687 169.392 706.362C175.37 704.416 183.183 704.55 189.464 704.25Z"/>
	<path fill="#231F20" d="M145.931 466.225L168.302 465.911L222.432 467.64C226.799 467.993 232.151 467.837 236.28 469.218C236.468 470.38 236.614 471.027 236.119 472.121C234.047 473.013 227.125 471.347 224.61 471.092C200.415 468.085 175.402 468.568 151.054 469.128L136.75 469.541C135.047 469.569 133.051 469.863 131.646 468.878C131.756 467.625 131.947 467.5 132.75 466.505L145.931 466.225Z"/>
	<path fill="#231F20" d="M594.258 219.75C595.299 219.293 596.394 219.326 597.5 219.493C604.909 220.617 612.535 223.417 619.674 225.657C641.529 232.513 663.724 239.925 684.166 250.344C686.897 251.735 691.766 253.491 693.44 256.105C694.056 257.067 693.519 257.921 693.25 258.978C690.174 260.011 688.055 258.13 685.553 256.467C665.028 242.819 639.513 235.002 616.122 227.787C609.024 225.597 600.901 224.318 594.172 221.25L594.258 219.75Z"/>
	<path fill="#231F20" d="M132.021 682.25L170.156 682.063C178.198 682.279 209.708 683.257 214.25 688.052C214.181 689.422 213.921 689.62 213.101 690.75C209.605 691.876 204.628 689.82 201.035 689.178C192.174 687.594 183.148 686.903 174.168 686.397C165.919 685.401 157.34 685.443 149.04 685.412L109.453 686.747L91.5 688.478L90.75 687.658L91 686C91.4166 685.688 91.773 685.272 92.25 685.063C93.8872 684.344 98.4688 684.595 100.552 684.434L132.021 682.25Z"/>
	<path fill="#231F20" d="M309.129 564.113C311.121 564.197 313.404 564.173 315.21 565.107C318.034 566.567 320.636 568.907 321.639 572C322.695 575.261 322.235 578.089 320.672 581.086C317.892 586.414 313.039 588.975 307.502 590.62C305.698 590.641 303.704 590.782 302 590.085C298.381 588.604 295.317 585.027 293.998 581.376C293.179 579.109 293.432 576.894 294.597 574.805C297.261 570.027 303.996 565.537 309.129 564.113Z"/>
	<path fill="#FEFEFE" d="M310.877 567.532C312.094 567.635 313.37 567.801 314.517 568.25C316.046 568.848 317.599 570.228 318.245 571.75C319.091 573.744 319.091 576.048 318.241 578.039C316.551 581.997 310.513 584.88 306.766 586.527C305.701 586.565 304.406 586.684 303.395 586.301C301.389 585.543 299.468 583.489 298.684 581.516C298.145 580.16 298.114 578.297 298.761 576.974C300.847 572.712 306.508 568.952 310.877 567.532Z"/>
	<path fill="#231F20" d="M306.971 572.25C308.394 572.008 308.644 572.04 310 572.54L310.409 573.5C309.709 575.295 309.051 576.593 307.75 578.025L306.25 578.39C305.004 577.144 304.779 577.068 304.488 575.25C305.162 573.604 305.619 573.335 306.971 572.25Z"/>
	<path fill="#231F20" d="M494.013 173.75L495.058 173.908C496.196 176.01 495.609 179.185 495.574 181.612C495.489 187.548 495.618 193.647 494.657 199.519C493.801 204.749 488.889 221.792 484.75 224.737C483.304 223.835 482.753 222.597 481.965 221.153C480.123 216.772 478.339 212.203 477.444 207.523C475.542 197.57 476.417 186.701 476.514 176.592C477.67 175.656 484.195 176.036 486.252 175.735L487 175.619C489.504 175.248 491.652 174.611 494.013 173.75Z"/>
	<path fill="#FEFEFE" d="M489.785 194.515C490.762 194.38 490.89 194.36 491.852 194.75C491.362 201.223 489.678 206.879 487.584 213C486.978 214.773 486.371 217.421 485.015 218.716L484.182 217.75C481.552 210.867 480.545 204.432 480.082 197.125L489.785 194.515Z"/>
	<path fill="#FEFEFE" d="M490.255 178.25L492 178.088C493.297 179.739 492.215 188.74 492.136 191.319L481.478 194.25L480.574 194.322C480.378 194.131 480.113 193.992 479.987 193.75C479.751 193.296 479.661 180.803 479.567 179.289C480.868 178.755 482.847 179.127 484.289 179.085C486.278 179.027 488.299 178.602 490.255 178.25Z"/>
	<path fill="#231F20" d="M332.626 221.601L317.465 200.28C322.267 198.719 327.225 197.117 331.75 194.865C334.713 193.39 337.558 191.339 340.388 189.605L343.711 196.63L349.592 207.312C351.799 211.027 355.399 215.774 356.41 219.964C356.882 221.915 356.719 224.394 356.729 226.396C356.753 231.843 356.502 237.361 355.714 242.75L355 243.472C351.001 243.28 345.105 236.92 342.444 234.04C338.934 230.241 335.333 225.996 332.626 221.601Z"/>
	<path fill="#FEFEFE" d="M353.163 220.25C353.657 220.429 353.896 220.86 354.238 221.25C355.02 227.591 354.604 234.093 353.614 240.382L347.259 235.389L341.203 228.935C344.785 225.406 348.817 222.732 353.163 220.25Z"/>
	<path fill="#FEFEFE" d="M341.983 203.136C337.843 205.316 333.956 209.86 330.61 213.157C327.688 209.888 325.272 206.377 323.029 202.618L332.032 198.265C334.097 197.16 337.471 194.542 339.75 194.606L341.29 197.06L343.331 201.135C342.96 202.122 342.696 202.399 341.983 203.136Z"/>
	<path fill="#FEFEFE" d="M334.95 219.882L332.253 215.471C332.872 214.034 343.134 206.343 345.082 204.88C347.902 208.815 350.255 212.525 352.25 216.971L352 217.488C348.93 217.168 346.617 219.304 344.309 221.164L339.13 225.682L334.95 219.882Z"/>
	<path fill="#231F20" d="M197.71 267.25C201.102 267.551 205.374 270.816 208.473 272.361L223.547 279.208C231.051 282.48 238.419 285.494 246.379 287.482L246.193 289.091L244.754 307.623L237.875 305.708L197.114 291.798C194.389 290.774 187.651 289.089 186.248 286.566C187.058 283.755 188.888 281.267 190.423 278.801L197.71 267.25Z"/>
	<path fill="#FEFEFE" d="M199.224 270.945L210.92 276.498L200.394 287.644C199.678 288.535 199.56 288.73 198.5 289.117C195.494 288.295 192.905 287.139 190.12 285.756L199.224 270.945Z"/>
	<path fill="#FEFEFE" d="M232.087 285.713L243.237 289.71L242.399 303.676L237.25 302.007L224.347 297.7C225.141 295.979 227.176 294.397 228.321 292.8C229.865 290.647 230.962 288.105 232.087 285.713Z"/>
	<path fill="#FEFEFE" d="M214.493 278.277L228.782 284.556C226.497 288.839 223.377 292.533 219.83 295.823L218.034 295.75L202.637 290.745L214.493 278.277Z"/>
	<path fill="#231F20" d="M114.734 525.68C123.65 525.657 131.058 528.259 138.894 532.354C147.092 536.639 153.459 542.795 156.223 551.832C158.939 560.716 158.192 569.495 153.825 577.717C149.746 585.395 143.729 592.598 135.875 596.583C132.27 598.413 128.285 599.557 124.439 600.755L121.432 601.25C111.874 602.61 104.742 600.227 97.1846 594.467C89.0146 588.24 83.2626 579.015 81.9782 568.795C80.6986 558.614 84.1329 550.328 90.3493 542.379C96.4585 534.566 104.524 526.956 114.734 525.68Z"/>
	<path fill="#FEFEFE" d="M113.845 532.558C120.985 532.235 127.708 533.926 133.972 537.31C142.75 542.052 147.775 548.258 150.694 557.75L151.146 559.287C152.537 565.129 150.88 571.72 147.774 576.72C142.528 585.164 135.821 590.551 126.175 592.903C122.231 593.726 117.153 594.037 113.186 593.379C106.258 592.231 98.4651 586.008 94.4907 580.478C90.042 574.287 88.061 566.849 89.3188 559.296L89.4591 558.5C89.8712 556.028 90.5587 553.784 91.6343 551.522C96.2535 541.808 104.006 536.178 113.845 532.558Z"/>
	<path fill="#231F20" d="M110.187 541.75C110.921 541.642 112.03 541.378 112.75 541.513C114.367 541.815 114.868 543.003 115.75 544.216C117.405 544.485 119.485 543.735 121.111 543.363L125.997 546.279C127.369 547.312 128.142 548.341 128.411 550C127.928 550.511 127.87 550.61 127.25 551.075C123.565 553.833 120.864 549.628 117.25 549.13L116.357 550C116.603 553.736 118.153 557.271 119.672 560.647C122.092 560.914 124.66 561.092 127.003 561.767C130.372 562.737 134.668 565.162 136.299 568.407C137.173 570.145 137.502 573.02 136.68 574.828C135.262 577.95 131.756 579.647 128.758 580.878L128.104 581.141L128.526 583.75C127.791 585.166 127.062 585.638 125.75 586.426C122.782 586.937 122.594 586.334 121.136 583.996C120.899 583.616 120.821 583.065 120.425 582.857C120.235 582.757 118.13 583.156 117.646 583.207C114.209 583.568 111.186 583.676 108.109 581.823C106.08 580.601 104.431 579.037 103.858 576.75L104.178 576.335C105.354 575.146 107.389 574.698 109 574.51L111.344 576.463C113.548 578.433 115.526 578.057 118.25 577.938L118.526 577C117.936 575.622 114.542 566.526 113.937 566.154C113.62 565.959 111.645 565.85 111.15 565.778C108.411 565.379 104.886 564.842 102.871 562.771C99.7851 559.6 101.193 554.447 103.497 551.25C104.534 549.812 106.26 548.348 106.985 546.75C107.479 545.66 107.212 544.775 107.497 543.75C107.885 542.357 109.001 542.244 110.187 541.75Z"/>
	<path fill="#FEFEFE" d="M109.119 553.75C110.762 554.697 111.646 557.969 112.441 559.75L110.75 560.1L109.832 559.959C108.344 559.545 108.039 559.062 107.21 557.865C107.424 555.937 107.851 555.202 109.119 553.75Z"/>
	<path fill="#FEFEFE" d="M120.59 566.279C122.55 566.748 124.9 567.145 126.635 568.196C128.407 569.268 130.107 570.992 130.546 573L129.25 574.649C128.429 575.271 127.415 575.702 126.5 576.179C124.248 575.1 121.705 568.637 120.59 566.279Z"/>
	<path fill="#231F20" d="M388.724 273.452L389 272.549L389.761 272.412C392.431 271.91 395.057 270.909 397.693 270.233L417.884 265.345C438.121 260.841 458.716 257.704 479.34 255.614C484.964 255.044 491.125 253.564 496.75 254.006C498.288 255.979 499.453 272.461 499.581 275.732C500.797 279.736 501.216 284.146 502.009 288.265L507.483 318.573C518.342 314.081 530.107 311.066 541.396 307.83C546.217 306.448 551.353 304.483 556.25 303.522C557.469 303.283 558.91 303.219 560.097 303.635C560.767 303.87 561.131 304.473 561.518 305.033C565.688 311.055 568.865 319.255 571.892 325.982C579.591 343.097 586.754 360.002 595.608 376.596C597.706 380.529 599.585 385.089 602.093 388.723C604.361 392.009 609.129 394.34 612.5 396.467L642.695 414.561C657.086 423.26 670.656 432.796 685.763 440.339C689.06 441.986 692.44 443.695 695.946 444.86C700.183 446.268 704.086 447.132 708.174 449.051L732.872 461.475L787.393 485.984C791.17 471.398 793.99 456.844 796.18 441.944L799.933 413.734C801.846 398.477 802.948 374.291 818.005 365.476C820.806 363.837 824.231 363.159 827.374 364.079C831.721 365.352 835.149 368.803 837.193 372.782C844.391 386.798 838.604 403.824 834.999 418C833.843 422.546 833.054 427.241 832.218 431.856C834.478 428.65 835.938 424.882 837.894 421.476C843.181 412.271 851.972 399.847 863.105 397.684C865.521 397.214 869.232 397.587 871.408 398.822C873.773 400.165 876.109 404.742 876.454 407.305C878.355 421.434 866.33 434.708 858.147 444.997C868.541 437.574 884.849 424.591 898.373 426.712C902.147 427.305 905.121 429.311 907.295 432.432C909.799 436.027 910.422 440.257 909.452 444.5C907.529 452.905 898.437 460.71 891.27 464.892L883.96 468.951C898.782 465.174 919.597 455.491 934.223 464.095C937.92 466.27 939.642 469.099 940.631 473.194C937.33 486.312 923.477 494.008 912.609 500.521L701.845 610.985C710.556 611.705 719.399 611.604 728.137 611.68C753.248 611.898 779.162 610.975 803.045 602.388C805.783 601.404 809.315 600.222 811.606 602.907C812.701 604.189 812.812 606.172 812.417 607.75C811.645 610.838 807.332 614.692 805.133 617.019C785.741 637.536 761.868 652.851 736.603 665.147C712.222 677.014 685.502 685.54 659 691.034C641.66 694.628 623.498 697.193 605.775 695.008C586.688 733.101 560.289 769.51 524.557 793.548C505.252 806.535 482.557 816.279 460.5 823.536C436.4 831.465 410.876 836.516 385.75 839.851C369.634 841.99 352.76 843.707 336.504 842.105C335.713 843.58 335.419 844.533 334 845.456C332.805 844.129 333.462 842.847 332.75 841.892C332.652 841.761 332.445 841.772 332.287 841.728C328.051 840.533 322.273 840.829 317.75 840.334C301.915 838.6 286.099 836.987 270.5 833.658C262.453 831.941 252.336 829.724 245.75 824.426C243.486 822.604 242.277 820.297 241.115 817.705C242.174 813.862 243.255 809.939 246.937 807.786L252.424 804.994C245.458 802.747 234.341 800.566 230.75 793.477C229.163 790.344 228.343 786.446 229.519 783.038C230.947 778.897 235.142 776.975 238.737 775.066C227.98 770.365 216.856 765.86 212.387 753.922C211.047 750.342 210.909 745.766 212.555 742.266C214.042 739.103 216.538 737.077 219.798 735.926C231.303 731.864 257.76 744.955 268.371 749.806L287.346 758.612C281.853 743.422 274.279 723.746 281.329 707.954C283.461 703.18 286.612 699.198 291.677 697.333C294.633 696.244 297.255 696.586 300.042 697.937C306.109 700.877 309 708.1 310.91 714.16C314.739 726.311 316.419 738.661 322.833 749.908C325.231 754.113 328.361 758.2 332.746 760.467C334.009 761.119 335.364 761.618 336.487 762.5L336.75 763.401C337.25 763.156 337.703 762.77 338.25 762.665C338.902 762.541 340.296 762.93 341.05 763.014C343.567 763.292 346.052 763.47 348.588 763.465C356.337 763.451 363.996 762.861 371.712 762.202C423.232 757.801 476.388 737.683 511.854 698.838C518.852 691.173 524.584 682.404 530.404 673.841C525.515 671.07 520.312 668.819 515.515 665.908C484.513 647.095 454.78 623.368 430.002 596.895L426.629 600.022C414.261 613.091 398.004 623.69 383.612 634.498L341.54 666.376C340.561 667.158 339.955 667.916 339.235 668.951C338.657 669.782 338.514 670.131 337.619 670.631C324.87 664.47 313.521 653.1 303.405 643.278C283.169 623.63 264.596 603.109 247.886 580.372C244.735 576.084 240.999 571.672 238.488 567L239.069 566.109C239.539 565.996 240.843 565.514 241.25 565.583C243.819 566.017 250.809 576.778 252.592 579.16C273.781 607.469 297.681 634.81 324.955 657.427C328.778 660.597 333.26 664.89 337.75 666.966L339.612 665.388L426.611 596.892L427.838 595.476C426.835 593.528 424.669 591.743 423.134 590.144L412.988 579.523L394.33 558.465C390.105 569.335 384.187 579.737 378.694 590.017C375.79 595.453 373.131 601.25 369.813 606.429C369.538 609.001 366.139 613.81 364.837 616.237L349.965 643.611C345.812 641.781 342.363 638.873 338.808 636.112C332.883 631.507 327.34 626.735 321.914 621.544C318.693 618.462 315.108 615.372 312.602 611.662C317.625 615.623 322.074 620.109 326.852 624.34C333.659 630.368 340.896 636.088 348.65 640.846C356.914 628.454 361.976 613.814 369.253 600.835C369.148 599.613 372.027 594.856 372.747 593.38L392.151 555.575L344.224 498.114L314.611 521.139L287.831 544.229C279.085 551.237 270.077 557.215 260.496 563.022L275.515 582.407L290.955 602.107L316.298 632.54C318.405 635.146 322.274 638.833 323.43 641.872L322.871 641.65C321.373 640.688 319.662 638.476 318.4 637.16L304.587 621.603C290.528 606.127 275.507 591.366 262.578 574.901C259.79 571.35 257.401 567.872 255.685 563.682L339.429 492.475C338.824 490.649 337.144 488.964 335.955 487.464L335.346 487.431L316.535 501.125L276.922 532.813L251.593 552.208L241.932 561.133C240.297 562.79 238.988 564.664 237.25 566.223L236.121 565.75C236.37 562.135 241.807 557.929 244.311 555.45C261.463 538.467 280.89 524.404 299.57 509.225C305.724 504.225 312.455 499.414 318.086 493.842C320.271 491.679 321.982 488.997 323.693 486.456C319.693 480.009 312.031 475.702 307.943 469.464L323.155 446.592C317.453 441.927 312.593 436.091 307.545 430.75L273.375 392.057C270.079 388.065 264.957 383.279 263.032 378.5C263.725 377.425 264.058 376.947 265.25 376.445C269.355 377.798 274.171 385.208 277.077 388.594C296.501 411.223 315.902 433.69 339.75 451.916C342.427 450.159 346.205 447.785 348.179 445.283L348.677 444.625C347.114 444.569 345.796 443.82 344.5 442.998C333.422 435.964 289.008 391.15 286.699 378.953C286.431 377.539 286.997 376.243 287.77 375.079C292.976 367.247 300.369 360.234 307.009 353.626C323.655 337.058 341.396 321.454 361.038 308.527C369.062 303.245 377.314 297.802 386.868 295.887L387.509 285.889C358.043 298.035 331.871 317.899 307.627 338.263L284.555 359.496C282.242 361.823 278.219 367.661 275.25 368.481C273.281 368.099 271.827 366.908 270.217 365.785C278.482 359.946 285.268 352.235 292.908 345.602C313.062 328.105 333.605 311.568 356.329 297.477C366.235 291.334 376.546 285.232 387.716 281.695C387.807 278.959 387.603 275.987 388.724 273.452Z"/>
	<path fill="#FEFEFE" d="M323.599 475.25C325.472 475.938 327.068 479.426 329.163 480.707L329.597 480.957L329.622 481.548L327.335 483.361C326.448 484.05 325.538 485.109 324.41 485.154L323.721 484.055C322.222 481.162 322.57 478.219 323.599 475.25Z"/>
	<path fill="#FEFEFE" d="M390.694 277.78C390.944 276.536 391.201 275.359 391.634 274.161L494.788 258.187L497.169 275.968C497.868 285.799 499.911 295.804 501.774 305.484C502.497 309.242 503.964 313.674 504.058 317.467C502.313 314.947 500.52 312.555 498.253 310.475C487.528 300.637 475.225 292.771 463.993 283.609L456.46 277.012C456.104 276.714 454.913 275.532 454.546 275.42C453.166 274.998 449.763 275.476 448.24 275.558C440.435 275.977 432.489 277.034 424.752 278.126C421.286 278.615 404.878 281.928 402.877 280.96L402.25 280.609L401.25 281.062C399.577 286.206 399.316 292.147 398.556 297.505L395.886 315.302C393.614 324.421 392.785 334.324 391.689 343.658C388.875 367.618 386.398 391.258 388.106 415.418L388.191 416.75C385.057 418.999 380.666 423.03 377.007 424.03C379.125 420.658 379.263 415.643 379.762 411.735L383.995 364.5C386.426 339.194 389.924 313.922 390.831 288.496C390.93 285.72 391.777 280.239 390.694 277.78Z"/>
	<path fill="#FEFEFE" d="M294.816 704.75L295.322 704.74C296.21 704.797 297.052 705.062 297.75 705.624C301.291 708.474 302.729 714.66 303.95 718.835C306.142 726.328 307.82 734.034 310.365 741.412C312.299 747.02 315.174 753.293 319.138 757.784C323.842 763.114 328.822 766.085 336 766.549L336.638 765.587L337.403 765.75L334.003 833.605C322.941 833.468 311.203 831.041 300.267 829.425C290.497 827.982 256.831 824.695 250.564 818.04C249.682 817.104 249.637 816.968 249.646 815.75C258.717 807.515 276.231 810.576 287.23 812.73C289.63 813.201 295.431 815.032 297.5 813.909C298.381 813.431 299.2 812.804 299.516 811.844C299.941 810.552 299.86 808.389 299.187 807.2C298.534 806.047 297.49 805.55 296.25 805.226C292.709 804.303 288.731 804.018 285.109 803.378C271.949 801.055 258.531 799.143 245.874 794.716C243.657 793.861 241.462 792.922 239.5 791.56C238.16 790.63 237.197 789.673 236.929 788C236.711 786.644 236.794 785.407 237.564 784.25C246.989 776.93 272.425 787.318 282.727 791.047C286.343 792.356 290.872 794.986 294.75 794.491C296.257 793.361 296.505 793.025 297.274 791.302C296.992 789.505 296.596 788.346 295.054 787.206C292.839 785.567 289.179 784.661 286.593 783.725L270.744 778.2C264.509 776.368 257.986 775.011 251.875 772.833C248.372 771.585 245.008 769.78 241.638 768.205C236.827 765.956 231.615 763.612 227.364 760.395C224.08 757.91 219.276 753.25 218.905 748.968C218.772 747.432 219.047 745.909 220.124 744.75C221.598 743.165 223.883 742.885 225.959 743.037C233.312 743.575 240.797 746.965 247.63 749.58L284.072 764.626C287.5 766.115 292.767 769.746 296.25 769.404C296.585 769.082 297.84 768.102 297.969 767.75C298.992 764.961 295.051 756.972 294.065 754.244C289.693 742.145 283.094 723.222 288.635 710.769C290.102 707.472 291.45 705.978 294.816 704.75Z"/>
	<path fill="#FEFEFE" d="M349.125 444.278C345.957 437.408 338.071 430.676 332.938 425.123L311.302 401.496L292.045 379.669C305.202 363.572 320.059 349.41 335.977 336.065C342.708 330.422 349.415 324.548 356.548 319.417C365.742 312.803 376.057 306.801 386.151 301.662L375.574 408.957C375.513 413.62 375.04 418.677 375.769 423.283L377.007 424.03C371.715 429.737 363.401 434.306 357.081 438.991C355.121 440.443 351.39 443.984 349.125 444.278Z"/>
	<path fill="#231F20" d="M330.719 372.164C333.432 372.323 335.889 372.435 338.358 373.697C342.305 375.714 345.748 379.673 346.989 383.949C348.04 387.574 347.546 391.255 345.646 394.498C342.999 399.014 338.871 401.192 334.029 402.558C329.857 402.594 326.722 402.67 323.056 400.309C319.484 398.009 317.499 394.341 316.84 390.19C316.163 385.924 318.033 381.251 320.62 377.926C323.311 374.468 326.466 372.781 330.719 372.164Z"/>
	<path fill="#FEFEFE" d="M329.012 377.028C330.462 376.946 331.85 376.932 333.281 377.231C335.891 377.775 337.795 379.268 339.208 381.516C340.469 383.522 340.595 386.216 340.044 388.459C339.092 392.335 336.68 394.405 333.393 396.402C331.836 396.592 329.611 396.811 328.094 396.378C325.822 395.728 323.864 393.774 322.725 391.778C321.552 389.724 321.731 387.299 322.374 385.107C323.585 380.977 325.257 379.104 329.012 377.028Z"/>
	<path fill="#231F20" d="M328.502 380.25L330.25 379.946C331.937 381.607 334.873 385.242 335.329 387.564C335.536 388.623 335.001 388.899 334.427 389.75C332.87 390.668 332.022 390.617 330.25 390.424C329.453 389.818 328.871 389.041 328.226 388.279C328.146 386.864 328.279 385.637 328.5 384.25L327.75 383.509C326.783 384.216 326.752 384.399 325.5 384.522L324.748 383.752C325.702 382.221 327.077 381.321 328.502 380.25Z"/>
	<path fill="#FEFEFE" d="M822.135 368.995C824.662 368.942 826.572 368.897 828.516 370.693C831.046 373.032 832.029 375.937 832.75 379.217C834.701 388.092 832.323 396.456 829.815 404.947L822.767 427.283C820.968 432.945 818.803 439.387 819.284 445.405C819.476 447.815 820.266 450.335 822.264 451.85C823.886 453.081 825.427 453.305 827.39 452.889C829.749 452.388 831.385 451.158 832.851 449.25C836.412 444.616 838.497 438.314 840.887 433C843.486 427.219 846.538 421.33 850.069 416.062C853.522 410.911 859.124 403.782 865.676 402.846C866.916 402.669 868.065 403.106 869.009 403.894C870.993 405.548 871.315 408.322 870.972 410.718C869.705 419.56 862.829 426.908 857.125 433.354L844.482 448.032C841.603 451.515 837.114 456.193 837.512 461C837.645 462.61 838.194 464.209 839.531 465.219C841.935 467.034 844.137 466.536 846.661 465.272C850.856 463.172 854.84 458.479 858.364 455.375C865.932 448.709 874.344 442.777 883.428 438.35C887.002 436.608 890.987 434.848 895 434.606C896.678 434.505 898.409 435.199 899.611 436.349C901.134 437.804 901.717 438.965 901.699 441.094C901.581 455.533 868.151 467.064 858.742 476.363L858.113 476.99L857.358 478.493C856.828 479.912 857.141 481.332 857.829 482.634C858.511 483.923 859.9 485.327 861.25 485.911C864.596 487.357 875.381 481.869 878.732 480.59C890.61 476.058 916.367 465.791 928.512 470.488C930.31 471.183 931.654 471.94 932.415 473.75C930.808 477.984 925.316 481.894 921.769 484.573C896.333 503.781 865.796 515.502 838.067 530.845C838.061 528.372 837.979 526.142 837.319 523.748C832.418 505.969 808.264 496.901 793.696 488.651C796.226 482.385 797.619 475.404 799.028 468.813C802.454 452.779 804.389 436.765 805.647 420.429C806.557 408.617 806.92 395.598 810.504 384.25C812.615 377.563 815.829 372.271 822.135 368.995Z"/>
	<path fill="#FEFEFE" d="M399.514 316.264L401.712 294.25C402.04 291.157 402.066 287.574 403.258 284.702C403.464 284.205 403.631 283.651 404.101 283.343C406.022 282.083 412.679 282.122 415.104 281.853L442 279.126C445.517 278.885 449.212 278.364 452.722 278.596L501.955 316.773C500.145 320.374 498.343 323.963 496.149 327.35C494.034 330.614 490.987 333.621 489.593 337.25L490.05 338.25L490.889 338.25C493.644 335.116 495.947 331.517 498.304 328.075C500.425 324.978 502.866 321.649 504.11 318.078L508.262 342.428C507.884 342.647 504.554 344.485 504.506 344.634L471.293 365.171C446.371 375.68 423.827 393.134 401.505 408.201L413.359 302.544L423.859 307.423C425.886 308.436 427.614 309.621 429.821 310.25L429.926 309.548C427.29 307.315 423.83 305.681 420.715 304.208C419.793 303.772 416.857 302.803 416.364 302.083C420.401 301.396 423.609 300.688 426.946 298.11C423.474 298.935 417.141 299.638 414.5 301.87L413.668 301.439L413.73 300.835C413.986 297.792 413.325 295.127 412.237 292.301C410.46 300.19 409.47 308.53 408.255 316.548L400.747 378.434L399.156 401.653C399.048 403.534 399.277 408.173 398.521 409.801C397.834 411.282 392.525 414.14 391.03 415.101L399.514 316.264Z"/>
	<path fill="#231F20" d="M470.188 322.75L471.75 322.527C472.97 323.3 473.417 323.444 473.701 324.979C474.014 326.662 473.622 327.786 472.75 329.15C472.101 329.157 471.658 329.197 471 329.032C469.532 328.664 469.011 327.467 468.421 326.25C468.752 324.266 468.887 324.134 470.188 322.75Z"/>
	<path fill="#231F20" d="M408.675 358.75L409.231 358.721C413.314 360.919 417.454 365.951 420.631 369.373C422.194 371.055 422.545 371.409 422.444 373.75L421.464 373.715L411.33 363.664C410.762 363.073 408.924 361.315 408.75 360.602C408.603 360.002 408.7 359.367 408.675 358.75Z"/>
	<path fill="#FEFEFE" d="M537.578 676.192C551.936 683.459 566.562 689.787 582.488 692.771C588.246 693.85 594.022 694.174 599.857 694.48L599.925 694.84L573.736 734.108C557.977 756.267 537.931 776.379 514.809 790.8C507.908 795.104 500.508 798.449 493.149 801.871C476.103 809.798 458.508 816.426 440.32 821.25C425.545 825.168 410.486 827.805 395.426 830.342C385.542 832.089 375.506 833.011 365.5 833.693C356.115 834.333 346.828 834.829 337.431 834.035C337.6 828.63 338.534 823.077 339.042 817.681C340.535 801.806 342.044 786.449 340.903 770.492C362.416 770.991 384.511 769.899 405.594 765.289C438.039 758.194 467.26 745.55 493.732 725.412C501.852 719.235 509.87 712.54 516.729 704.959C524.735 696.11 531.145 686.192 537.578 676.192Z"/>
	<path fill="#231F20" d="M535.298 705.25L536.941 705.099L537.377 706.25L536.802 707.51C534.777 711.601 530.884 715.286 527.718 718.516C510.609 735.964 487.406 752.342 464.25 760.478C463.607 760.429 463.006 760.281 462.377 760.145L462.063 759.25C465.03 756.745 469.457 755.567 472.893 753.678C478.08 750.825 483.088 747.464 487.991 744.144C504.957 732.655 520.044 718.849 535.298 705.25Z"/>
	<path fill="#FEFEFE" d="M506.044 346.653L561.007 312.744L590.553 374.254C593.584 380.243 596.759 388.535 601.191 393.505C603.495 396.088 607.362 397.807 610.327 399.57L630.273 411.309C648.235 422.081 665.195 434.346 683.954 443.761L704.057 452.856L744.35 473.476L792.164 496.3C801.293 501.054 810.633 505.922 818.817 512.233C826.426 518.101 830.694 523.656 832.163 533.245C826.368 536.703 820.011 539.327 813.954 542.309L785.088 557.006L720.641 592.304C689.647 610.354 658.811 630.102 632.975 655.199C621.928 665.929 611.776 678.077 602.831 690.615C588.309 686.899 573.615 684.269 559.357 679.496C552.726 677.276 546.417 674.184 539.969 671.496L551.208 650.267C553.304 646.17 556.136 641.435 557.028 636.932C552.725 641.297 549.576 646.871 546.172 651.946L534.686 668.484C502.057 650.027 471.523 626.663 444.51 600.685L413.212 568.25L397.272 549.405L374.619 523.75L338.846 480.934L328.124 469.252L475.562 365.691C486.121 360.843 496.112 352.796 506.044 346.653Z"/>
	<path fill="#231F20" d="M601.569 585.75L602.75 586.049L602.977 587C602.042 591.15 598.531 595.443 596.243 599.066C593.078 604.077 590.153 610.408 585.75 614.412L584.541 613.5C584.232 612.37 584.039 611.562 584.392 610.417C585.092 608.144 586.457 605.846 587.561 603.741C590.753 597.653 595.46 589.229 601.569 585.75Z"/>
	<path fill="#231F20" d="M547.739 476.75L548.244 477.065L548.232 477.533C547.783 480.318 543.366 483.83 541.247 485.599C530.223 494.804 517.302 502.488 504.653 509.25L482.559 520.788L453.897 538.75L453.183 538.477C455.113 535.483 459.757 532.945 462.667 530.956L478 520.532L531.235 486.697L547.739 476.75Z"/>
	<path fill="#231F20" d="M550.161 494.75L551.75 494.509L552.501 495.5C551.396 498.725 549.682 501.721 547.65 504.451C538.428 516.841 526.959 527.926 516.455 539.23L482.75 575.452L481.5 576.462L481.023 576.25C482.891 572.226 487.032 568.172 489.865 564.653L512.914 536.476C519.073 528.865 524.433 520.851 530.999 513.515C536.882 506.942 543.187 500.176 550.161 494.75Z"/>
	<path fill="#231F20" d="M709.738 495.56L710.129 495.521L710.781 495.487C711.481 495.431 712.156 495.331 712.864 495.401C716.028 495.713 720.101 498.932 723.192 500.176C727.2 501.789 731.799 502.006 735.656 503.757C736.962 504.349 738.068 505.417 738.95 506.529C740.238 508.152 740.706 510.212 740.341 512.25C739.797 515.292 737.636 518.649 735.082 520.379C729.91 523.88 725.568 522.806 719.856 521.829C716.17 527.461 712.557 533.118 707.86 537.972C694.076 552.217 673.924 561.19 653.993 561.462C634.564 561.728 619.649 550.692 606.382 537.741C602.35 533.661 597.49 529.391 594.361 524.587C593.457 523.199 593.63 522.039 593.933 520.5C594.75 519.413 595.27 518.912 596.496 518.317C597.86 518.321 599.058 518.437 600.135 519.344C602.4 521.252 604.369 523.83 606.489 525.942C615.308 534.729 624.643 544.157 636.407 548.82C651.377 554.754 667.274 552.794 681.796 546.323C694.413 540.702 705.939 530.515 711 517.519C708.264 515.542 704.764 513.508 703.123 510.496C701.869 508.194 701.477 504.85 702.329 502.343C703.559 498.723 706.584 497.183 709.738 495.56Z"/>
	<path fill="#231F20" d="M590.726 409.171C597.284 408.092 604.464 409.973 609.966 413.605C615.523 417.275 620.576 424.141 621.669 430.736C622.884 438.062 618.597 448.081 614.325 454.088C608.104 462.835 598.833 467.077 588.567 468.894C580.352 469.727 572.092 469.403 565.136 464.336C559.83 460.472 557.44 454.956 556.417 448.609C555.117 440.55 556.164 430.28 561.037 423.596C568.011 414.029 579.537 410.683 590.726 409.171Z"/>
	<path fill="#FEFEFE" d="M593.011 414.71C597.632 414.384 602.693 415.267 606.75 417.572C611.737 420.406 615.732 426.405 617.093 431.899C618.221 436.453 614.938 445.333 612.412 449.081C607.028 457.068 598.007 459.821 589.028 461.482C582.441 461.76 573.812 462.205 568.44 457.682C564.878 454.682 563.441 447.77 562.989 443.305C562.294 436.428 563.382 428.082 568.11 422.75C573.026 417.205 585.917 415.294 593.011 414.71Z"/>
	<path fill="#231F20" d="M591.512 421.11C595.358 420.961 599.353 420.775 602.99 422.278C605.921 423.489 607.862 425.339 608.934 428.305C610.271 432.005 609.766 437.276 607.972 440.75C605.907 444.75 602.657 446.157 598.6 447.457C594.194 448.549 590.252 448.524 586.164 446.37C583.783 445.116 581.345 442.598 580.69 439.918C579.643 435.631 580.864 429.03 583.287 425.422C585.336 422.372 588.096 421.776 591.512 421.11Z"/>
</svg>
