<?xml version="1.0" encoding="utf-8" ?>
<svg xmlns="http://www.w3.org/2000/svg" xmlns:xlink="http://www.w3.org/1999/xlink" width="1024" height="1024">
	<path fill="#FEFEFE" d="M-0 -0L1024 0L1024 1024L-0 1024L0 -0Z"/>
	<path fill="#231F20" d="M879.345 405.09L881.318 405.023C885.841 405.02 891.05 405.27 894.36 408.61C894.608 410.044 894.649 410.666 894.125 412.083C892.641 413.437 891.312 413.848 889.409 414.423C886.399 414.77 883.678 414.899 880.708 414.151C878.042 413.48 876.018 412.673 874.563 410.25C874.527 408.695 874.371 408.002 875.111 406.607C876.437 405.714 877.818 405.453 879.345 405.09Z"/>
	<path fill="#231F20" d="M753.054 288.75C754.38 288.446 754.982 288.614 756.25 289.071C757.415 290.34 758.078 291.314 758.486 293.004L758.654 293.75C759.415 296.969 760.07 301.337 759.258 304.594C758.724 306.735 757.57 307.883 755.75 308.998L754.933 309.211C753.552 309.373 753.068 308.901 752.193 307.945C749.503 305.006 749.296 295.415 749.528 291.5C750.491 290.052 751.532 289.539 753.054 288.75Z"/>
	<path fill="#231F20" d="M813.314 300.25C814.012 300.136 815.061 299.87 815.75 299.988C816.659 300.144 817.198 300.476 817.771 301.162C818.871 302.48 819.039 304.546 818.803 306.183C818.02 311.602 814.435 316.367 810.106 319.473C809.68 319.613 809.308 319.759 808.848 319.79C807.559 319.874 806.839 319.336 805.898 318.56C805.367 317.363 805.219 316.348 805.388 315.055C805.985 310.485 809.796 303.146 813.314 300.25Z"/>
	<path fill="#231F20" d="M869.379 341.533C871.555 341.436 872.842 341.444 874.645 342.86C875.253 344.237 875.517 344.572 875.056 346.092C873.692 350.593 866.939 353.878 862.976 355.835L860 356.095C858.264 355.93 858.036 355.239 857.069 354C856.951 352.692 856.804 351.593 857.444 350.376C860.015 345.488 864.378 343.21 869.379 341.533Z"/>
	<path fill="#231F20" d="M910.295 502.75C911.178 502.553 912.098 502.563 913 502.518C916.988 505.071 917.038 513.772 920.289 517.552C923.082 520.802 932.303 518.268 936.25 519.476C937.605 519.891 937.872 520.862 938.507 522C938.504 522.441 938.649 523.93 938.491 524.25C936.708 527.873 929.534 529.358 926.641 532.603C923.771 535.821 922.2 541.217 920.49 545.191C920.126 546.187 919.5 546.91 918.723 547.617C917.879 548.384 917.023 548.664 915.89 548.61C914.166 548.527 914.159 548.323 912.992 547L910.666 537.841C907.718 529.622 903.18 532.858 897.25 529.926C896.304 528.703 896.242 528.54 896.106 527C897.348 525.16 899.035 524.2 900.757 522.868C906.645 518.316 906.356 513.599 907.513 507C907.975 504.364 908.175 504.224 910.295 502.75Z"/>
	<path fill="#FEFEFE" d="M911.674 517.75L912.54 517.783L914.448 520.756C916.582 523.884 918.474 524.925 922.096 525.59L922.862 525.727L917.9 532.39L916.75 534.204L916.25 533.808C915.296 530.795 913.478 528.666 910.731 527.111C909.851 526.613 909.621 526.583 908.994 525.75C911.216 523.822 911.336 520.476 911.674 517.75Z"/>
	<path fill="#231F20" d="M361.781 256.75C362.351 256.566 362.613 256.457 363.252 256.377C364.895 256.172 365.528 256.496 366.75 257.504C367.581 260.49 367.316 263.443 367.513 266.5C367.645 268.539 367.94 270.72 369.594 272.118C372.312 274.414 378.379 274.202 381.724 273.577C383.45 273.254 385.164 272.416 386.924 272.396C388.439 272.378 388.515 272.501 389.547 273.5C390.608 279.591 379.89 288.095 376.237 292.766C373.833 295.839 371.76 299.906 370.499 303.589L370.293 304.214C369.939 305.737 369.975 307.695 369.232 309.055C368.739 309.958 368.027 310.48 367 310.682C366.234 310.832 365.423 310.637 364.747 310.283C361.085 308.363 361.89 299.463 360.634 295.63C359.778 293.018 357.546 288.157 355.002 286.652C353.193 285.582 350.448 285.641 348.5 284.487C346.999 283.597 346.641 282.364 346.275 280.75C346.809 279.376 347.052 279.204 348.403 278.536C350.06 277.716 352.056 277.792 353.62 277.064C354.041 276.868 355.082 275.284 355.366 274.888C356.957 272.67 358.244 270.154 358.929 267.5C359.803 264.115 359.339 259.216 361.781 256.75Z"/>
	<path fill="#FEFEFE" d="M362.541 278.25C364.201 277.936 366.448 279.792 368.154 280.293C370.461 280.97 372.857 281.364 375.22 281.792L369.908 288.185L367.41 291.86C365.954 288.485 364.632 285.248 362.13 282.484C361.431 281.713 360.899 281.288 360.647 280.25L362.541 278.25Z"/>
	<path fill="#231F20" d="M530.791 794.574C533.266 794.211 535.786 794.151 538.111 795.2C542.181 797.036 544.754 801.117 546.29 805.149L546.605 806C547.906 809.399 547.972 813.756 546.835 817.231L546.568 818C544.806 823.335 541.646 827.887 537.018 831.136C530.034 836.038 521.66 835.62 513.688 834.204C508.958 833.125 502.581 831.24 499.224 827.495C497.367 825.424 496.819 823.479 497.001 820.75C499.797 814.724 505.291 817.564 510.5 817.526C511.528 817.519 513.09 817.196 513.75 816.334C514.822 814.935 515.499 812.717 516.206 811.069C519.63 803.096 522.663 798.292 530.791 794.574Z"/>
	<path fill="#FEFEFE" d="M531.596 801.75C532.612 801.573 533.89 801.288 534.888 801.65C536.739 802.32 538.357 804.586 539.155 806.294C540.658 809.514 540.905 814.014 539.628 817.325C538.233 820.943 534.885 824.924 531.227 826.393L530.537 826.651C527.602 827.77 524.366 827.763 521.26 827.945L510.748 825.815C512.703 825.269 514.942 824.775 516.75 823.86C520.819 821.8 522.043 814.685 523.51 810.75C524.966 806.843 527.752 803.453 531.596 801.75Z"/>
	<path fill="#231F20" d="M529.491 812.75C530.493 812.444 530.717 812.469 531.75 812.684C532.579 813.966 532.86 814.7 532.453 816.25C532.057 817.757 531.02 818.588 529.75 819.337L528 819.021C527.034 817.893 526.904 817.707 526.661 816.25C527.429 814.578 528.011 813.836 529.491 812.75Z"/>
	<path fill="#231F20" d="M241.853 426.63C244.33 426.466 246.299 426.666 248.683 427.392C253.871 428.97 259.046 432.721 261.439 437.685C265.972 447.088 258.512 461.379 257.811 471.25C257.551 474.917 260.236 480.235 259.212 483.25C258.56 483.901 257.994 484.573 257.103 484.884C254.15 485.918 249.404 483.152 246.705 481.98C240.28 479.144 235.21 476.027 230.877 470.337C227.024 465.277 224.504 459.342 222.484 453.359C221.825 451.408 220.974 449.693 221.322 447.579L221.432 447C221.861 444.503 222.915 442.223 224.156 440.027C228.346 432.606 233.808 428.87 241.853 426.63Z"/>
	<path fill="#FEFEFE" d="M242.963 433.621C245.49 433.591 248.376 434.583 250.5 435.92C252.746 437.334 254.955 439.536 255.514 442.228L255.61 442.75C256.995 449.77 252.817 458.131 251.574 465.1C250.946 468.62 251.068 472.41 251.015 475.983L244.449 472.965C237.384 468.56 231.605 460.66 229.499 452.552C228.348 448.118 229.062 444.79 231.462 441C234.371 436.408 237.871 434.777 242.963 433.621Z"/>
	<path fill="#231F20" d="M241.792 441.75L242.274 441.6C243.738 441.245 244.151 441.224 245.404 442.047C245.541 442.597 245.567 442.581 245.562 443.25C245.536 446.401 242.928 449.469 240.75 451.461C240.099 451.713 239.427 451.852 238.75 452.02L237.651 450.905C237.535 450.207 237.375 449.464 237.476 448.75C237.852 446.106 239.794 443.402 241.792 441.75Z"/>
	<path fill="#231F20" d="M606.719 197.559C608.808 197.225 611.146 197.139 613.25 197.472C615.205 197.781 616.56 199.114 617.562 200.745C619.651 204.142 619.304 207.831 618.313 211.52L618.046 212.5C614.424 226.184 605.865 238.324 597.435 249.468C590.504 258.631 583.495 267.189 574.78 274.739C572.485 274.152 570.147 272.567 568.052 271.449L566.5 270.567C565.016 269.745 563.422 268.973 562.131 267.858C560.699 266.621 559.417 264.855 557.864 263.817C556.467 262.884 554.517 262.355 552.935 261.798C553.248 259.167 553.916 256.781 554.964 254.358C558.401 246.408 563.61 239.092 568.75 232.155C578.859 218.515 590.491 203.93 606.719 197.559Z"/>
	<path fill="#FEFEFE" d="M609.985 203.25C611.384 203.398 611.364 203.5 612.363 204.515C612.583 205.471 612.715 206.223 612.569 207.206C610.492 221.206 585.896 259.518 574.656 267.855C572.633 267.246 570.484 265.097 568.799 263.798C566.24 261.89 563.692 260.18 562.682 257C562.92 254.076 564.996 251.426 566.536 249.021L574.468 236.833C581.333 227.079 588.682 217.316 597.968 209.724C601.573 206.777 605.288 204.08 609.985 203.25Z"/>
	<path fill="#231F20" d="M568.788 250.25C569.344 250.144 570.164 249.93 570.75 249.985C572.162 250.117 573.225 250.855 574.123 251.894C575.282 253.234 575.936 255.223 575.526 257C575.185 258.481 574.154 258.922 573.024 259.75C572.572 259.877 572.228 260.006 571.736 259.984C570.302 259.917 568.825 258.749 567.866 257.75C566.828 256.669 566.165 255.014 566.342 253.5C566.538 251.823 567.598 251.228 568.788 250.25Z"/>
	<path fill="#231F20" d="M582.6 234.25C583.025 234.142 583.568 233.974 584.005 234.005C585.587 234.117 586.119 234.844 587.157 235.888C587.663 237.351 587.717 238.43 587.423 239.967C586.851 242.958 584.672 245.598 582.203 247.25C580.539 247.503 578.501 246.35 576.993 245.715C577.643 240.887 578.741 237.493 582.6 234.25Z"/>
	<path fill="#231F20" d="M735.599 346.283C742.084 345.72 748.617 346.045 755.093 346.563C781.877 348.703 808.845 361.741 826.303 382.337C837.371 395.395 843.501 409.653 847.457 426.186C848.318 429.785 849.836 433.508 849.523 437.25C849.099 438.24 848.478 438.843 847.558 439.381C844.419 441.217 840.395 442.161 837.032 443.628L813.188 455.013C810.968 456.236 807.331 458.926 804.75 458.498C803.452 458.283 802.268 457.524 801.75 456.288C800.716 453.822 800.339 450.622 799.493 448C797.169 440.802 793.076 433.813 788.366 427.929C772.528 408.144 750.849 397.524 725.903 394.643C719.846 393.944 713.67 394.528 707.716 393.782C705.423 393.494 704.98 392.965 703.671 391.25C702.868 385.831 706.377 377.756 707.907 372.443C710.314 364.081 712.095 354.531 716.128 346.809C718.429 346.249 721.083 346.564 723.453 346.565L735.599 346.283Z"/>
	<path fill="#FEFEFE" d="M733.736 353.236C738.333 353.238 742.878 352.829 747.5 353.008C766.598 353.748 786.031 359.1 801.984 369.823C823.861 384.527 836.88 406.378 841.809 431.996C833.547 434.56 825.12 440.09 817.368 444.031L808.623 447.977C806.692 443.41 804.932 438.531 802.56 434.188C798.945 427.569 793.839 421.316 788.566 415.941C768.119 395.101 741.091 385.524 712.252 385.127L712.307 384.633L712.419 383.813C713.104 378.579 714.944 373.608 716.285 368.517C717.207 365.014 718.377 357.639 720.873 355.007C722.808 352.966 730.817 353.365 733.736 353.236Z"/>
	<path fill="#231F20" d="M727.089 364.75C728.144 364.542 728.234 364.5 729.208 364.932C728.804 366.437 727.921 367.747 727.541 369.25C726.869 371.909 728.322 374.47 729.003 376.981L727.75 377.535C726.046 376.901 725.302 376.631 724.25 375.045C723.259 373.551 723.035 370.607 723.568 368.93C724.232 366.835 725.253 365.869 727.089 364.75Z"/>
	<path fill="#231F20" d="M735.154 363.25L735.851 362.942C737.858 362.463 740.744 363.417 742.215 364.785C744.351 366.773 745.562 369.296 745.466 372.25C745.373 375.106 744.075 377.309 742.082 379.25C740.49 379.283 740.158 379.241 738.75 378.512L738.454 377.25C739.448 375.798 740.478 374.351 741.036 372.664C741.401 371.559 741.529 370.529 741.005 369.468C740.11 367.655 738.968 367.04 737.077 366.456C736.044 366.138 735.376 366.026 734.582 365.25L735.154 363.25Z"/>
	<path fill="#231F20" d="M818.361 417.503L819.639 417.491C822.467 417.7 825.741 419.297 827.558 421.492C829.159 423.427 830.437 426.279 830.312 428.814C829.004 429.877 828.417 430.287 826.75 430.525C824.968 429.394 825.276 427.152 824.496 425.257C823.969 423.978 822.985 423.035 821.701 422.532C819.624 421.718 817.783 421.791 815.779 422.72L815.351 422.93C813.532 424.806 812.707 426.456 812.191 429C813.193 430.541 813.826 431.719 814.25 433.515C812.979 434.661 812.658 434.414 811 434.408C809.678 433.544 808.93 433.069 808.368 431.5C807.589 429.326 808.251 426.864 809.19 424.859C811.133 420.715 814.291 419.009 818.361 417.503Z"/>
	<path fill="#231F20" d="M802.709 578.534C806.824 578.429 809.701 578.595 813.497 580.437C816.494 581.891 819.24 583.959 822.083 585.69L837.222 595.012L894.5 633.955L918.777 650.57C923.602 653.832 929.103 656.964 933.454 660.823C935.491 662.63 949.919 676.027 950.103 677.178C950.141 677.421 949.034 679.253 948.886 679.5C947.018 682.605 944.518 685.384 942.203 688.156C942.074 688.309 941.779 688.42 941.818 688.616C941.849 688.773 943.139 690.195 943.334 690.427L949.74 697.762C950.459 698.578 952.003 700.074 952.345 701.099C952.546 701.701 952.418 702.366 952.455 703C950.499 706.103 946.931 708.817 944.238 711.341C947.04 715.108 949.481 718.492 951.33 722.836L942.811 732.119C942.684 732.288 941.455 733.84 941.45 734.042C941.429 734.814 942.893 736.721 943.339 737.392C945.694 740.933 949.35 744.954 949.985 749.25C949.708 749.796 949.456 750.287 949.048 750.75C947.081 752.984 943.501 754.733 941.02 756.388L904.777 778.051L875.75 794.993C866.955 799.717 858.001 803.116 848.702 806.649C841.078 809.545 833.168 812.994 825.25 814.891C820.458 816.039 815.142 816.423 810.224 816.555C805.782 816.675 801.972 815.419 798.113 813.28C790.551 809.088 784.248 802.803 777.536 797.427L763.211 786.33L730.159 757.246L684.9 713.339C683.136 711.621 681.302 709.745 680.18 707.534C679.055 705.314 678.693 702.833 678.088 700.444C675.81 691.447 675.293 682.482 675.164 673.245C675.062 665.971 677.306 661.473 682.326 656.323L783.112 734.624L788.578 729.808L739.503 690.414L710.635 668.75C703.178 663.201 694.284 657.951 688.369 650.762L730.574 625.737L760.113 605.745L780.844 592.448C787.745 587.906 794.999 581.448 802.709 578.534Z"/>
	<path fill="#FEFEFE" d="M690.464 700.25C691.467 700.011 692.474 700.042 693.5 700.013C694.283 700.364 695.045 700.666 695.624 701.326C696.621 702.462 697.685 704.76 697.448 706.292C697.127 708.364 696.34 709.127 694.725 710.25C693.905 710.422 693.086 710.397 692.25 710.421C690.582 709.525 689.252 708.466 688.13 706.913C687.163 705.575 687.322 704.288 687.504 702.75C688.36 701.241 688.883 700.959 690.464 700.25Z"/>
	<path fill="#FEFEFE" d="M692.849 670.75C694.178 670.618 695.462 670.915 696.651 671.515C698.276 672.336 699.575 673.936 700.061 675.7C700.473 677.191 700.016 678.932 699.261 680.243C698.357 681.812 696.901 682.269 695.25 682.695C694.274 682.864 693.573 682.845 692.641 682.526C691.084 681.994 689.864 680.965 689.155 679.468C688.426 677.929 688.24 675.899 688.879 674.297C689.585 672.527 691.198 671.498 692.849 670.75Z"/>
	<path fill="#FEFEFE" d="M807.219 764.75L807.885 765.051C807.988 766.544 808.601 768.976 808.327 770.39C807.594 774.164 805.35 778.47 804.019 782.155C799.772 782.107 796.228 782.163 792.317 780.23C790.685 778.807 789.21 777.243 788.725 775.054C788.377 773.486 789.13 771.512 790.062 770.25C793.616 765.439 801.73 765.533 807.219 764.75Z"/>
	<path fill="#FEFEFE" d="M706.258 680.29L729.531 698.782L757.309 722.005L772.6 734.228C775.582 736.629 778.953 739.007 781.435 741.923C783.388 744.217 783.165 745.344 782.93 748.25L782.027 748.445C780.606 747.407 779.742 745.95 778.479 744.75L767.832 735.568L748.682 720.332L730.935 704.866C724.162 699.149 715.806 694.557 709.762 688.166C707.409 685.678 707.06 683.533 706.258 680.29Z"/>
	<path fill="#FEFEFE" d="M938.918 715.25C939.567 715.125 939.916 715.163 940.559 715.25C942.359 717.338 943.664 719.355 944.986 721.756C944.092 722.998 943.119 724.059 942.008 725.108C929.203 737.205 914.086 746.205 898.987 755.069C884.261 763.714 868.657 772.514 852.368 777.836C840.797 781.617 829.581 783.739 817.378 783.348C815.264 783.121 812.17 783.037 810.277 782.106C810.914 779.864 811.889 774.404 813.321 772.685C813.404 772.586 814.383 772.351 814.455 772.337C816.628 771.909 819.111 772.019 821.339 771.757C826.894 771.104 832.47 770.325 837.904 768.982C865.105 762.258 892.454 749.225 915.385 733.135L938.918 715.25Z"/>
	<path fill="#FEFEFE" d="M936.535 692.75L937.747 692.528C940.312 694.179 944.559 698.698 945.725 701.5C945.503 702.144 945.309 702.699 944.893 703.25C943.52 705.068 941.308 706.714 939.582 708.193L929.441 716.71C898.903 741.598 860.73 762.897 820.986 766.474C818.554 766.436 813.809 766.57 811.903 765.003C811.983 764.723 811.939 764.373 812.142 764.165C812.338 763.963 833.217 756.953 835.362 756.092C861.765 745.504 887.594 731.207 910.25 713.965C919.02 707.291 927.013 699.517 935.991 693.131L936.535 692.75Z"/>
	<path fill="#FEFEFE" d="M934.643 736.434C937.682 739.159 940.352 742.4 942.257 746.009C924.083 759.186 903.672 770.16 883.701 780.379L864.66 790.396C854.23 795.414 842.868 799.843 831.904 803.54C822.833 806.599 813.076 809.016 804.095 804.584C801.86 802.942 799.964 801.395 798.366 799.071C796.997 797.079 796.848 794.958 797.278 792.642L798.296 786.916L815.978 789.472C817.3 789.6 818.824 790.126 820.123 789.993C825.771 789.412 831.415 788.872 836.963 787.597C860.398 782.213 881.296 770.338 901.851 758.332C913.364 751.607 924.471 745.149 934.643 736.434Z"/>
	<path fill="#231F20" d="M819.517 793.25L820.718 793.068C823.065 794.906 825.623 796.651 827.327 799.133C826.974 800.472 826.321 800.626 825.25 801.416C823.898 801.501 822.735 801.503 821.469 800.949C819.23 799.971 818.128 798.536 817.213 796.34C817.618 794.392 817.989 794.411 819.517 793.25Z"/>
	<path fill="#FEFEFE" d="M781.659 621.25C786.927 622.99 791.717 628.301 795.137 632.455C800.783 629.316 808.252 626.237 814.81 626.598C822.71 627.034 831.69 630.856 836.981 636.818C841.52 641.935 842.991 648.323 842.534 655C842.064 661.883 837.899 666.707 832.944 670.982C835.902 673.048 848.334 681.767 849.319 684.487C849.604 685.274 848.793 686.084 848.406 686.75C847.242 687.596 846.367 688.113 845 687.52C841.706 686.093 830.403 674.892 828.554 674.919C826.926 674.943 824.255 676.196 822.611 676.655C819.735 677.457 816.8 677.845 813.824 678.028C804.723 678.589 796.777 676.862 789.829 670.523C785.848 666.892 781.999 660.288 781.857 654.81C781.643 646.617 786.282 640.666 791.677 635.101C787.413 632.991 782.082 628.446 779.759 624.25C780.286 622.664 780.432 622.373 781.659 621.25Z"/>
	<path fill="#231F20" d="M812.756 631.649C818.818 631.07 824.603 632.148 829.5 635.963C833.637 639.185 837.562 643.955 838.029 649.388C838.469 654.511 836.454 659.226 833.316 663.162C828.443 669.274 820.09 672.055 812.621 672.934C806.497 673.179 801.732 672.124 796.564 668.708C792.671 666.134 788.27 661.469 787.4 656.779C786.424 651.52 787.836 646.057 791.088 641.826C795.986 635.453 805.178 632.836 812.756 631.649Z"/>
	<path fill="#FEFEFE" d="M930.681 665.205C935.786 669.139 939.514 672.681 943.446 677.845L942.554 679.042C938.764 683.504 934.263 687.643 930.002 691.647C911.315 709.201 889.973 722.814 867.705 735.327C852.076 744.11 834.946 753.806 816.884 755.919C814.203 754.733 811.526 753.574 809.909 750.961C808.944 749.401 808.664 747.846 809.098 746.069C810.719 745.31 812.23 745.59 813.965 746.048C816.698 746.769 819.584 746.699 822.407 746.516C825.977 746.285 833.952 744.86 836.212 742.25C836.041 740.628 836.199 740.437 835.035 739.336C831.567 739.262 827.716 740.513 824.3 741.224C819.124 741.821 811.274 739.837 806.708 741.833C805.284 742.455 804.09 744.775 803.618 746.188C802.196 750.444 804.871 754.549 807.054 757.924C801.89 758.602 796.869 757.971 792.25 755.436C790.079 754.245 787.487 752.04 786.878 749.547C786.014 746.013 786.639 742.585 788.638 739.544C794.359 730.838 828.343 729.248 838.824 727.11C845.886 725.669 852.874 723.062 859.24 719.7C869.637 714.21 879.039 706.845 888.584 700.046L909.927 684.57C917.592 678.861 925.369 673.306 930.681 665.205Z"/>
	<path fill="#231F20" d="M511.417 181.75L512.292 181.548C514.066 181.302 515.914 181.477 517.319 182.682C519.127 184.232 519.901 192.969 520.924 195.881C522.482 200.314 524.808 204.432 526.396 208.845L534.161 232.065L548.993 274.947C553.214 288.879 556.399 302.832 559.234 317.09C560.206 312.613 561.033 307.895 562.891 303.688C565.629 297.485 570.816 291.763 575.306 286.734C582.882 278.25 615.29 249.768 625.429 249.457C628.35 249.367 630.662 250.147 632.697 252.308C634.612 254.343 635.21 257.014 634.925 259.75C633.375 274.584 608.267 303.119 598.293 314.796C594.154 319.642 590.123 324.906 585.462 329.25C581.784 332.678 577.754 336.671 573.534 339.393C570.341 341.452 566.881 342.798 563.905 345.22C563.572 348.574 564.193 352.382 564.285 355.787C564.445 361.689 564.349 367.629 565.047 373.5C566.357 384.511 569.349 395.288 571.465 406.166C577.566 400.648 588.521 390.085 597.172 390.456C599.072 390.538 600.388 391.077 601.598 392.568C603.349 394.725 603.77 397.789 603.463 400.473C602.921 405.218 600.049 410.496 597.831 414.656C593.005 423.706 587.305 433.925 579.074 440.325L578.433 440.82C578.023 443.031 579.191 446.413 579.645 448.73L581.903 462.193C606.326 458.933 632.402 460.09 656 467.504C666.655 470.852 676.538 475.453 686.534 480.361L690.272 470.983C694.669 461.476 699.804 452.6 706.908 444.826C708.555 443.025 710.83 440.468 713.25 439.854C714.671 439.494 715.08 439.941 716.25 440.648C717.015 441.923 717.355 442.851 717.567 444.327L717.657 445C718.679 452.124 716.359 459.651 714.636 466.5L711.16 483.374L718.489 475.604C724.671 469.597 731.578 464.069 738.857 459.453C741.558 457.741 744.634 455.632 747.732 454.75C748.773 454.453 749.549 454.421 750.483 455C751.614 455.7 752.298 456.745 752.474 458.07C753.598 466.501 736.707 484.678 731.454 491.644C738.992 491.1 746.486 490.183 754.016 491.3C758.268 491.93 762.398 493.772 764.864 497.504C765.73 498.813 766.166 501.259 765.74 502.771C763.54 510.594 745.409 512.694 738.891 515.44C731.86 518.402 726.282 521.923 720.995 527.438C707.472 541.545 702.297 561.95 692.019 578.319C684.024 591.052 675.369 603.298 665.502 614.659L651.391 629.774C634.861 648.273 618.416 667.6 598.594 682.78C589.827 689.493 580.203 694.956 570.942 700.927C561.329 707.124 552.112 713.35 541.938 718.645C529.696 724.675 516.771 729.172 504.004 733.931L449.99 751.936C413.511 762.129 376.024 768.878 338.486 773.697C300.135 778.62 261.604 779.482 223.063 776.966C209.425 776.076 195.944 775.115 182.455 772.783C166.322 769.993 149.595 765.403 133.876 760.748C118.526 756.201 101.039 750.902 88.25 741.004C79.7025 734.388 71.7048 724.311 70.3579 713.263C67.8419 692.625 81.7653 671.241 93.8655 655.725C105.94 640.242 121.035 626.784 136.44 614.705C164.951 592.35 195.733 574.583 227.812 557.886C262.603 539.776 298.374 524.186 335.608 511.802C357.241 504.606 379.889 498.098 402.561 495.317L402.519 466.75C402.638 464.231 403.131 461.758 403.341 459.25C403.623 455.869 403.449 452.443 403.665 449.054L405.842 424.304L412.954 379.766C417.166 356.395 422.015 333.435 429.119 310.732C439.322 278.131 455.64 246.057 475.957 218.608C482.854 209.291 490.227 200.066 498.714 192.143C502.483 188.625 506.874 184.126 511.417 181.75Z"/>
	<path fill="#FEFEFE" d="M594.817 398.25L596.191 398.153C596.525 399.203 596.539 399.574 596.273 400.684C593.97 410.3 588.841 419.542 583.505 427.767C581.929 430.195 579.694 433.872 577.25 435.436L576.75 433.529L572.86 413.303C579.685 407.293 586.042 401.21 594.817 398.25Z"/>
	<path fill="#FEFEFE" d="M625.325 257.25C626.91 257.231 627.115 257.132 628.392 258.028L628.494 258.749C629.399 269.426 588.547 316.971 579.633 326.964C574.864 332.311 569.235 337.092 564.803 342.676L564.353 343.25L563.785 342.807L561.853 326.981C561.628 324.958 560.984 322.434 562.117 320.615C569.092 309.413 578.726 299.29 587.602 289.547C596.719 279.54 606.316 268.103 617.736 260.668C620.087 259.137 622.649 258.067 625.325 257.25Z"/>
	<path fill="#FEFEFE" d="M402.855 510.75C403.406 510.717 403.834 510.891 404.358 511.041L406.781 533.734C404.705 529.699 402.055 523.601 397.151 522.414C396.07 522.152 395.034 522.147 394.024 522.638C390.739 524.232 387.555 526.997 384.5 529.027L362.3 543.871L308.25 578.951L307.25 578.244L291.929 551.524L347.157 527.531C352.258 525.435 357.151 522.791 362.364 520.968C375.368 516.421 389.42 513.748 402.855 510.75Z"/>
	<path fill="#231F20" d="M363.036 529.561L366.25 529.605L367.078 530.75L366.75 531.695L353.823 536.073C352.39 536.636 351.29 537.381 349.75 537.097L349.478 535.75C351.464 532.685 359.541 530.623 363.036 529.561Z"/>
	<path fill="#231F20" d="M335.162 545.25L335.482 545.204C337.173 545.166 337.23 545.389 338.465 546.5L338.397 547.36C330.908 550.122 324.119 554.181 317.219 558.14C316.412 558.38 315.833 558.407 315 558.432L314.486 557.5L315.25 556.284C322.218 553.285 328.15 548.091 335.162 545.25Z"/>
	<path fill="#FEFEFE" d="M592.853 473.723C610.058 473.466 628.625 474.178 644.5 481.569C648.169 483.277 651.734 485.467 655.081 487.732C655.992 488.349 657.484 489.224 658.034 490.207C659.672 493.131 660.104 498.015 661.338 501.297L661.508 501.735L634.409 540.368L619.019 559.984C614.451 556.385 610.205 551.737 606.728 547.068C600.679 538.944 597.353 528.513 594.249 518.986C590.224 506.639 586.454 494.151 585.029 481.193C584.79 479.019 584.117 476.35 584.436 474.208L592.853 473.723Z"/>
	<path fill="#FEFEFE" d="M395.114 526.25L396.506 525.936C399.043 527.156 401.284 531.688 402.511 534.173C408.712 546.735 412.04 560.283 416.332 573.554L426.524 603.193C431.135 615.103 436.807 626.362 442.519 637.761C433.594 645.27 423.523 651.352 414 658.061L370.107 688.642L319.241 720.666C311.416 725.82 303.182 731.018 295.781 736.744C291.334 740.186 287.443 744.271 282.877 747.558C281.031 745.151 279.723 742.374 278.326 739.693L223.033 640.415L395.114 526.25Z"/>
	<path fill="#231F20" d="M377.839 661.25L379.331 661.174L380.111 662.25C379.189 664.333 374.016 666.672 372 668.057C369.206 669.975 366.633 672.098 363.75 673.906C362.822 674.011 362.677 674.117 361.774 673.75C361.622 672.695 361.71 672.228 362.128 671.25L377.839 661.25Z"/>
	<path fill="#231F20" d="M364.101 650.75L364.967 651.051L365.469 652.25L346.25 664.916C345.504 664.703 345.214 664.449 344.618 663.975L344.75 662.99L355.472 656.264C358.307 654.369 361.007 652.202 364.101 650.75Z"/>
	<path fill="#231F20" d="M265.91 657.75C267.237 657.411 267.767 657.437 269.051 657.914C270 659.626 269.643 661.442 269.611 663.375L269.388 675.483L268.25 676.153C266.836 676.082 266.407 676.158 265.25 675.384C263.879 670.632 263.932 662.302 265.91 657.75Z"/>
	<path fill="#231F20" d="M314.149 648.25C314.802 648.057 315.279 648.104 315.953 648.13C316.576 648.734 317.385 649.16 317.462 650.067C317.785 653.86 316.259 658.91 315.768 662.75L310.909 698.687C310.659 700.524 310.947 705.327 310.261 706.75C310.026 707.239 309.587 707.601 309.25 708.026C307.747 708.405 307.752 708.405 306.348 707.75C305.104 703.904 312.413 653.307 314.149 648.25Z"/>
	<path fill="#231F20" d="M296.189 629.75L297.75 629.978L298.613 631.25C298.712 635.82 297.692 640.67 297.127 645.22L292.877 675.623C291.347 685.982 290.522 696.679 288.381 706.916L286.804 707.75C285.463 707.675 285.485 707.67 284.502 706.75C284.121 701.909 285.786 696.332 286.47 691.5L291.968 653.5L293.971 639.5C294.334 636.964 294.493 634.034 295.196 631.594C295.409 630.854 295.759 630.375 296.189 629.75Z"/>
	<path fill="#231F20" d="M338.122 608.75C339.337 608.366 340.501 608.515 341.75 608.593C342.863 609.678 343.107 609.74 343.338 611.25C342.691 612.579 342.048 613.513 341.055 614.62C340.408 615.343 339.914 615.902 339.387 616.725C342.708 617.337 346.77 617.898 349.102 620.624C350.624 622.404 351.227 625.292 350.943 627.583C350.58 630.517 348.335 632.496 346.157 634.215C344.564 634.754 343.041 635.109 341.343 634.94C337.974 634.605 335.157 632.276 333.226 629.626C331.03 626.613 329.671 622.429 330.312 618.714L330.446 618C330.604 617.062 330.715 616.147 331.06 615.25C332.204 612.268 335.336 610.057 338.122 608.75Z"/>
	<path fill="#FEFEFE" d="M341.573 621.75L342.206 621.75C343.571 622.072 343.724 622.661 344.262 623.804C343.098 625.985 340.082 625.799 338.663 627.723L338.25 628.331L337.495 627.522C336.414 626.301 335.651 624.618 335.75 622.97C337.684 623.79 339.619 622.471 341.573 621.75Z"/>
	<path fill="#231F20" d="M338.973 599.145C341.777 599.059 344.65 599.492 347.25 600.55C351.95 602.463 355.688 605.808 357.728 610.5C356.973 611.664 355.72 612.031 354.5 612.569C353.854 612.286 353.595 612.073 353.198 611.484C351.804 609.412 350.29 607.569 348.096 606.282C343.819 603.773 337.713 603.095 333 604.644C329.66 605.742 327.781 608.404 326.301 611.415C326.365 618.514 326.242 624.838 330.806 630.831C333.445 634.297 337.309 637.642 341.791 638.109C345.872 638.535 348.86 636.687 351.958 634.287C354.166 631.773 355.445 627.095 358 625.519C359.409 626.394 359.37 626.75 359.949 628.25C359.639 630.284 359.14 631.913 358.157 633.731C355.871 637.965 351.752 642.193 346.916 643.331C341.99 644.49 336.638 642.635 332.595 639.867C326.695 635.828 322.805 629.214 321.567 622.219C320.585 616.666 320.983 611.147 324.499 606.453C327.76 602.099 333.801 599.847 338.973 599.145Z"/>
	<path fill="#231F20" d="M376.992 560.027L374.571 557.75L374.603 556L375.5 555.403C380.932 557.337 386.302 558.812 392.058 559.393L394.8 565.597C400.323 575.101 407.173 583.82 412.626 593.431C414.151 596.119 415.006 599.029 416.396 601.75C419.039 606.926 426.402 615.067 424.807 621.223C423.648 625.696 416.524 629.624 412.62 631.636C407.789 634.126 403.201 635.641 399.164 639.501C398.166 640.456 397.07 641.925 395.471 641.407C391.635 640.166 388.953 632.278 386.75 628.937C385.725 627.382 383.679 626.394 382.922 624.749C382.214 623.209 383.012 623.45 383.034 622.25C383.048 621.472 381.162 618.405 380.75 617.572C374.679 605.307 367.552 592.706 359.557 581.627C358.01 579.483 355.835 575.206 356.25 572.601C358.962 572.159 362.119 573.439 364.791 573.985L378.053 576.353C380.723 576.858 383.733 577.785 386.419 577.901C386.285 577.031 385.896 576.249 385.397 575.525C384.995 574.941 384.004 573.42 383.433 573.063C382.558 572.515 380.286 572.179 379.188 571.874C372.387 569.986 365.172 569.315 358.5 567.361C357.191 566.977 356.62 566.711 356.004 565.5L356.5 564.461C358.415 564.052 361.078 565.059 363 565.475C369.099 566.793 375.048 568.024 381.036 569.806C379.972 566.312 377.786 563.642 376.992 560.027Z"/>
	<path fill="#FEFEFE" d="M412.361 605.25L414.25 605.052C415.502 606.204 415.739 606.393 416.208 608.009L415.25 609.382C414.057 609.622 413.392 609.396 412.25 609.02C411.104 607.792 411.242 607.719 411.185 606.014L412.361 605.25Z"/>
	<path fill="#FEFEFE" d="M392.191 581.75C395.686 582.656 400.617 581.241 403.425 583.75L403.341 584.75L401.75 584.961C399.13 585.375 396.675 584.317 394.401 583.155L393.75 582.813L393.533 583.75L393.5 584.402L392.75 584.262L392.191 581.75Z"/>
	<path fill="#FEFEFE" d="M411.339 618.919C413.367 619.472 418.094 620.241 419.39 621.75L417.791 623.41L414.876 625.308L414.509 625.139C412.791 624.041 411.982 620.787 411.339 618.919Z"/>
	<path fill="#FEFEFE" d="M396.577 573.454C398.538 575.53 400.005 577.686 401.535 580.082C398.228 579.628 394.95 578.874 391.62 578.738C389.953 578.093 390.054 577.583 389.333 576.006L389.75 575.354C391.315 575.796 392.309 576.503 393.61 577.473L394.122 577.86C395.165 576.793 395.888 574.796 396.577 573.454Z"/>
	<path fill="#FEFEFE" d="M398.036 594.012C402.392 594.803 406.471 595.843 410.674 597.25C411.565 598.646 411.75 598.848 411.75 600.483C409.415 600.064 403.498 599.67 401.662 598.365C400.366 597.444 399.049 595.286 398.036 594.012Z"/>
	<path fill="#FEFEFE" d="M379.523 560.162C381.937 560.998 384.217 561.684 386.75 562.109L387.5 561.366C389.295 561.576 389.679 561.362 390.926 562.75L390.5 563.511L388.75 563.165L389.142 563.63C389.623 564.229 389.96 564.813 390.32 565.486L389.383 566.75L391.482 567.513L390.986 568.236C388.753 567.594 384.394 567.053 382.666 565.912C380.737 564.639 379.876 562.325 379.523 560.162Z"/>
	<path fill="#FEFEFE" d="M389.568 628.654C394.004 629.911 398.658 630.901 402.927 632.641L402.921 633.25L400.722 634.961C399.238 636.056 397.596 636.912 395.989 637.811L389.568 628.654Z"/>
	<path fill="#FEFEFE" d="M359.599 575.75C362.293 575.217 366.719 576.795 369.496 577.362L388.5 580.953C389.85 582.023 390.207 582.647 390.839 584.25L361.278 579.25C360.116 578.152 359.939 577.239 359.599 575.75Z"/>
	<path fill="#FEFEFE" d="M377.384 605.75C379.606 605.17 382.759 606.118 385 606.512C391.182 607.599 398.218 608.635 404.102 610.848C405.274 612.148 405.926 613.096 406.517 614.75C402.895 615.065 397.838 613.077 394.25 612.257C389.634 611.202 384.367 610.626 380 608.912C378.472 608.312 377.977 607.167 377.384 605.75Z"/>
	<path fill="#FEFEFE" d="M385.551 620.75L385.71 620.742C391.037 620.959 396.671 623.424 401.839 624.732C404.834 625.49 410.236 625.76 412.432 627.75L410.987 628.75C410.429 629.091 410.465 629.091 409.75 629.397C408.661 629.864 407.3 630.286 406.11 630.292C403.929 630.303 401.634 629.35 399.577 628.697C395.918 627.535 391.804 626.528 388.375 624.828C386.409 623.854 386.143 622.683 385.551 620.75Z"/>
	<path fill="#FEFEFE" d="M367.454 589.217C373.342 591.019 379.444 591.553 385.5 592.493C387.892 592.864 392.549 593.128 394.662 594.122C395.977 594.74 397.885 598.037 398.79 599.28L370.931 594.351C369.492 592.881 368.512 590.972 367.454 589.217Z"/>
	<path fill="#FEFEFE" d="M363.055 582.401L385 585.948C387.045 586.274 391.002 586.324 392.518 587.75C393.194 589.319 393.528 589.73 393.25 591.456L380.75 589.462L369.495 587.184C368.527 586.974 366.52 586.778 365.76 586.124C364.791 585.29 363.811 583.489 363.055 582.401Z"/>
	<path fill="#FEFEFE" d="M380.459 611.485L385.852 613.304C386.854 613.718 387.474 614.077 388.583 614.078C391.132 614.078 393.87 615.024 396.366 615.585L409.07 618.226C409.863 619.889 410.417 621.352 410.75 623.167C407.177 624.12 399.698 620.982 395.971 619.949C391.922 618.827 388.069 617.926 383.915 617.346L380.459 611.485Z"/>
	<path fill="#FEFEFE" d="M372.272 597.781C379.431 598.987 386.806 598.954 393.878 600.675C395.653 601.107 398.298 601.536 399.89 602.346C400.993 602.908 402.821 606.634 403.535 607.795L375.353 602.636L372.272 597.781Z"/>
	<path fill="#FEFEFE" d="M345.992 524.75L347.75 524.653C347.158 525.643 345.715 525.925 344.641 526.349L332.414 530.848L303.319 542.556C298.778 544.439 293.051 546.249 289.04 549.068C287.864 549.894 287.329 550.948 286.75 552.224C286.803 554.293 289.013 557.091 289.997 558.975C294.036 566.707 297.947 574.465 302.848 581.701L270.029 604.231L227.322 631.667C224.259 633.698 220.347 635.282 217.872 637.959C217.513 639.186 217.21 639.647 217.676 640.878C218.658 643.477 220.496 646.132 221.874 648.562L234.931 669.463L244.874 687.729C252.521 701.133 260.433 714.015 267.161 727.944L274.468 742.505C276.441 746.303 278.084 750.757 282.25 752.588C283.246 752.558 283.975 752.51 284.862 752.008C289.121 749.596 292.89 745.279 296.646 742.146C300.819 738.665 305.321 735.591 309.821 732.554L374.105 691.706L406.85 668.75L435.916 649.038L445.127 641.946C452.339 654.16 460.536 665.723 469.29 676.874C475.469 684.746 481.741 692.472 489.133 699.25C492.743 702.56 496.804 705.424 500.868 708.144C503.239 709.731 506.092 711.252 508.087 713.282L460.876 732.214L402 750.06L364.7 756.959L318.478 764.696C295.655 767.437 272.813 767.723 249.869 767.574C230.83 767.45 211.606 767.152 192.691 764.802C176.768 762.825 161.239 759.515 145.653 755.792C128.671 751.736 110.2 747.885 95.2465 738.452C86.7536 733.094 78.5257 723.237 76.5609 713.2C74.0014 700.127 83.3519 682.776 90.1155 672.114C97.1256 661.064 106.084 651.044 115.351 641.845C136.129 621.221 159.589 605.33 185 590.999C212.926 575.25 241.944 562.08 271.621 550.003L314.831 534.196C325.167 530.712 335.33 527.145 345.992 524.75Z"/>
	<path fill="#FEFEFE" d="M512.673 188.938C513.975 191.743 514.505 195.291 515.559 198.25L525.988 228.363C535.632 257.669 546.732 287.508 552.603 317.831C555.015 330.284 556.019 343.169 557.115 355.809C557.406 359.155 557.411 362.483 557.858 365.822L563.126 395L570.031 432.865C574.937 459.638 578.48 486.416 586.201 512.599C588.769 521.309 591.491 530.044 595.251 538.328C599.469 547.622 607.257 557.459 614.416 564.654C616.785 567.035 618.061 568.46 621.5 568.476C624.793 566.295 672.473 512.496 672.63 511.982C672.893 511.119 671.615 508.186 671.252 507.287C669.157 502.094 663.038 489.906 665.548 484.797C665.92 484.04 666.274 484.15 667 483.945C672.769 485.183 677.371 493.08 681.664 496.857C683.018 498.048 684.472 499.034 686.382 498.762C687.908 498.545 689.234 498.127 689.907 496.697C691.893 492.481 692.485 486.67 693.846 482.121C697.359 470.38 704.401 457.448 712.04 447.828C711.187 454.005 709.863 459.461 708.25 465.471C706.639 471.473 705.222 477.608 704.263 483.75C703.73 487.163 702.941 490.224 704.75 493.377C705.719 494.127 706.247 494.61 707.484 494.854C708.796 495.112 710.477 494.131 711.477 493.319C715.561 490.001 718.932 485.354 722.565 481.55C728.941 474.872 736.727 468.393 744.408 463.222C743.454 465.523 741.406 467.916 739.959 469.985L728.371 485.204C724.937 489.393 721.001 493.375 718.571 498.25C718.816 499.545 719.629 500.54 720.684 501.31C721.546 501.939 723.264 502.566 724.309 502.525C726.897 502.426 729.983 500.737 732.521 500.026C735.825 499.099 739.325 498.412 742.698 497.76C746.797 496.967 753.845 496.768 757.313 499.376C758.387 500.183 758.297 500.758 758.506 502C757.317 503.607 755.529 503.7 753.643 504.278C748.738 505.782 743.526 506.64 738.781 508.589C721.254 515.791 711.521 528.721 700.247 543.209C674.495 577.979 646.28 611.364 615.981 642.238C606.132 652.273 596.406 662.687 585.069 671.087C574.62 678.829 562.766 684.429 551.439 690.747L534.25 701.016L516.041 710.374C514.004 709.258 512.152 707.631 510.167 706.377C504.791 702.98 499.312 699.626 494.461 695.491C490.582 692.184 487.192 688.195 483.781 684.413C477.941 677.935 472.171 671.098 467.077 664.01C459.345 653.249 451.764 641.859 445.591 630.144C439.017 617.668 433.996 604.373 429.331 591.085C424.537 577.428 419.715 563.462 416.635 549.304C414.893 541.292 413.92 533.052 413.068 524.901L411.651 511.94C411.492 510.06 411.127 507.763 411.489 505.903C412.042 503.06 412.05 500.499 411.012 497.726C410.507 496.376 409.73 495.747 409.563 494.181C408.667 485.824 409.288 476.9 409.548 468.5C410.42 440.362 414.324 412.622 418.991 384.903C423.613 357.45 429.279 329.993 438.245 303.6C442.635 290.677 448.491 277.956 454.618 265.764C462.094 250.89 470.399 236.753 480.101 223.211C489.255 210.433 499.798 198.113 512.673 188.938Z"/>
	<path fill="#231F20" d="M482.44 244.75L484.25 244.476C485.498 245.351 485.692 245.298 486.057 246.75C485.199 250.537 483.162 253.086 479.987 255.25C479.338 255.455 478.673 255.493 478 255.574L476.521 254.25C476.442 253.496 476.387 253.324 476.491 252.5C476.853 249.612 480.349 246.595 482.44 244.75Z"/>
	<path fill="#231F20" d="M492.945 224.25C494.645 223.885 494.906 223.536 496.424 224.5L496.462 225.75C494.185 229.55 491.597 234.309 487.25 235.898C485.674 235.877 484.964 235.736 483.659 234.85C483.486 233.898 483.339 233.142 483.577 232.18C484.357 229.022 490.304 225.567 492.945 224.25Z"/>
	<path fill="#231F20" d="M509.494 201.25L511.004 201.082L511.456 201.75C511.145 204.015 510.279 205.716 509.227 207.709C506.943 212.039 503.248 219.359 498.25 220.894C497.625 220.777 497.101 220.505 496.521 220.25L496.278 218.944C497.1 216.105 499.086 213.851 500.75 211.452C503.358 207.694 505.469 203.654 509.494 201.25Z"/>
	<path fill="#231F20" d="M556.324 524.25C556.736 524.094 557.319 523.843 557.755 523.824C559.478 523.751 559.806 524.561 560.75 525.72C560.868 526.651 561.204 527.526 560.758 528.399C559.254 531.342 534.112 543.115 530.145 544.731C528.28 544.852 528.378 544.965 526.977 543.75C526.346 542.067 526.311 541.282 526.558 539.5C528.603 536.669 537.39 534.03 540.709 532.38L556.324 524.25Z"/>
	<path fill="#231F20" d="M543.99 485.476C546.065 485.54 546.314 485.405 548.012 486.75C548.539 488.361 548.396 489.352 548.078 491C546.825 492.518 544.931 492.979 543.105 493.671L531.387 497.95L516.12 503.972C514.623 504.034 513.304 503.961 512.185 502.863C511.215 501.911 511.546 500.568 511.511 499.25C513.133 496.77 518.868 495.32 521.619 494.262L543.99 485.476Z"/>
	<path fill="#231F20" d="M550.317 504.25L552.75 504.143C553.801 504.736 554.405 504.988 555.034 506.069C555.522 506.909 555.363 507.592 555.049 508.5C554.925 508.856 554.081 510.076 553.859 510.25C551.923 511.771 547.79 512.894 545.42 514.019C537.393 517.831 529.618 522.443 521.25 525.503L520.391 525.704C519.002 525.819 518.315 525.022 517.301 524.25C516.804 522.942 516.58 522.412 517.092 521C517.319 520.375 517.691 519.879 518.25 519.525C521.291 517.601 525.229 516.352 528.498 514.795L550.317 504.25Z"/>
	<path fill="#231F20" d="M521.605 310.582C522.8 310.58 524.093 310.688 525.25 310.996C529.11 312.024 531.428 316.044 533.118 319.378C537.227 327.486 537.308 335.491 534.475 344C532.62 349.572 529.979 352.413 524.854 354.969C522.624 355.312 520.864 355.055 518.829 354.041C515.485 352.374 513.317 348.789 512.141 345.372C509.397 337.399 509.083 326.474 512.988 318.8C514.962 314.92 517.339 311.976 521.605 310.582Z"/>
	<path fill="#FEFEFE" d="M527.189 323.75C528.4 323.372 528.762 323.114 529.985 323.652C531.257 324.212 532.493 325.508 532.992 326.804C534.631 331.06 531.699 336.379 530.013 340.25C529.544 341.135 529.262 341.362 528.5 341.968L528.025 341.734C526.116 340.509 525.42 337.959 525.134 335.847C524.647 332.244 524.905 326.667 527.189 323.75Z"/>
	<path fill="#231F20" d="M472.677 317.228C474.601 317.127 476.238 316.617 478.134 317.316C481.735 318.641 484.621 322.649 486.178 325.998C488.86 331.769 489.969 340.289 487.8 346.313L486.086 351.027C483.775 356.1 481.63 358.644 476.316 360.662C474.27 360.572 471.912 360.633 470.051 359.689C465.428 357.345 462.575 352.168 461.189 347.381C459.154 340.35 459.891 331.709 463.539 325.335C465.626 321.687 468.513 318.358 472.677 317.228Z"/>
	<path fill="#FEFEFE" d="M478.935 328.25L479.796 327.954C480.773 327.771 481.78 328.178 482.6 328.665C484.345 329.703 484.94 331.225 485.293 333.154C486.003 337.021 484.326 343.01 482.22 346.25C481.137 347.29 480.998 347.278 479.5 347.508C477.547 345.902 477.139 344.187 476.856 341.689C476.33 337.049 475.914 332.086 478.935 328.25Z"/>
	<path fill="#231F20" d="M542.338 363.519C543.76 363.436 545.268 363.206 546.5 364.07C547.487 364.763 548.44 366.061 548.611 367.25C548.945 369.56 547.239 371.788 545.995 373.619C544.781 375.407 544.107 375.728 542 376.113L539.75 374.146L529.928 379.113L532.229 381.369C539.175 388.228 543.014 394.465 542.923 404.5C542.863 411.118 539.88 417.608 535.185 422.184C527.533 429.643 517.637 432.804 507.101 432.584C492.016 432.268 476.626 424.938 466.228 414.166C462.421 409.942 459.609 405.511 456.811 400.572L446.52 400.523C445.24 400.518 443.121 400.225 441.922 400.504C441.505 400.602 440.816 401.406 440.53 401.739C439.259 403.22 438.126 405.122 436.25 405.836C434.533 405.609 433.403 405.173 432.307 403.75C431.267 402.4 431.421 400.843 431.591 399.25C432.24 398.134 432.822 397.449 433.85 396.668C434.662 396.051 435.809 395.02 436.71 394.606C437.207 394.378 438.735 394.489 439.33 394.486L448.75 394.807C451.889 394.816 455.052 394.634 458.178 394.345C466.161 393.608 474.237 391.565 482 389.593C494.11 386.516 506.382 382.239 517.637 376.787L542.338 363.519Z"/>
</svg>
